%TF.GenerationSoftware,KiCad,Pcbnew,4.0.2+dfsg1-stable*%
%TF.CreationDate,2018-08-31T16:40:32+08:00*%
%TF.ProjectId,aircon board,616972636F6E20626F6172642E6B6963,rev?*%
%TF.FileFunction,Copper,L2,Bot,Signal*%
%FSLAX46Y46*%
G04 Gerber Fmt 4.6, Leading zero omitted, Abs format (unit mm)*
G04 Created by KiCad (PCBNEW 4.0.2+dfsg1-stable) date Friday, 31 August, 2018 04:40:32 PM +08*
%MOMM*%
G01*
G04 APERTURE LIST*
%ADD10C,0.150000*%
%ADD11C,1.998980*%
%ADD12R,1.998980X1.998980*%
%ADD13R,1.900000X2.000000*%
%ADD14C,1.900000*%
%ADD15C,1.879600*%
%ADD16C,1.524000*%
%ADD17C,4.318000*%
%ADD18C,0.500000*%
%ADD19C,0.254000*%
G04 APERTURE END LIST*
D10*
X158750000Y-99060000D02*
X158750000Y-66040000D01*
X177800000Y-99060000D02*
X158750000Y-99060000D01*
X177800000Y-66040000D02*
X177800000Y-99060000D01*
X158750000Y-66040000D02*
X177800000Y-66040000D01*
D11*
X171450000Y-85087460D03*
D12*
X161290000Y-85087460D03*
D13*
X170180000Y-68580000D03*
D14*
X167640000Y-68580000D03*
D15*
X163830000Y-76200000D03*
X163830000Y-73660000D03*
X166370000Y-76200000D03*
X166370000Y-73660000D03*
X168910000Y-76200000D03*
X168910000Y-73660000D03*
X171450000Y-76200000D03*
X171450000Y-73660000D03*
X161290000Y-71120000D03*
X168910000Y-71120000D03*
X168910000Y-78740000D03*
X161290000Y-78740000D03*
D16*
X175260000Y-68580000D03*
X172720000Y-68580000D03*
X163830000Y-68580000D03*
X161290000Y-68580000D03*
X161290000Y-87630000D03*
X163830000Y-87630000D03*
X172720000Y-87630000D03*
X175260000Y-87630000D03*
D15*
X170180000Y-81280000D03*
X172720000Y-81280000D03*
X175260000Y-81280000D03*
D17*
X168910000Y-95171260D03*
X173609000Y-92171520D03*
X168910000Y-89171780D03*
D18*
X170180000Y-81280000D02*
X170180000Y-80010000D01*
X171450000Y-78740000D02*
X171450000Y-76200000D01*
X170180000Y-80010000D02*
X171450000Y-78740000D01*
X171450000Y-76200000D02*
X173990000Y-76200000D01*
X175260000Y-74930000D02*
X175260000Y-68580000D01*
X173990000Y-76200000D02*
X175260000Y-74930000D01*
D19*
G36*
X166297086Y-67680997D02*
X166055276Y-68263341D01*
X166054725Y-68893893D01*
X166295519Y-69476657D01*
X166740997Y-69922914D01*
X167323341Y-70164724D01*
X167637620Y-70164999D01*
X167575728Y-70226783D01*
X167335474Y-70805379D01*
X167334927Y-71431873D01*
X167574171Y-72010887D01*
X167952896Y-72390273D01*
X167639727Y-72702896D01*
X167263217Y-72325728D01*
X166684621Y-72085474D01*
X166058127Y-72084927D01*
X165479113Y-72324171D01*
X165099727Y-72702896D01*
X164723217Y-72325728D01*
X164144621Y-72085474D01*
X163518127Y-72084927D01*
X162939113Y-72324171D01*
X162495728Y-72766783D01*
X162255474Y-73345379D01*
X162254927Y-73971873D01*
X162494171Y-74550887D01*
X162872896Y-74930273D01*
X162495728Y-75306783D01*
X162255474Y-75885379D01*
X162254927Y-76511873D01*
X162494171Y-77090887D01*
X162936783Y-77534272D01*
X163515379Y-77774526D01*
X164141873Y-77775073D01*
X164720887Y-77535829D01*
X165100273Y-77157104D01*
X165476783Y-77534272D01*
X166055379Y-77774526D01*
X166681873Y-77775073D01*
X167260887Y-77535829D01*
X167640273Y-77157104D01*
X167952896Y-77470273D01*
X167575728Y-77846783D01*
X167335474Y-78425379D01*
X167334927Y-79051873D01*
X167574171Y-79630887D01*
X168016783Y-80074272D01*
X168595379Y-80314526D01*
X169035302Y-80314910D01*
X169071030Y-80350638D01*
X168810420Y-80441923D01*
X168593955Y-81029833D01*
X168618951Y-81655828D01*
X168810420Y-82118077D01*
X169071032Y-82209363D01*
X170000395Y-81280000D01*
X169986253Y-81265858D01*
X170165858Y-81086253D01*
X170180000Y-81100395D01*
X171109363Y-80171032D01*
X171018077Y-79910420D01*
X170430167Y-79693955D01*
X170173147Y-79704218D01*
X170244272Y-79633217D01*
X170484526Y-79054621D01*
X170485073Y-78428127D01*
X170245829Y-77849113D01*
X169867104Y-77469727D01*
X170028143Y-77308968D01*
X170520637Y-77308968D01*
X170611923Y-77569580D01*
X171199833Y-77786045D01*
X171825828Y-77761049D01*
X172288077Y-77569580D01*
X172379363Y-77308968D01*
X171450000Y-76379605D01*
X170520637Y-77308968D01*
X170028143Y-77308968D01*
X170242601Y-77094885D01*
X170341032Y-77129363D01*
X171270395Y-76200000D01*
X171629605Y-76200000D01*
X172558968Y-77129363D01*
X172819580Y-77038077D01*
X173036045Y-76450167D01*
X173011049Y-75824172D01*
X172819580Y-75361923D01*
X172558968Y-75270637D01*
X171629605Y-76200000D01*
X171270395Y-76200000D01*
X170341032Y-75270637D01*
X170242036Y-75305313D01*
X169867104Y-74929727D01*
X170180273Y-74617104D01*
X170555115Y-74992601D01*
X170520637Y-75091032D01*
X171450000Y-76020395D01*
X172379363Y-75091032D01*
X172344687Y-74992036D01*
X172784272Y-74553217D01*
X173024526Y-73974621D01*
X173025073Y-73348127D01*
X172785829Y-72769113D01*
X172343217Y-72325728D01*
X171764621Y-72085474D01*
X171138127Y-72084927D01*
X170559113Y-72324171D01*
X170179727Y-72702896D01*
X169867104Y-72389727D01*
X170244272Y-72013217D01*
X170484526Y-71434621D01*
X170485073Y-70808127D01*
X170245829Y-70229113D01*
X170244159Y-70227440D01*
X171130000Y-70227440D01*
X171365317Y-70183162D01*
X171581441Y-70044090D01*
X171726431Y-69831890D01*
X171765941Y-69636785D01*
X171804382Y-69675226D01*
X171919393Y-69560215D01*
X171988857Y-69802397D01*
X172512302Y-69989144D01*
X173067368Y-69961362D01*
X173451143Y-69802397D01*
X173520608Y-69560213D01*
X174459392Y-69560213D01*
X174528857Y-69802397D01*
X175052302Y-69989144D01*
X175607368Y-69961362D01*
X175991143Y-69802397D01*
X176060608Y-69560213D01*
X175260000Y-68759605D01*
X174459392Y-69560213D01*
X173520608Y-69560213D01*
X172720000Y-68759605D01*
X172705858Y-68773748D01*
X172526253Y-68594143D01*
X172540395Y-68580000D01*
X172899605Y-68580000D01*
X173700213Y-69380608D01*
X173942397Y-69311143D01*
X173986453Y-69187656D01*
X174037603Y-69311143D01*
X174279787Y-69380608D01*
X175080395Y-68580000D01*
X174279787Y-67779392D01*
X174037603Y-67848857D01*
X173993547Y-67972344D01*
X173942397Y-67848857D01*
X173700213Y-67779392D01*
X172899605Y-68580000D01*
X172540395Y-68580000D01*
X172526253Y-68565858D01*
X172705858Y-68386253D01*
X172720000Y-68400395D01*
X173520608Y-67599787D01*
X173473916Y-67437000D01*
X174506084Y-67437000D01*
X174459392Y-67599787D01*
X175260000Y-68400395D01*
X176060608Y-67599787D01*
X176013916Y-67437000D01*
X176403000Y-67437000D01*
X176403000Y-67826084D01*
X176240213Y-67779392D01*
X175439605Y-68580000D01*
X176240213Y-69380608D01*
X176403000Y-69333916D01*
X176403000Y-80195947D01*
X176153217Y-79945728D01*
X175574621Y-79705474D01*
X174948127Y-79704927D01*
X174369113Y-79944171D01*
X173989727Y-80322896D01*
X173613217Y-79945728D01*
X173034621Y-79705474D01*
X172408127Y-79704927D01*
X171829113Y-79944171D01*
X171387399Y-80385115D01*
X171288968Y-80350637D01*
X170359605Y-81280000D01*
X171288968Y-82209363D01*
X171387964Y-82174687D01*
X171826783Y-82614272D01*
X172405379Y-82854526D01*
X173031873Y-82855073D01*
X173610887Y-82615829D01*
X173990273Y-82237104D01*
X174366783Y-82614272D01*
X174945379Y-82854526D01*
X175571873Y-82855073D01*
X176150887Y-82615829D01*
X176403000Y-82364156D01*
X176403000Y-86797614D01*
X176052370Y-86446371D01*
X175539100Y-86233243D01*
X174983339Y-86232758D01*
X174469697Y-86444990D01*
X174076371Y-86837630D01*
X173990051Y-87045512D01*
X173905010Y-86839697D01*
X173512370Y-86446371D01*
X172999100Y-86233243D01*
X172616089Y-86232909D01*
X172834846Y-86014533D01*
X173084206Y-85414007D01*
X173084774Y-84763766D01*
X172836462Y-84162805D01*
X172377073Y-83702614D01*
X171776547Y-83453254D01*
X171126306Y-83452686D01*
X170525345Y-83700998D01*
X170065154Y-84160387D01*
X169815794Y-84760913D01*
X169815226Y-85411154D01*
X170063538Y-86012115D01*
X170522927Y-86472306D01*
X171123453Y-86721666D01*
X171652075Y-86722128D01*
X171536371Y-86837630D01*
X171323243Y-87350900D01*
X171322943Y-87695057D01*
X171280019Y-87591174D01*
X170494740Y-86804523D01*
X169468199Y-86378266D01*
X168356677Y-86377296D01*
X167329394Y-86801761D01*
X166542743Y-87587040D01*
X166116486Y-88613581D01*
X166115516Y-89725103D01*
X166539981Y-90752386D01*
X167325260Y-91539037D01*
X168351801Y-91965294D01*
X169463323Y-91966264D01*
X170490606Y-91541799D01*
X171096218Y-90937243D01*
X170815486Y-91613321D01*
X170814516Y-92724843D01*
X171096161Y-93406474D01*
X170494740Y-92804003D01*
X169468199Y-92377746D01*
X168356677Y-92376776D01*
X167329394Y-92801241D01*
X166542743Y-93586520D01*
X166116486Y-94613061D01*
X166115516Y-95724583D01*
X166539981Y-96751866D01*
X167325260Y-97538517D01*
X167625048Y-97663000D01*
X163127128Y-97663000D01*
X163424628Y-96946541D01*
X163425370Y-96097185D01*
X163101020Y-95312200D01*
X162500959Y-94711091D01*
X161716541Y-94385372D01*
X160867185Y-94384630D01*
X160147000Y-94682205D01*
X160147000Y-88462386D01*
X160497630Y-88813629D01*
X161010900Y-89026757D01*
X161566661Y-89027242D01*
X162080303Y-88815010D01*
X162473629Y-88422370D01*
X162559949Y-88214488D01*
X162644990Y-88420303D01*
X163037630Y-88813629D01*
X163550900Y-89026757D01*
X164106661Y-89027242D01*
X164620303Y-88815010D01*
X165013629Y-88422370D01*
X165226757Y-87909100D01*
X165227242Y-87353339D01*
X165015010Y-86839697D01*
X164622370Y-86446371D01*
X164109100Y-86233243D01*
X163553339Y-86232758D01*
X163039697Y-86444990D01*
X162646371Y-86837630D01*
X162560051Y-87045512D01*
X162475010Y-86839697D01*
X162357173Y-86721654D01*
X162524807Y-86690112D01*
X162740931Y-86551040D01*
X162885921Y-86338840D01*
X162936930Y-86086950D01*
X162936930Y-84087970D01*
X162892652Y-83852653D01*
X162753580Y-83636529D01*
X162541380Y-83491539D01*
X162289490Y-83440530D01*
X160290510Y-83440530D01*
X160147000Y-83467533D01*
X160147000Y-82388968D01*
X169250637Y-82388968D01*
X169341923Y-82649580D01*
X169929833Y-82866045D01*
X170555828Y-82841049D01*
X171018077Y-82649580D01*
X171109363Y-82388968D01*
X170180000Y-81459605D01*
X169250637Y-82388968D01*
X160147000Y-82388968D01*
X160147000Y-79824053D01*
X160396783Y-80074272D01*
X160975379Y-80314526D01*
X161601873Y-80315073D01*
X162180887Y-80075829D01*
X162624272Y-79633217D01*
X162864526Y-79054621D01*
X162865073Y-78428127D01*
X162625829Y-77849113D01*
X162183217Y-77405728D01*
X161604621Y-77165474D01*
X160978127Y-77164927D01*
X160399113Y-77404171D01*
X160147000Y-77655844D01*
X160147000Y-72204053D01*
X160396783Y-72454272D01*
X160975379Y-72694526D01*
X161601873Y-72695073D01*
X162180887Y-72455829D01*
X162624272Y-72013217D01*
X162864526Y-71434621D01*
X162865073Y-70808127D01*
X162625829Y-70229113D01*
X162183217Y-69785728D01*
X162095878Y-69749462D01*
X162473629Y-69372370D01*
X162559949Y-69164488D01*
X162644990Y-69370303D01*
X163037630Y-69763629D01*
X163550900Y-69976757D01*
X164106661Y-69977242D01*
X164620303Y-69765010D01*
X165013629Y-69372370D01*
X165226757Y-68859100D01*
X165227242Y-68303339D01*
X165015010Y-67789697D01*
X164662928Y-67437000D01*
X166541510Y-67437000D01*
X166297086Y-67680997D01*
X166297086Y-67680997D01*
G37*
X166297086Y-67680997D02*
X166055276Y-68263341D01*
X166054725Y-68893893D01*
X166295519Y-69476657D01*
X166740997Y-69922914D01*
X167323341Y-70164724D01*
X167637620Y-70164999D01*
X167575728Y-70226783D01*
X167335474Y-70805379D01*
X167334927Y-71431873D01*
X167574171Y-72010887D01*
X167952896Y-72390273D01*
X167639727Y-72702896D01*
X167263217Y-72325728D01*
X166684621Y-72085474D01*
X166058127Y-72084927D01*
X165479113Y-72324171D01*
X165099727Y-72702896D01*
X164723217Y-72325728D01*
X164144621Y-72085474D01*
X163518127Y-72084927D01*
X162939113Y-72324171D01*
X162495728Y-72766783D01*
X162255474Y-73345379D01*
X162254927Y-73971873D01*
X162494171Y-74550887D01*
X162872896Y-74930273D01*
X162495728Y-75306783D01*
X162255474Y-75885379D01*
X162254927Y-76511873D01*
X162494171Y-77090887D01*
X162936783Y-77534272D01*
X163515379Y-77774526D01*
X164141873Y-77775073D01*
X164720887Y-77535829D01*
X165100273Y-77157104D01*
X165476783Y-77534272D01*
X166055379Y-77774526D01*
X166681873Y-77775073D01*
X167260887Y-77535829D01*
X167640273Y-77157104D01*
X167952896Y-77470273D01*
X167575728Y-77846783D01*
X167335474Y-78425379D01*
X167334927Y-79051873D01*
X167574171Y-79630887D01*
X168016783Y-80074272D01*
X168595379Y-80314526D01*
X169035302Y-80314910D01*
X169071030Y-80350638D01*
X168810420Y-80441923D01*
X168593955Y-81029833D01*
X168618951Y-81655828D01*
X168810420Y-82118077D01*
X169071032Y-82209363D01*
X170000395Y-81280000D01*
X169986253Y-81265858D01*
X170165858Y-81086253D01*
X170180000Y-81100395D01*
X171109363Y-80171032D01*
X171018077Y-79910420D01*
X170430167Y-79693955D01*
X170173147Y-79704218D01*
X170244272Y-79633217D01*
X170484526Y-79054621D01*
X170485073Y-78428127D01*
X170245829Y-77849113D01*
X169867104Y-77469727D01*
X170028143Y-77308968D01*
X170520637Y-77308968D01*
X170611923Y-77569580D01*
X171199833Y-77786045D01*
X171825828Y-77761049D01*
X172288077Y-77569580D01*
X172379363Y-77308968D01*
X171450000Y-76379605D01*
X170520637Y-77308968D01*
X170028143Y-77308968D01*
X170242601Y-77094885D01*
X170341032Y-77129363D01*
X171270395Y-76200000D01*
X171629605Y-76200000D01*
X172558968Y-77129363D01*
X172819580Y-77038077D01*
X173036045Y-76450167D01*
X173011049Y-75824172D01*
X172819580Y-75361923D01*
X172558968Y-75270637D01*
X171629605Y-76200000D01*
X171270395Y-76200000D01*
X170341032Y-75270637D01*
X170242036Y-75305313D01*
X169867104Y-74929727D01*
X170180273Y-74617104D01*
X170555115Y-74992601D01*
X170520637Y-75091032D01*
X171450000Y-76020395D01*
X172379363Y-75091032D01*
X172344687Y-74992036D01*
X172784272Y-74553217D01*
X173024526Y-73974621D01*
X173025073Y-73348127D01*
X172785829Y-72769113D01*
X172343217Y-72325728D01*
X171764621Y-72085474D01*
X171138127Y-72084927D01*
X170559113Y-72324171D01*
X170179727Y-72702896D01*
X169867104Y-72389727D01*
X170244272Y-72013217D01*
X170484526Y-71434621D01*
X170485073Y-70808127D01*
X170245829Y-70229113D01*
X170244159Y-70227440D01*
X171130000Y-70227440D01*
X171365317Y-70183162D01*
X171581441Y-70044090D01*
X171726431Y-69831890D01*
X171765941Y-69636785D01*
X171804382Y-69675226D01*
X171919393Y-69560215D01*
X171988857Y-69802397D01*
X172512302Y-69989144D01*
X173067368Y-69961362D01*
X173451143Y-69802397D01*
X173520608Y-69560213D01*
X174459392Y-69560213D01*
X174528857Y-69802397D01*
X175052302Y-69989144D01*
X175607368Y-69961362D01*
X175991143Y-69802397D01*
X176060608Y-69560213D01*
X175260000Y-68759605D01*
X174459392Y-69560213D01*
X173520608Y-69560213D01*
X172720000Y-68759605D01*
X172705858Y-68773748D01*
X172526253Y-68594143D01*
X172540395Y-68580000D01*
X172899605Y-68580000D01*
X173700213Y-69380608D01*
X173942397Y-69311143D01*
X173986453Y-69187656D01*
X174037603Y-69311143D01*
X174279787Y-69380608D01*
X175080395Y-68580000D01*
X174279787Y-67779392D01*
X174037603Y-67848857D01*
X173993547Y-67972344D01*
X173942397Y-67848857D01*
X173700213Y-67779392D01*
X172899605Y-68580000D01*
X172540395Y-68580000D01*
X172526253Y-68565858D01*
X172705858Y-68386253D01*
X172720000Y-68400395D01*
X173520608Y-67599787D01*
X173473916Y-67437000D01*
X174506084Y-67437000D01*
X174459392Y-67599787D01*
X175260000Y-68400395D01*
X176060608Y-67599787D01*
X176013916Y-67437000D01*
X176403000Y-67437000D01*
X176403000Y-67826084D01*
X176240213Y-67779392D01*
X175439605Y-68580000D01*
X176240213Y-69380608D01*
X176403000Y-69333916D01*
X176403000Y-80195947D01*
X176153217Y-79945728D01*
X175574621Y-79705474D01*
X174948127Y-79704927D01*
X174369113Y-79944171D01*
X173989727Y-80322896D01*
X173613217Y-79945728D01*
X173034621Y-79705474D01*
X172408127Y-79704927D01*
X171829113Y-79944171D01*
X171387399Y-80385115D01*
X171288968Y-80350637D01*
X170359605Y-81280000D01*
X171288968Y-82209363D01*
X171387964Y-82174687D01*
X171826783Y-82614272D01*
X172405379Y-82854526D01*
X173031873Y-82855073D01*
X173610887Y-82615829D01*
X173990273Y-82237104D01*
X174366783Y-82614272D01*
X174945379Y-82854526D01*
X175571873Y-82855073D01*
X176150887Y-82615829D01*
X176403000Y-82364156D01*
X176403000Y-86797614D01*
X176052370Y-86446371D01*
X175539100Y-86233243D01*
X174983339Y-86232758D01*
X174469697Y-86444990D01*
X174076371Y-86837630D01*
X173990051Y-87045512D01*
X173905010Y-86839697D01*
X173512370Y-86446371D01*
X172999100Y-86233243D01*
X172616089Y-86232909D01*
X172834846Y-86014533D01*
X173084206Y-85414007D01*
X173084774Y-84763766D01*
X172836462Y-84162805D01*
X172377073Y-83702614D01*
X171776547Y-83453254D01*
X171126306Y-83452686D01*
X170525345Y-83700998D01*
X170065154Y-84160387D01*
X169815794Y-84760913D01*
X169815226Y-85411154D01*
X170063538Y-86012115D01*
X170522927Y-86472306D01*
X171123453Y-86721666D01*
X171652075Y-86722128D01*
X171536371Y-86837630D01*
X171323243Y-87350900D01*
X171322943Y-87695057D01*
X171280019Y-87591174D01*
X170494740Y-86804523D01*
X169468199Y-86378266D01*
X168356677Y-86377296D01*
X167329394Y-86801761D01*
X166542743Y-87587040D01*
X166116486Y-88613581D01*
X166115516Y-89725103D01*
X166539981Y-90752386D01*
X167325260Y-91539037D01*
X168351801Y-91965294D01*
X169463323Y-91966264D01*
X170490606Y-91541799D01*
X171096218Y-90937243D01*
X170815486Y-91613321D01*
X170814516Y-92724843D01*
X171096161Y-93406474D01*
X170494740Y-92804003D01*
X169468199Y-92377746D01*
X168356677Y-92376776D01*
X167329394Y-92801241D01*
X166542743Y-93586520D01*
X166116486Y-94613061D01*
X166115516Y-95724583D01*
X166539981Y-96751866D01*
X167325260Y-97538517D01*
X167625048Y-97663000D01*
X163127128Y-97663000D01*
X163424628Y-96946541D01*
X163425370Y-96097185D01*
X163101020Y-95312200D01*
X162500959Y-94711091D01*
X161716541Y-94385372D01*
X160867185Y-94384630D01*
X160147000Y-94682205D01*
X160147000Y-88462386D01*
X160497630Y-88813629D01*
X161010900Y-89026757D01*
X161566661Y-89027242D01*
X162080303Y-88815010D01*
X162473629Y-88422370D01*
X162559949Y-88214488D01*
X162644990Y-88420303D01*
X163037630Y-88813629D01*
X163550900Y-89026757D01*
X164106661Y-89027242D01*
X164620303Y-88815010D01*
X165013629Y-88422370D01*
X165226757Y-87909100D01*
X165227242Y-87353339D01*
X165015010Y-86839697D01*
X164622370Y-86446371D01*
X164109100Y-86233243D01*
X163553339Y-86232758D01*
X163039697Y-86444990D01*
X162646371Y-86837630D01*
X162560051Y-87045512D01*
X162475010Y-86839697D01*
X162357173Y-86721654D01*
X162524807Y-86690112D01*
X162740931Y-86551040D01*
X162885921Y-86338840D01*
X162936930Y-86086950D01*
X162936930Y-84087970D01*
X162892652Y-83852653D01*
X162753580Y-83636529D01*
X162541380Y-83491539D01*
X162289490Y-83440530D01*
X160290510Y-83440530D01*
X160147000Y-83467533D01*
X160147000Y-82388968D01*
X169250637Y-82388968D01*
X169341923Y-82649580D01*
X169929833Y-82866045D01*
X170555828Y-82841049D01*
X171018077Y-82649580D01*
X171109363Y-82388968D01*
X170180000Y-81459605D01*
X169250637Y-82388968D01*
X160147000Y-82388968D01*
X160147000Y-79824053D01*
X160396783Y-80074272D01*
X160975379Y-80314526D01*
X161601873Y-80315073D01*
X162180887Y-80075829D01*
X162624272Y-79633217D01*
X162864526Y-79054621D01*
X162865073Y-78428127D01*
X162625829Y-77849113D01*
X162183217Y-77405728D01*
X161604621Y-77165474D01*
X160978127Y-77164927D01*
X160399113Y-77404171D01*
X160147000Y-77655844D01*
X160147000Y-72204053D01*
X160396783Y-72454272D01*
X160975379Y-72694526D01*
X161601873Y-72695073D01*
X162180887Y-72455829D01*
X162624272Y-72013217D01*
X162864526Y-71434621D01*
X162865073Y-70808127D01*
X162625829Y-70229113D01*
X162183217Y-69785728D01*
X162095878Y-69749462D01*
X162473629Y-69372370D01*
X162559949Y-69164488D01*
X162644990Y-69370303D01*
X163037630Y-69763629D01*
X163550900Y-69976757D01*
X164106661Y-69977242D01*
X164620303Y-69765010D01*
X165013629Y-69372370D01*
X165226757Y-68859100D01*
X165227242Y-68303339D01*
X165015010Y-67789697D01*
X164662928Y-67437000D01*
X166541510Y-67437000D01*
X166297086Y-67680997D01*
M02*
