%TF.GenerationSoftware,KiCad,Pcbnew,4.0.2+dfsg1-stable*%
%TF.CreationDate,2018-09-12T10:27:24+08:00*%
%TF.ProjectId,aircon board,616972636F6E20626F6172642E6B6963,rev?*%
%TF.FileFunction,Copper,L2,Bot,Signal*%
%FSLAX46Y46*%
G04 Gerber Fmt 4.6, Leading zero omitted, Abs format (unit mm)*
G04 Created by KiCad (PCBNEW 4.0.2+dfsg1-stable) date Wednesday, 12 September, 2018 10:27:24 AM +08*
%MOMM*%
G01*
G04 APERTURE LIST*
%ADD10C,2.000000*%
%ADD11C,0.150000*%
%ADD12C,1.998980*%
%ADD13R,1.998980X1.998980*%
%ADD14R,1.900000X2.000000*%
%ADD15C,1.900000*%
%ADD16C,1.879600*%
%ADD17C,4.318000*%
%ADD18C,2.286000*%
%ADD19C,0.500000*%
%ADD20C,0.254000*%
G04 APERTURE END LIST*
D10*
D11*
X158750000Y-99060000D02*
X158750000Y-66040000D01*
X177800000Y-99060000D02*
X158750000Y-99060000D01*
X177800000Y-66040000D02*
X177800000Y-99060000D01*
X158750000Y-66040000D02*
X177800000Y-66040000D01*
D12*
X171450000Y-84833460D03*
D13*
X161290000Y-84833460D03*
D14*
X170180000Y-68580000D03*
D15*
X167640000Y-68580000D03*
D16*
X163830000Y-76200000D03*
X163830000Y-73660000D03*
X166370000Y-76200000D03*
X166370000Y-73660000D03*
X168910000Y-76200000D03*
X168910000Y-73660000D03*
X171450000Y-76200000D03*
X171450000Y-73660000D03*
X161290000Y-71120000D03*
X168910000Y-71120000D03*
X168910000Y-78740000D03*
X161290000Y-78740000D03*
X170180000Y-81280000D03*
X172720000Y-81280000D03*
X175260000Y-81280000D03*
D17*
X168910000Y-95171260D03*
X173609000Y-92171520D03*
X168910000Y-89171780D03*
D18*
X175514000Y-68580000D03*
X172974000Y-68580000D03*
X164084000Y-68580000D03*
X161544000Y-68580000D03*
X161544000Y-87630000D03*
X164084000Y-87630000D03*
X172974000Y-87630000D03*
X175514000Y-87630000D03*
D19*
X172974000Y-68580000D02*
X175514000Y-68580000D01*
X171450000Y-76200000D02*
X171958000Y-76200000D01*
X171958000Y-76200000D02*
X172974000Y-75184000D01*
X172974000Y-75184000D02*
X172974000Y-68580000D01*
D20*
G36*
X166297086Y-67680997D02*
X166055276Y-68263341D01*
X166054725Y-68893893D01*
X166295519Y-69476657D01*
X166740997Y-69922914D01*
X167323341Y-70164724D01*
X167637620Y-70164999D01*
X167575728Y-70226783D01*
X167335474Y-70805379D01*
X167334927Y-71431873D01*
X167574171Y-72010887D01*
X167952896Y-72390273D01*
X167639727Y-72702896D01*
X167263217Y-72325728D01*
X166684621Y-72085474D01*
X166058127Y-72084927D01*
X165479113Y-72324171D01*
X165099727Y-72702896D01*
X164723217Y-72325728D01*
X164144621Y-72085474D01*
X163518127Y-72084927D01*
X162939113Y-72324171D01*
X162495728Y-72766783D01*
X162255474Y-73345379D01*
X162254927Y-73971873D01*
X162494171Y-74550887D01*
X162872896Y-74930273D01*
X162495728Y-75306783D01*
X162255474Y-75885379D01*
X162254927Y-76511873D01*
X162494171Y-77090887D01*
X162936783Y-77534272D01*
X163515379Y-77774526D01*
X164141873Y-77775073D01*
X164720887Y-77535829D01*
X165100273Y-77157104D01*
X165476783Y-77534272D01*
X166055379Y-77774526D01*
X166681873Y-77775073D01*
X167260887Y-77535829D01*
X167640273Y-77157104D01*
X167952896Y-77470273D01*
X167575728Y-77846783D01*
X167335474Y-78425379D01*
X167334927Y-79051873D01*
X167574171Y-79630887D01*
X168016783Y-80074272D01*
X168595379Y-80314526D01*
X169035302Y-80314910D01*
X169071030Y-80350638D01*
X168810420Y-80441923D01*
X168593955Y-81029833D01*
X168618951Y-81655828D01*
X168810420Y-82118077D01*
X169071032Y-82209363D01*
X170000395Y-81280000D01*
X169986253Y-81265858D01*
X170165858Y-81086253D01*
X170180000Y-81100395D01*
X171109363Y-80171032D01*
X171018077Y-79910420D01*
X170430167Y-79693955D01*
X170173147Y-79704218D01*
X170244272Y-79633217D01*
X170484526Y-79054621D01*
X170485073Y-78428127D01*
X170245829Y-77849113D01*
X169867104Y-77469727D01*
X170028143Y-77308968D01*
X170520637Y-77308968D01*
X170611923Y-77569580D01*
X171199833Y-77786045D01*
X171825828Y-77761049D01*
X172288077Y-77569580D01*
X172379363Y-77308968D01*
X171450000Y-76379605D01*
X170520637Y-77308968D01*
X170028143Y-77308968D01*
X170242601Y-77094885D01*
X170341032Y-77129363D01*
X171270395Y-76200000D01*
X171629605Y-76200000D01*
X172558968Y-77129363D01*
X172819580Y-77038077D01*
X173036045Y-76450167D01*
X173011049Y-75824172D01*
X172819580Y-75361923D01*
X172558968Y-75270637D01*
X171629605Y-76200000D01*
X171270395Y-76200000D01*
X170341032Y-75270637D01*
X170242036Y-75305313D01*
X169867104Y-74929727D01*
X170180273Y-74617104D01*
X170555115Y-74992601D01*
X170520637Y-75091032D01*
X171450000Y-76020395D01*
X172379363Y-75091032D01*
X172344687Y-74992036D01*
X172784272Y-74553217D01*
X173024526Y-73974621D01*
X173025073Y-73348127D01*
X172785829Y-72769113D01*
X172343217Y-72325728D01*
X171764621Y-72085474D01*
X171138127Y-72084927D01*
X170559113Y-72324171D01*
X170179727Y-72702896D01*
X169867104Y-72389727D01*
X170244272Y-72013217D01*
X170484526Y-71434621D01*
X170485073Y-70808127D01*
X170245829Y-70229113D01*
X170244159Y-70227440D01*
X171130000Y-70227440D01*
X171365317Y-70183162D01*
X171581441Y-70044090D01*
X171701769Y-69867983D01*
X171783697Y-69949911D01*
X171897643Y-69835965D01*
X172013806Y-70117658D01*
X172675333Y-70368062D01*
X173382329Y-70346249D01*
X173934194Y-70117658D01*
X174050358Y-69835963D01*
X172974000Y-68759605D01*
X172959858Y-68773748D01*
X172780253Y-68594143D01*
X172794395Y-68580000D01*
X172780253Y-68565858D01*
X172959858Y-68386253D01*
X172974000Y-68400395D01*
X172988143Y-68386253D01*
X173167748Y-68565858D01*
X173153605Y-68580000D01*
X173879144Y-69305539D01*
X173976342Y-69540194D01*
X174210262Y-69636657D01*
X174229963Y-69656358D01*
X174244000Y-69650569D01*
X174258037Y-69656358D01*
X174277738Y-69636657D01*
X174511658Y-69540194D01*
X174595379Y-69319016D01*
X175334395Y-68580000D01*
X175320253Y-68565858D01*
X175499858Y-68386253D01*
X175514000Y-68400395D01*
X175528143Y-68386253D01*
X175707748Y-68565858D01*
X175693605Y-68580000D01*
X175707748Y-68594143D01*
X175528143Y-68773748D01*
X175514000Y-68759605D01*
X174437642Y-69835963D01*
X174553806Y-70117658D01*
X175215333Y-70368062D01*
X175922329Y-70346249D01*
X176403000Y-70147148D01*
X176403000Y-80195947D01*
X176153217Y-79945728D01*
X175574621Y-79705474D01*
X174948127Y-79704927D01*
X174369113Y-79944171D01*
X173989727Y-80322896D01*
X173613217Y-79945728D01*
X173034621Y-79705474D01*
X172408127Y-79704927D01*
X171829113Y-79944171D01*
X171387399Y-80385115D01*
X171288968Y-80350637D01*
X170359605Y-81280000D01*
X171288968Y-82209363D01*
X171387964Y-82174687D01*
X171826783Y-82614272D01*
X172405379Y-82854526D01*
X173031873Y-82855073D01*
X173610887Y-82615829D01*
X173990273Y-82237104D01*
X174366783Y-82614272D01*
X174945379Y-82854526D01*
X175571873Y-82855073D01*
X176150887Y-82615829D01*
X176403000Y-82364156D01*
X176403000Y-86073955D01*
X175869218Y-85852309D01*
X175161886Y-85851692D01*
X174508160Y-86121806D01*
X174243978Y-86385528D01*
X173982471Y-86123564D01*
X173329218Y-85852309D01*
X172743422Y-85851798D01*
X172834846Y-85760533D01*
X173084206Y-85160007D01*
X173084774Y-84509766D01*
X172836462Y-83908805D01*
X172377073Y-83448614D01*
X171776547Y-83199254D01*
X171126306Y-83198686D01*
X170525345Y-83446998D01*
X170065154Y-83906387D01*
X169815794Y-84506913D01*
X169815226Y-85157154D01*
X170063538Y-85758115D01*
X170522927Y-86218306D01*
X171123453Y-86467666D01*
X171621260Y-86468101D01*
X171467564Y-86621529D01*
X171196309Y-87274782D01*
X171196106Y-87507115D01*
X170494740Y-86804523D01*
X169468199Y-86378266D01*
X168356677Y-86377296D01*
X167329394Y-86801761D01*
X166542743Y-87587040D01*
X166116486Y-88613581D01*
X166115516Y-89725103D01*
X166539981Y-90752386D01*
X167325260Y-91539037D01*
X168351801Y-91965294D01*
X169463323Y-91966264D01*
X170490606Y-91541799D01*
X171096218Y-90937243D01*
X170815486Y-91613321D01*
X170814516Y-92724843D01*
X171096161Y-93406474D01*
X170494740Y-92804003D01*
X169468199Y-92377746D01*
X168356677Y-92376776D01*
X167329394Y-92801241D01*
X166542743Y-93586520D01*
X166116486Y-94613061D01*
X166115516Y-95724583D01*
X166539981Y-96751866D01*
X167325260Y-97538517D01*
X167625048Y-97663000D01*
X163127128Y-97663000D01*
X163424628Y-96946541D01*
X163425370Y-96097185D01*
X163101020Y-95312200D01*
X162500959Y-94711091D01*
X161716541Y-94385372D01*
X160867185Y-94384630D01*
X160147000Y-94682205D01*
X160147000Y-88747228D01*
X160535529Y-89136436D01*
X161188782Y-89407691D01*
X161896114Y-89408308D01*
X162549840Y-89138194D01*
X162814022Y-88874472D01*
X163075529Y-89136436D01*
X163728782Y-89407691D01*
X164436114Y-89408308D01*
X165089840Y-89138194D01*
X165590436Y-88638471D01*
X165861691Y-87985218D01*
X165862308Y-87277886D01*
X165592194Y-86624160D01*
X165092471Y-86123564D01*
X164439218Y-85852309D01*
X163731886Y-85851692D01*
X163078160Y-86121806D01*
X162813978Y-86385528D01*
X162731623Y-86303029D01*
X162740931Y-86297040D01*
X162885921Y-86084840D01*
X162936930Y-85832950D01*
X162936930Y-83833970D01*
X162892652Y-83598653D01*
X162753580Y-83382529D01*
X162541380Y-83237539D01*
X162289490Y-83186530D01*
X160290510Y-83186530D01*
X160147000Y-83213533D01*
X160147000Y-82388968D01*
X169250637Y-82388968D01*
X169341923Y-82649580D01*
X169929833Y-82866045D01*
X170555828Y-82841049D01*
X171018077Y-82649580D01*
X171109363Y-82388968D01*
X170180000Y-81459605D01*
X169250637Y-82388968D01*
X160147000Y-82388968D01*
X160147000Y-79824053D01*
X160396783Y-80074272D01*
X160975379Y-80314526D01*
X161601873Y-80315073D01*
X162180887Y-80075829D01*
X162624272Y-79633217D01*
X162864526Y-79054621D01*
X162865073Y-78428127D01*
X162625829Y-77849113D01*
X162183217Y-77405728D01*
X161604621Y-77165474D01*
X160978127Y-77164927D01*
X160399113Y-77404171D01*
X160147000Y-77655844D01*
X160147000Y-72204053D01*
X160396783Y-72454272D01*
X160975379Y-72694526D01*
X161601873Y-72695073D01*
X162180887Y-72455829D01*
X162624272Y-72013217D01*
X162864526Y-71434621D01*
X162865073Y-70808127D01*
X162625829Y-70229113D01*
X162504045Y-70107116D01*
X162549840Y-70088194D01*
X162814022Y-69824472D01*
X163075529Y-70086436D01*
X163728782Y-70357691D01*
X164436114Y-70358308D01*
X165089840Y-70088194D01*
X165590436Y-69588471D01*
X165861691Y-68935218D01*
X165862308Y-68227886D01*
X165592194Y-67574160D01*
X165455273Y-67437000D01*
X166541510Y-67437000D01*
X166297086Y-67680997D01*
X166297086Y-67680997D01*
G37*
X166297086Y-67680997D02*
X166055276Y-68263341D01*
X166054725Y-68893893D01*
X166295519Y-69476657D01*
X166740997Y-69922914D01*
X167323341Y-70164724D01*
X167637620Y-70164999D01*
X167575728Y-70226783D01*
X167335474Y-70805379D01*
X167334927Y-71431873D01*
X167574171Y-72010887D01*
X167952896Y-72390273D01*
X167639727Y-72702896D01*
X167263217Y-72325728D01*
X166684621Y-72085474D01*
X166058127Y-72084927D01*
X165479113Y-72324171D01*
X165099727Y-72702896D01*
X164723217Y-72325728D01*
X164144621Y-72085474D01*
X163518127Y-72084927D01*
X162939113Y-72324171D01*
X162495728Y-72766783D01*
X162255474Y-73345379D01*
X162254927Y-73971873D01*
X162494171Y-74550887D01*
X162872896Y-74930273D01*
X162495728Y-75306783D01*
X162255474Y-75885379D01*
X162254927Y-76511873D01*
X162494171Y-77090887D01*
X162936783Y-77534272D01*
X163515379Y-77774526D01*
X164141873Y-77775073D01*
X164720887Y-77535829D01*
X165100273Y-77157104D01*
X165476783Y-77534272D01*
X166055379Y-77774526D01*
X166681873Y-77775073D01*
X167260887Y-77535829D01*
X167640273Y-77157104D01*
X167952896Y-77470273D01*
X167575728Y-77846783D01*
X167335474Y-78425379D01*
X167334927Y-79051873D01*
X167574171Y-79630887D01*
X168016783Y-80074272D01*
X168595379Y-80314526D01*
X169035302Y-80314910D01*
X169071030Y-80350638D01*
X168810420Y-80441923D01*
X168593955Y-81029833D01*
X168618951Y-81655828D01*
X168810420Y-82118077D01*
X169071032Y-82209363D01*
X170000395Y-81280000D01*
X169986253Y-81265858D01*
X170165858Y-81086253D01*
X170180000Y-81100395D01*
X171109363Y-80171032D01*
X171018077Y-79910420D01*
X170430167Y-79693955D01*
X170173147Y-79704218D01*
X170244272Y-79633217D01*
X170484526Y-79054621D01*
X170485073Y-78428127D01*
X170245829Y-77849113D01*
X169867104Y-77469727D01*
X170028143Y-77308968D01*
X170520637Y-77308968D01*
X170611923Y-77569580D01*
X171199833Y-77786045D01*
X171825828Y-77761049D01*
X172288077Y-77569580D01*
X172379363Y-77308968D01*
X171450000Y-76379605D01*
X170520637Y-77308968D01*
X170028143Y-77308968D01*
X170242601Y-77094885D01*
X170341032Y-77129363D01*
X171270395Y-76200000D01*
X171629605Y-76200000D01*
X172558968Y-77129363D01*
X172819580Y-77038077D01*
X173036045Y-76450167D01*
X173011049Y-75824172D01*
X172819580Y-75361923D01*
X172558968Y-75270637D01*
X171629605Y-76200000D01*
X171270395Y-76200000D01*
X170341032Y-75270637D01*
X170242036Y-75305313D01*
X169867104Y-74929727D01*
X170180273Y-74617104D01*
X170555115Y-74992601D01*
X170520637Y-75091032D01*
X171450000Y-76020395D01*
X172379363Y-75091032D01*
X172344687Y-74992036D01*
X172784272Y-74553217D01*
X173024526Y-73974621D01*
X173025073Y-73348127D01*
X172785829Y-72769113D01*
X172343217Y-72325728D01*
X171764621Y-72085474D01*
X171138127Y-72084927D01*
X170559113Y-72324171D01*
X170179727Y-72702896D01*
X169867104Y-72389727D01*
X170244272Y-72013217D01*
X170484526Y-71434621D01*
X170485073Y-70808127D01*
X170245829Y-70229113D01*
X170244159Y-70227440D01*
X171130000Y-70227440D01*
X171365317Y-70183162D01*
X171581441Y-70044090D01*
X171701769Y-69867983D01*
X171783697Y-69949911D01*
X171897643Y-69835965D01*
X172013806Y-70117658D01*
X172675333Y-70368062D01*
X173382329Y-70346249D01*
X173934194Y-70117658D01*
X174050358Y-69835963D01*
X172974000Y-68759605D01*
X172959858Y-68773748D01*
X172780253Y-68594143D01*
X172794395Y-68580000D01*
X172780253Y-68565858D01*
X172959858Y-68386253D01*
X172974000Y-68400395D01*
X172988143Y-68386253D01*
X173167748Y-68565858D01*
X173153605Y-68580000D01*
X173879144Y-69305539D01*
X173976342Y-69540194D01*
X174210262Y-69636657D01*
X174229963Y-69656358D01*
X174244000Y-69650569D01*
X174258037Y-69656358D01*
X174277738Y-69636657D01*
X174511658Y-69540194D01*
X174595379Y-69319016D01*
X175334395Y-68580000D01*
X175320253Y-68565858D01*
X175499858Y-68386253D01*
X175514000Y-68400395D01*
X175528143Y-68386253D01*
X175707748Y-68565858D01*
X175693605Y-68580000D01*
X175707748Y-68594143D01*
X175528143Y-68773748D01*
X175514000Y-68759605D01*
X174437642Y-69835963D01*
X174553806Y-70117658D01*
X175215333Y-70368062D01*
X175922329Y-70346249D01*
X176403000Y-70147148D01*
X176403000Y-80195947D01*
X176153217Y-79945728D01*
X175574621Y-79705474D01*
X174948127Y-79704927D01*
X174369113Y-79944171D01*
X173989727Y-80322896D01*
X173613217Y-79945728D01*
X173034621Y-79705474D01*
X172408127Y-79704927D01*
X171829113Y-79944171D01*
X171387399Y-80385115D01*
X171288968Y-80350637D01*
X170359605Y-81280000D01*
X171288968Y-82209363D01*
X171387964Y-82174687D01*
X171826783Y-82614272D01*
X172405379Y-82854526D01*
X173031873Y-82855073D01*
X173610887Y-82615829D01*
X173990273Y-82237104D01*
X174366783Y-82614272D01*
X174945379Y-82854526D01*
X175571873Y-82855073D01*
X176150887Y-82615829D01*
X176403000Y-82364156D01*
X176403000Y-86073955D01*
X175869218Y-85852309D01*
X175161886Y-85851692D01*
X174508160Y-86121806D01*
X174243978Y-86385528D01*
X173982471Y-86123564D01*
X173329218Y-85852309D01*
X172743422Y-85851798D01*
X172834846Y-85760533D01*
X173084206Y-85160007D01*
X173084774Y-84509766D01*
X172836462Y-83908805D01*
X172377073Y-83448614D01*
X171776547Y-83199254D01*
X171126306Y-83198686D01*
X170525345Y-83446998D01*
X170065154Y-83906387D01*
X169815794Y-84506913D01*
X169815226Y-85157154D01*
X170063538Y-85758115D01*
X170522927Y-86218306D01*
X171123453Y-86467666D01*
X171621260Y-86468101D01*
X171467564Y-86621529D01*
X171196309Y-87274782D01*
X171196106Y-87507115D01*
X170494740Y-86804523D01*
X169468199Y-86378266D01*
X168356677Y-86377296D01*
X167329394Y-86801761D01*
X166542743Y-87587040D01*
X166116486Y-88613581D01*
X166115516Y-89725103D01*
X166539981Y-90752386D01*
X167325260Y-91539037D01*
X168351801Y-91965294D01*
X169463323Y-91966264D01*
X170490606Y-91541799D01*
X171096218Y-90937243D01*
X170815486Y-91613321D01*
X170814516Y-92724843D01*
X171096161Y-93406474D01*
X170494740Y-92804003D01*
X169468199Y-92377746D01*
X168356677Y-92376776D01*
X167329394Y-92801241D01*
X166542743Y-93586520D01*
X166116486Y-94613061D01*
X166115516Y-95724583D01*
X166539981Y-96751866D01*
X167325260Y-97538517D01*
X167625048Y-97663000D01*
X163127128Y-97663000D01*
X163424628Y-96946541D01*
X163425370Y-96097185D01*
X163101020Y-95312200D01*
X162500959Y-94711091D01*
X161716541Y-94385372D01*
X160867185Y-94384630D01*
X160147000Y-94682205D01*
X160147000Y-88747228D01*
X160535529Y-89136436D01*
X161188782Y-89407691D01*
X161896114Y-89408308D01*
X162549840Y-89138194D01*
X162814022Y-88874472D01*
X163075529Y-89136436D01*
X163728782Y-89407691D01*
X164436114Y-89408308D01*
X165089840Y-89138194D01*
X165590436Y-88638471D01*
X165861691Y-87985218D01*
X165862308Y-87277886D01*
X165592194Y-86624160D01*
X165092471Y-86123564D01*
X164439218Y-85852309D01*
X163731886Y-85851692D01*
X163078160Y-86121806D01*
X162813978Y-86385528D01*
X162731623Y-86303029D01*
X162740931Y-86297040D01*
X162885921Y-86084840D01*
X162936930Y-85832950D01*
X162936930Y-83833970D01*
X162892652Y-83598653D01*
X162753580Y-83382529D01*
X162541380Y-83237539D01*
X162289490Y-83186530D01*
X160290510Y-83186530D01*
X160147000Y-83213533D01*
X160147000Y-82388968D01*
X169250637Y-82388968D01*
X169341923Y-82649580D01*
X169929833Y-82866045D01*
X170555828Y-82841049D01*
X171018077Y-82649580D01*
X171109363Y-82388968D01*
X170180000Y-81459605D01*
X169250637Y-82388968D01*
X160147000Y-82388968D01*
X160147000Y-79824053D01*
X160396783Y-80074272D01*
X160975379Y-80314526D01*
X161601873Y-80315073D01*
X162180887Y-80075829D01*
X162624272Y-79633217D01*
X162864526Y-79054621D01*
X162865073Y-78428127D01*
X162625829Y-77849113D01*
X162183217Y-77405728D01*
X161604621Y-77165474D01*
X160978127Y-77164927D01*
X160399113Y-77404171D01*
X160147000Y-77655844D01*
X160147000Y-72204053D01*
X160396783Y-72454272D01*
X160975379Y-72694526D01*
X161601873Y-72695073D01*
X162180887Y-72455829D01*
X162624272Y-72013217D01*
X162864526Y-71434621D01*
X162865073Y-70808127D01*
X162625829Y-70229113D01*
X162504045Y-70107116D01*
X162549840Y-70088194D01*
X162814022Y-69824472D01*
X163075529Y-70086436D01*
X163728782Y-70357691D01*
X164436114Y-70358308D01*
X165089840Y-70088194D01*
X165590436Y-69588471D01*
X165861691Y-68935218D01*
X165862308Y-68227886D01*
X165592194Y-67574160D01*
X165455273Y-67437000D01*
X166541510Y-67437000D01*
X166297086Y-67680997D01*
M02*
