M48
;DRILL file {KiCad 4.0.2+dfsg1-stable} date Wednesday, 12 September, 2018 10:27:57 AM +08
;FORMAT={-:-/ absolute / inch / decimal}
FMAT,2
INCH,TZ
T1C0.032
T2C0.035
T3C0.039
T4C0.040
T5C0.045
T6C0.050
T7C0.118
T8C0.118
%
G90
G05
M72
T1
X6.7Y-3.2
X6.8Y-3.2
X6.9Y-3.2
T2
X6.35Y-2.8
X6.35Y-3.1
X6.65Y-2.8
X6.65Y-3.1
T3
X6.35Y-3.3399
X6.6Y-2.7
X6.7Y-2.7
T4
X6.45Y-2.9
X6.45Y-3.
X6.55Y-2.9
X6.55Y-3.
X6.65Y-2.9
X6.65Y-3.
X6.75Y-2.9
X6.75Y-3.
T5
X6.36Y-2.7
X6.36Y-3.45
X6.46Y-2.7
X6.46Y-3.45
X6.81Y-2.7
X6.81Y-3.45
X6.91Y-2.7
X6.91Y-3.45
T6
X6.75Y-3.3399
T7
X6.65Y-3.5107
X6.65Y-3.7469
X6.835Y-3.6288
T8
X6.35Y-3.8
T0
M30
