%TF.GenerationSoftware,KiCad,Pcbnew,4.0.2+dfsg1-stable*%
%TF.CreationDate,2018-09-12T10:27:24+08:00*%
%TF.ProjectId,aircon board,616972636F6E20626F6172642E6B6963,rev?*%
%TF.FileFunction,Legend,Bot*%
%FSLAX46Y46*%
G04 Gerber Fmt 4.6, Leading zero omitted, Abs format (unit mm)*
G04 Created by KiCad (PCBNEW 4.0.2+dfsg1-stable) date Wednesday, 12 September, 2018 10:27:24 AM +08*
%MOMM*%
G01*
G04 APERTURE LIST*
%ADD10C,2.000000*%
%ADD11C,0.300000*%
%ADD12C,0.200000*%
%ADD13C,0.150000*%
G04 APERTURE END LIST*
D10*
D11*
X165925428Y-95103143D02*
X164782571Y-95103143D01*
X166179428Y-90531143D02*
X165036571Y-90531143D01*
X165608000Y-91102571D02*
X165608000Y-89959714D01*
D12*
X172052857Y-97750381D02*
X172529048Y-97750381D01*
X172576667Y-98226571D01*
X172529048Y-98178952D01*
X172433810Y-98131333D01*
X172195714Y-98131333D01*
X172100476Y-98178952D01*
X172052857Y-98226571D01*
X172005238Y-98321810D01*
X172005238Y-98559905D01*
X172052857Y-98655143D01*
X172100476Y-98702762D01*
X172195714Y-98750381D01*
X172433810Y-98750381D01*
X172529048Y-98702762D01*
X172576667Y-98655143D01*
X171576667Y-98369429D02*
X170814762Y-98369429D01*
X169814762Y-98750381D02*
X170386191Y-98750381D01*
X170100477Y-98750381D02*
X170100477Y-97750381D01*
X170195715Y-97893238D01*
X170290953Y-97988476D01*
X170386191Y-98036095D01*
X169433810Y-97845619D02*
X169386191Y-97798000D01*
X169290953Y-97750381D01*
X169052857Y-97750381D01*
X168957619Y-97798000D01*
X168910000Y-97845619D01*
X168862381Y-97940857D01*
X168862381Y-98036095D01*
X168910000Y-98178952D01*
X169481429Y-98750381D01*
X168862381Y-98750381D01*
X168576667Y-97750381D02*
X168243334Y-98750381D01*
X167910000Y-97750381D01*
X166814762Y-98750381D02*
X166814762Y-97750381D01*
X166576667Y-97750381D01*
X166433809Y-97798000D01*
X166338571Y-97893238D01*
X166290952Y-97988476D01*
X166243333Y-98178952D01*
X166243333Y-98321810D01*
X166290952Y-98512286D01*
X166338571Y-98607524D01*
X166433809Y-98702762D01*
X166576667Y-98750381D01*
X166814762Y-98750381D01*
X165243333Y-98655143D02*
X165290952Y-98702762D01*
X165433809Y-98750381D01*
X165529047Y-98750381D01*
X165671905Y-98702762D01*
X165767143Y-98607524D01*
X165814762Y-98512286D01*
X165862381Y-98321810D01*
X165862381Y-98178952D01*
X165814762Y-97988476D01*
X165767143Y-97893238D01*
X165671905Y-97798000D01*
X165529047Y-97750381D01*
X165433809Y-97750381D01*
X165290952Y-97798000D01*
X165243333Y-97845619D01*
D13*
X158750000Y-99060000D02*
X158750000Y-66040000D01*
X177800000Y-99060000D02*
X158750000Y-99060000D01*
X177800000Y-66040000D02*
X177800000Y-99060000D01*
X158750000Y-66040000D02*
X177800000Y-66040000D01*
X160274000Y-90170000D02*
X176784000Y-90170000D01*
X176784000Y-90170000D02*
X176784000Y-67310000D01*
X176784000Y-67310000D02*
X160274000Y-67310000D01*
X160274000Y-67310000D02*
X160274000Y-90170000D01*
X168616381Y-77978095D02*
X169425905Y-77978095D01*
X169521143Y-78025714D01*
X169568762Y-78073333D01*
X169616381Y-78168571D01*
X169616381Y-78359048D01*
X169568762Y-78454286D01*
X169521143Y-78501905D01*
X169425905Y-78549524D01*
X168616381Y-78549524D01*
X169616381Y-79549524D02*
X169616381Y-78978095D01*
X169616381Y-79263809D02*
X168616381Y-79263809D01*
X168759238Y-79168571D01*
X168854476Y-79073333D01*
X168902095Y-78978095D01*
X162266381Y-70770952D02*
X162266381Y-70961429D01*
X162314000Y-71056667D01*
X162409238Y-71151905D01*
X162599714Y-71199524D01*
X162933048Y-71199524D01*
X163123524Y-71151905D01*
X163218762Y-71056667D01*
X163266381Y-70961429D01*
X163266381Y-70770952D01*
X163218762Y-70675714D01*
X163123524Y-70580476D01*
X162933048Y-70532857D01*
X162599714Y-70532857D01*
X162409238Y-70580476D01*
X162314000Y-70675714D01*
X162266381Y-70770952D01*
X162266381Y-71628095D02*
X163075905Y-71628095D01*
X163171143Y-71675714D01*
X163218762Y-71723333D01*
X163266381Y-71818571D01*
X163266381Y-72009048D01*
X163218762Y-72104286D01*
X163171143Y-72151905D01*
X163075905Y-72199524D01*
X162266381Y-72199524D01*
X162266381Y-72532857D02*
X162266381Y-73104286D01*
X163266381Y-72818571D02*
X162266381Y-72818571D01*
X162885429Y-73437619D02*
X162885429Y-74199524D01*
X163266381Y-73818572D02*
X162504476Y-73818572D01*
X173696381Y-70770952D02*
X173696381Y-70961429D01*
X173744000Y-71056667D01*
X173839238Y-71151905D01*
X174029714Y-71199524D01*
X174363048Y-71199524D01*
X174553524Y-71151905D01*
X174648762Y-71056667D01*
X174696381Y-70961429D01*
X174696381Y-70770952D01*
X174648762Y-70675714D01*
X174553524Y-70580476D01*
X174363048Y-70532857D01*
X174029714Y-70532857D01*
X173839238Y-70580476D01*
X173744000Y-70675714D01*
X173696381Y-70770952D01*
X173696381Y-71628095D02*
X174505905Y-71628095D01*
X174601143Y-71675714D01*
X174648762Y-71723333D01*
X174696381Y-71818571D01*
X174696381Y-72009048D01*
X174648762Y-72104286D01*
X174601143Y-72151905D01*
X174505905Y-72199524D01*
X173696381Y-72199524D01*
X173696381Y-72532857D02*
X173696381Y-73104286D01*
X174696381Y-72818571D02*
X173696381Y-72818571D01*
X174315429Y-73437619D02*
X174315429Y-74199524D01*
X163266381Y-83947143D02*
X162266381Y-83947143D01*
X163266381Y-84423333D02*
X162266381Y-84423333D01*
X163266381Y-84994762D01*
X162266381Y-84994762D01*
X162885429Y-85470952D02*
X162885429Y-86232857D01*
X163266381Y-85851905D02*
X162504476Y-85851905D01*
X174696381Y-83947143D02*
X173696381Y-83947143D01*
X174696381Y-84423333D02*
X173696381Y-84423333D01*
X174696381Y-84994762D01*
X173696381Y-84994762D01*
X174315429Y-85470952D02*
X174315429Y-86232857D01*
M02*
