%TF.GenerationSoftware,KiCad,Pcbnew,4.0.2+dfsg1-stable*%
%TF.CreationDate,2018-08-31T16:40:32+08:00*%
%TF.ProjectId,aircon board,616972636F6E20626F6172642E6B6963,rev?*%
%TF.FileFunction,Legend,Top*%
%FSLAX46Y46*%
G04 Gerber Fmt 4.6, Leading zero omitted, Abs format (unit mm)*
G04 Created by KiCad (PCBNEW 4.0.2+dfsg1-stable) date Friday, 31 August, 2018 04:40:32 PM +08*
%MOMM*%
G01*
G04 APERTURE LIST*
%ADD10C,0.150000*%
%ADD11C,0.203200*%
%ADD12C,0.127000*%
G04 APERTURE END LIST*
D10*
X177191143Y-91675429D02*
X176291143Y-91675429D01*
X177191143Y-91289715D02*
X176719714Y-91289715D01*
X176634000Y-91332572D01*
X176591143Y-91418286D01*
X176591143Y-91546858D01*
X176634000Y-91632572D01*
X176676857Y-91675429D01*
X176591143Y-90989715D02*
X176591143Y-90646858D01*
X176291143Y-90861143D02*
X177062571Y-90861143D01*
X177148286Y-90818286D01*
X177191143Y-90732572D01*
X177191143Y-90646858D01*
X176591143Y-90475429D02*
X176591143Y-90132572D01*
X176291143Y-90346857D02*
X177062571Y-90346857D01*
X177148286Y-90304000D01*
X177191143Y-90218286D01*
X177191143Y-90132572D01*
X176591143Y-89832571D02*
X177491143Y-89832571D01*
X176634000Y-89832571D02*
X176591143Y-89746857D01*
X176591143Y-89575428D01*
X176634000Y-89489714D01*
X176676857Y-89446857D01*
X176762571Y-89404000D01*
X177019714Y-89404000D01*
X177105429Y-89446857D01*
X177148286Y-89489714D01*
X177191143Y-89575428D01*
X177191143Y-89746857D01*
X177148286Y-89832571D01*
X177105429Y-89018285D02*
X177148286Y-88975428D01*
X177191143Y-89018285D01*
X177148286Y-89061142D01*
X177105429Y-89018285D01*
X177191143Y-89018285D01*
X176634000Y-89018285D02*
X176676857Y-88975428D01*
X176719714Y-89018285D01*
X176676857Y-89061142D01*
X176634000Y-89018285D01*
X176719714Y-89018285D01*
X176248286Y-87946857D02*
X177405429Y-88718286D01*
X176248286Y-87004000D02*
X177405429Y-87775429D01*
X176591143Y-86789715D02*
X177191143Y-86618286D01*
X176762571Y-86446857D01*
X177191143Y-86275429D01*
X176591143Y-86104000D01*
X176591143Y-85846858D02*
X177191143Y-85675429D01*
X176762571Y-85504000D01*
X177191143Y-85332572D01*
X176591143Y-85161143D01*
X176591143Y-84904001D02*
X177191143Y-84732572D01*
X176762571Y-84561143D01*
X177191143Y-84389715D01*
X176591143Y-84218286D01*
X177105429Y-83875429D02*
X177148286Y-83832572D01*
X177191143Y-83875429D01*
X177148286Y-83918286D01*
X177105429Y-83875429D01*
X177191143Y-83875429D01*
X176591143Y-83446858D02*
X177191143Y-83446858D01*
X176676857Y-83446858D02*
X176634000Y-83404001D01*
X176591143Y-83318287D01*
X176591143Y-83189715D01*
X176634000Y-83104001D01*
X176719714Y-83061144D01*
X177191143Y-83061144D01*
X177191143Y-82632572D02*
X176591143Y-82632572D01*
X176291143Y-82632572D02*
X176334000Y-82675429D01*
X176376857Y-82632572D01*
X176334000Y-82589715D01*
X176291143Y-82632572D01*
X176376857Y-82632572D01*
X176591143Y-81818287D02*
X177319714Y-81818287D01*
X177405429Y-81861144D01*
X177448286Y-81904001D01*
X177491143Y-81989716D01*
X177491143Y-82118287D01*
X177448286Y-82204001D01*
X177148286Y-81818287D02*
X177191143Y-81904001D01*
X177191143Y-82075430D01*
X177148286Y-82161144D01*
X177105429Y-82204001D01*
X177019714Y-82246858D01*
X176762571Y-82246858D01*
X176676857Y-82204001D01*
X176634000Y-82161144D01*
X176591143Y-82075430D01*
X176591143Y-81904001D01*
X176634000Y-81818287D01*
X177191143Y-81389715D02*
X176291143Y-81389715D01*
X177191143Y-81004001D02*
X176719714Y-81004001D01*
X176634000Y-81046858D01*
X176591143Y-81132572D01*
X176591143Y-81261144D01*
X176634000Y-81346858D01*
X176676857Y-81389715D01*
X176591143Y-80704001D02*
X176591143Y-80361144D01*
X176291143Y-80575429D02*
X177062571Y-80575429D01*
X177148286Y-80532572D01*
X177191143Y-80446858D01*
X177191143Y-80361144D01*
X177191143Y-79932572D02*
X177148286Y-80018286D01*
X177105429Y-80061143D01*
X177019714Y-80104000D01*
X176762571Y-80104000D01*
X176676857Y-80061143D01*
X176634000Y-80018286D01*
X176591143Y-79932572D01*
X176591143Y-79804000D01*
X176634000Y-79718286D01*
X176676857Y-79675429D01*
X176762571Y-79632572D01*
X177019714Y-79632572D01*
X177105429Y-79675429D01*
X177148286Y-79718286D01*
X177191143Y-79804000D01*
X177191143Y-79932572D01*
X176591143Y-79332572D02*
X177191143Y-79161143D01*
X176762571Y-78989714D01*
X177191143Y-78818286D01*
X176591143Y-78646857D01*
X177191143Y-78175429D02*
X177148286Y-78261143D01*
X177062571Y-78304000D01*
X176291143Y-78304000D01*
X177105429Y-77832571D02*
X177148286Y-77789714D01*
X177191143Y-77832571D01*
X177148286Y-77875428D01*
X177105429Y-77832571D01*
X177191143Y-77832571D01*
X177148286Y-77446857D02*
X177191143Y-77361143D01*
X177191143Y-77189715D01*
X177148286Y-77104000D01*
X177062571Y-77061143D01*
X177019714Y-77061143D01*
X176934000Y-77104000D01*
X176891143Y-77189715D01*
X176891143Y-77318286D01*
X176848286Y-77404000D01*
X176762571Y-77446857D01*
X176719714Y-77446857D01*
X176634000Y-77404000D01*
X176591143Y-77318286D01*
X176591143Y-77189715D01*
X176634000Y-77104000D01*
X176591143Y-76675429D02*
X177491143Y-76675429D01*
X176634000Y-76675429D02*
X176591143Y-76589715D01*
X176591143Y-76418286D01*
X176634000Y-76332572D01*
X176676857Y-76289715D01*
X176762571Y-76246858D01*
X177019714Y-76246858D01*
X177105429Y-76289715D01*
X177148286Y-76332572D01*
X177191143Y-76418286D01*
X177191143Y-76589715D01*
X177148286Y-76675429D01*
X177191143Y-75475429D02*
X176719714Y-75475429D01*
X176634000Y-75518286D01*
X176591143Y-75604000D01*
X176591143Y-75775429D01*
X176634000Y-75861143D01*
X177148286Y-75475429D02*
X177191143Y-75561143D01*
X177191143Y-75775429D01*
X177148286Y-75861143D01*
X177062571Y-75904000D01*
X176976857Y-75904000D01*
X176891143Y-75861143D01*
X176848286Y-75775429D01*
X176848286Y-75561143D01*
X176805429Y-75475429D01*
X177148286Y-74661143D02*
X177191143Y-74746857D01*
X177191143Y-74918286D01*
X177148286Y-75004000D01*
X177105429Y-75046857D01*
X177019714Y-75089714D01*
X176762571Y-75089714D01*
X176676857Y-75046857D01*
X176634000Y-75004000D01*
X176591143Y-74918286D01*
X176591143Y-74746857D01*
X176634000Y-74661143D01*
X177148286Y-73932571D02*
X177191143Y-74018285D01*
X177191143Y-74189714D01*
X177148286Y-74275428D01*
X177062571Y-74318285D01*
X176719714Y-74318285D01*
X176634000Y-74275428D01*
X176591143Y-74189714D01*
X176591143Y-74018285D01*
X176634000Y-73932571D01*
X176719714Y-73889714D01*
X176805429Y-73889714D01*
X176891143Y-74318285D01*
X158750000Y-99060000D02*
X158750000Y-66040000D01*
X177800000Y-99060000D02*
X158750000Y-99060000D01*
X177800000Y-66040000D02*
X177800000Y-99060000D01*
X158750000Y-66040000D02*
X177800000Y-66040000D01*
X168910000Y-85087460D02*
X169926000Y-85087460D01*
X164084000Y-85087460D02*
X162814000Y-85087460D01*
X164338000Y-83817460D02*
X164338000Y-86357460D01*
X164592000Y-83817460D02*
X164592000Y-86357460D01*
X164846000Y-83817460D02*
X164846000Y-86357460D01*
X164084000Y-83817460D02*
X164084000Y-86357460D01*
X165100000Y-83817460D02*
X163830000Y-86357460D01*
X163830000Y-83817460D02*
X165100000Y-86357460D01*
X165100000Y-83817460D02*
X165100000Y-86357460D01*
X164465000Y-83817460D02*
X164465000Y-86357460D01*
X163830000Y-86357460D02*
X163830000Y-83817460D01*
X163830000Y-83817460D02*
X168910000Y-83817460D01*
X168910000Y-83817460D02*
X168910000Y-86357460D01*
X168910000Y-86357460D02*
X163830000Y-86357460D01*
X171394888Y-67055096D02*
G75*
G03X171410000Y-70080000I-2484888J-1524904D01*
G01*
X171410000Y-67080000D02*
X171410000Y-70080000D01*
X171427936Y-68580000D02*
G75*
G03X171427936Y-68580000I-2517936J0D01*
G01*
D11*
X162560000Y-76835000D02*
X163195000Y-77470000D01*
X164465000Y-77470000D02*
X165100000Y-76835000D01*
X165100000Y-76835000D02*
X165735000Y-77470000D01*
X167005000Y-77470000D02*
X167640000Y-76835000D01*
X167640000Y-76835000D02*
X168275000Y-77470000D01*
X169545000Y-77470000D02*
X170180000Y-76835000D01*
X170180000Y-76835000D02*
X170815000Y-77470000D01*
X172085000Y-77470000D02*
X172720000Y-76835000D01*
X162560000Y-76835000D02*
X162560000Y-73025000D01*
X162560000Y-73025000D02*
X163195000Y-72390000D01*
X163195000Y-72390000D02*
X164465000Y-72390000D01*
X164465000Y-72390000D02*
X165100000Y-73025000D01*
X165100000Y-73025000D02*
X165735000Y-72390000D01*
X165735000Y-72390000D02*
X167005000Y-72390000D01*
X167005000Y-72390000D02*
X167640000Y-73025000D01*
X167640000Y-73025000D02*
X168275000Y-72390000D01*
X168275000Y-72390000D02*
X169545000Y-72390000D01*
X169545000Y-72390000D02*
X170180000Y-73025000D01*
X170180000Y-73025000D02*
X170815000Y-72390000D01*
X170815000Y-72390000D02*
X172085000Y-72390000D01*
X172085000Y-72390000D02*
X172720000Y-73025000D01*
X172720000Y-73025000D02*
X172720000Y-76835000D01*
X170815000Y-77470000D02*
X172085000Y-77470000D01*
X168275000Y-77470000D02*
X169545000Y-77470000D01*
X165735000Y-77470000D02*
X167005000Y-77470000D01*
X163195000Y-77470000D02*
X164465000Y-77470000D01*
X163195000Y-77724000D02*
X164465000Y-77724000D01*
X164465000Y-77724000D02*
X163195000Y-77724000D01*
X162560000Y-76835000D02*
X163195000Y-77470000D01*
X162560000Y-76835000D02*
X162560000Y-73025000D01*
X162560000Y-73025000D02*
X163195000Y-72390000D01*
X162560000Y-70358000D02*
X167640000Y-70358000D01*
X167640000Y-70358000D02*
X167640000Y-71120000D01*
X167640000Y-71120000D02*
X167640000Y-71882000D01*
X167640000Y-71882000D02*
X162560000Y-71882000D01*
X162560000Y-71882000D02*
X162560000Y-71120000D01*
X162560000Y-71120000D02*
X162560000Y-70358000D01*
X167640000Y-71120000D02*
X167894000Y-71120000D01*
X162560000Y-71120000D02*
X162306000Y-71120000D01*
X167640000Y-79502000D02*
X162560000Y-79502000D01*
X162560000Y-79502000D02*
X162560000Y-78740000D01*
X162560000Y-78740000D02*
X162560000Y-77978000D01*
X162560000Y-77978000D02*
X167640000Y-77978000D01*
X167640000Y-77978000D02*
X167640000Y-78740000D01*
X167640000Y-78740000D02*
X167640000Y-79502000D01*
X162560000Y-78740000D02*
X162306000Y-78740000D01*
X167640000Y-78740000D02*
X167894000Y-78740000D01*
X170627040Y-82931000D02*
X174812960Y-82931000D01*
X171928709Y-78734388D02*
G75*
G03X170627040Y-82931000I791291J-2545612D01*
G01*
X174817139Y-82925715D02*
G75*
G03X173504860Y-78732380I-2097139J1645715D01*
G01*
X174622186Y-79372592D02*
G75*
G03X173355000Y-78740000I-1902186J-2224908D01*
G01*
X173353499Y-78739667D02*
G75*
G03X170815000Y-79375000I-633499J-2857833D01*
G01*
X173408340Y-89171780D02*
X171307760Y-89171780D01*
X173408340Y-99870260D02*
X173408340Y-94571820D01*
X173408340Y-89171780D02*
X173408340Y-89870280D01*
X164411660Y-99870260D02*
X164411660Y-89171780D01*
X164411660Y-89171780D02*
X166512240Y-89171780D01*
X164411660Y-99870260D02*
X173408340Y-99870260D01*
D10*
X165939245Y-88079841D02*
X165939245Y-87079841D01*
X166177340Y-87079841D01*
X166320198Y-87127460D01*
X166415436Y-87222698D01*
X166463055Y-87317936D01*
X166510674Y-87508412D01*
X166510674Y-87651270D01*
X166463055Y-87841746D01*
X166415436Y-87936984D01*
X166320198Y-88032222D01*
X166177340Y-88079841D01*
X165939245Y-88079841D01*
X167463055Y-88079841D02*
X166891626Y-88079841D01*
X167177340Y-88079841D02*
X167177340Y-87079841D01*
X167082102Y-87222698D01*
X166986864Y-87317936D01*
X166891626Y-87365555D01*
X167917905Y-64968381D02*
X167917905Y-63968381D01*
X168156000Y-63968381D01*
X168298858Y-64016000D01*
X168394096Y-64111238D01*
X168441715Y-64206476D01*
X168489334Y-64396952D01*
X168489334Y-64539810D01*
X168441715Y-64730286D01*
X168394096Y-64825524D01*
X168298858Y-64920762D01*
X168156000Y-64968381D01*
X167917905Y-64968381D01*
X168870286Y-64063619D02*
X168917905Y-64016000D01*
X169013143Y-63968381D01*
X169251239Y-63968381D01*
X169346477Y-64016000D01*
X169394096Y-64063619D01*
X169441715Y-64158857D01*
X169441715Y-64254095D01*
X169394096Y-64396952D01*
X168822667Y-64968381D01*
X169441715Y-64968381D01*
X171823095Y-67127381D02*
X171823095Y-66127381D01*
X172394524Y-67127381D02*
X171965952Y-66555952D01*
X172394524Y-66127381D02*
X171823095Y-66698810D01*
D12*
X163626800Y-71421171D02*
X163626800Y-71856600D01*
X163597772Y-71943686D01*
X163539715Y-72001743D01*
X163452629Y-72030771D01*
X163394572Y-72030771D01*
X164236400Y-72030771D02*
X163888057Y-72030771D01*
X164062229Y-72030771D02*
X164062229Y-71421171D01*
X164004172Y-71508257D01*
X163946114Y-71566314D01*
X163888057Y-71595343D01*
X164998401Y-69998771D02*
X164795201Y-69708486D01*
X164650058Y-69998771D02*
X164650058Y-69389171D01*
X164882286Y-69389171D01*
X164940344Y-69418200D01*
X164969372Y-69447229D01*
X164998401Y-69505286D01*
X164998401Y-69592371D01*
X164969372Y-69650429D01*
X164940344Y-69679457D01*
X164882286Y-69708486D01*
X164650058Y-69708486D01*
X165578972Y-69998771D02*
X165230629Y-69998771D01*
X165404801Y-69998771D02*
X165404801Y-69389171D01*
X165346744Y-69476257D01*
X165288686Y-69534314D01*
X165230629Y-69563343D01*
X164998401Y-80412771D02*
X164795201Y-80122486D01*
X164650058Y-80412771D02*
X164650058Y-79803171D01*
X164882286Y-79803171D01*
X164940344Y-79832200D01*
X164969372Y-79861229D01*
X164998401Y-79919286D01*
X164998401Y-80006371D01*
X164969372Y-80064429D01*
X164940344Y-80093457D01*
X164882286Y-80122486D01*
X164650058Y-80122486D01*
X165230629Y-79861229D02*
X165259658Y-79832200D01*
X165317715Y-79803171D01*
X165462858Y-79803171D01*
X165520915Y-79832200D01*
X165549944Y-79861229D01*
X165578972Y-79919286D01*
X165578972Y-79977343D01*
X165549944Y-80064429D01*
X165201601Y-80412771D01*
X165578972Y-80412771D01*
X172661943Y-83899829D02*
X172603886Y-83870800D01*
X172545829Y-83812743D01*
X172458743Y-83725657D01*
X172400686Y-83696629D01*
X172342629Y-83696629D01*
X172371657Y-83841771D02*
X172313600Y-83812743D01*
X172255543Y-83754686D01*
X172226514Y-83638571D01*
X172226514Y-83435371D01*
X172255543Y-83319257D01*
X172313600Y-83261200D01*
X172371657Y-83232171D01*
X172487771Y-83232171D01*
X172545829Y-83261200D01*
X172603886Y-83319257D01*
X172632914Y-83435371D01*
X172632914Y-83638571D01*
X172603886Y-83754686D01*
X172545829Y-83812743D01*
X172487771Y-83841771D01*
X172371657Y-83841771D01*
X173213486Y-83841771D02*
X172865143Y-83841771D01*
X173039315Y-83841771D02*
X173039315Y-83232171D01*
X172981258Y-83319257D01*
X172923200Y-83377314D01*
X172865143Y-83406343D01*
X163496171Y-97993200D02*
X163931600Y-97993200D01*
X164018686Y-98022228D01*
X164076743Y-98080285D01*
X164105771Y-98167371D01*
X164105771Y-98225428D01*
X163554229Y-97731943D02*
X163525200Y-97702914D01*
X163496171Y-97644857D01*
X163496171Y-97499714D01*
X163525200Y-97441657D01*
X163554229Y-97412628D01*
X163612286Y-97383600D01*
X163670343Y-97383600D01*
X163757429Y-97412628D01*
X164105771Y-97760971D01*
X164105771Y-97383600D01*
D10*
X159956667Y-92971881D02*
X159956667Y-91971881D01*
X160290001Y-92686167D01*
X160623334Y-91971881D01*
X160623334Y-92971881D01*
X161099524Y-92971881D02*
X161099524Y-91971881D01*
X161099524Y-92448071D02*
X161670953Y-92448071D01*
X161670953Y-92971881D02*
X161670953Y-91971881D01*
X162670953Y-92971881D02*
X162099524Y-92971881D01*
X162385238Y-92971881D02*
X162385238Y-91971881D01*
X162290000Y-92114738D01*
X162194762Y-92209976D01*
X162099524Y-92257595D01*
M02*
