<?xml version='1.0' encoding='UTF-8' standalone='no'?>
<!-- Created with Fritzing (http://www.fritzing.org/) -->
<svg xmlns="http://www.w3.org/2000/svg" y="0in" width="0.348488in"  version="1.2" x="0in" height="0.46463in" viewBox="0 0 8.8516 11.8016">
    <desc >
        <referenceFile >power_jack_slot_pcb.svg</referenceFile>
    </desc>
    <g  transform="translate(0.17461615,0.12472585)">
        <g >
            <g gorn="0.1.0.0"  id="copper1">
                <g  transform="matrix(0.28222234,0,0,0.28222236,2.691482e-7,-3.768075e-6)">
                    <g >
                        <path d="M 7.0859375,0 C 5.9429769,0 4.8948911,0.34028983 4.0839844,0.94726562 3.2730771,1.5542415 2.6855469,2.4808781 2.6855469,3.5429688 c 0,1.0620905 0.5875302,1.9887271 1.3984375,2.5957031 0.8109067,0.6069756 1.8589925,0.9472656 3.0019531,0.9472656 1.1429606,0 2.1929995,-0.34029 3.0039065,-0.9472656 0.810907,-0.606976 1.398437,-1.5336126 1.398437,-2.5957031 0,-1.0620907 -0.58753,-1.9887273 -1.398437,-2.59570318 C 9.278937,0.34028983 8.2288981,0 7.0859375,0 Z m -1.6660156,1.7773438 3.3476562,0 c 0.9242476,9.28e-5 1.6737429,0.7941398 1.6738279,1.7734374 -8.5e-5,0.9792829 -0.7495803,1.7733451 -1.6738279,1.7734376 l -3.3476562,0 C 4.4956729,5.3241263 3.7461823,4.5300641 3.7460938,3.5507812 3.7461823,2.5714836 4.4956729,1.7774366 5.4199219,1.7773438 Z" gorn="0.1.0.0.0.0.0"  stroke-width="0" stroke="none" connectorname="PWR" fill="#F7BD13"/>
                    </g>
                </g>
                <g  transform="matrix(0.28222234,0,0,0.28222236,2.691482e-7,-3.768075e-6)">
                    <g >
                        <path d="M 3.5429688,0 A 3.5433056,3.5433054 0 0 0 0,3.5429688 3.5433056,3.5433054 0 0 0 3.5429688,7.0859375 l 7.0878902,0 A 3.5433056,3.5433054 0 0 0 14.173828,3.5429688 3.5433056,3.5433054 0 0 0 10.630859,0 L 3.5429688,0 Z m 3.4921874,1.7714844 a 1.7716528,1.7716527 0 0 1 0.1933594,0.00586 l 1.5390625,0 c 0.9242476,9.28e-5 1.6737429,0.7941396 1.6738279,1.7734374 -8.5e-5,0.9792832 -0.7495803,1.7733451 -1.6738279,1.7734376 l -3.3476562,0 C 4.4956729,5.3241263 3.7461823,4.5300644 3.7460938,3.5507812 3.7461823,2.5714834 4.4956729,1.7774366 5.4199219,1.7773438 l 1.5488281,0 a 1.7716528,1.7716527 0 0 1 0.066406,-0.00586 z" gorn="0.1.0.0.1.0.0"  stroke-width="0" stroke="none" fill="#F7BD13" id="path6"/>
                    </g>
                </g>
                <g  transform="matrix(0.28222234,0,0,0.28222236,2.691482e-7,-3.768075e-6)">
                    <g >
                        <path d="m 7.0859375,22.326172 c -1.1429606,0 -2.1910464,0.334431 -3.0019531,0.941406 -0.8109073,0.606976 -1.3984375,1.539472 -1.3984375,2.601563 0,1.062091 0.5875302,1.988727 1.3984375,2.595703 0.8109067,0.606976 1.8589925,0.947265 3.0019531,0.947265 1.1429606,0 2.1929995,-0.34029 3.0039065,-0.947265 0.810907,-0.606976 1.398437,-1.533612 1.398437,-2.595703 0,-1.062091 -0.58753,-1.994587 -1.398437,-2.601563 C 9.278937,22.660602 8.2288981,22.326172 7.0859375,22.326172 Z m -1.6660156,1.763672 3.3476562,0 c 0.9242479,9.3e-5 1.6737429,0.79414 1.6738279,1.773437 -8.5e-5,0.979284 -0.74958,1.773345 -1.6738279,1.773438 l -3.3476562,0 c -0.924249,-9.3e-5 -1.6737396,-0.794154 -1.6738281,-1.773438 8.85e-5,-0.979297 0.7495791,-1.773344 1.6738281,-1.773437 z" gorn="0.1.0.0.2.0.0"  stroke-width="0" stroke="none" fill="#F7BD13" connectorname="GND@1" id="connector0pad"/>
                    </g>
                </g>
                <g  transform="matrix(0.28222234,0,0,0.28222236,2.691482e-7,-3.768075e-6)">
                    <g >
                        <path d="M 3.5429688,22.322266 A 3.5433056,3.5433054 0 0 0 0,25.865234 3.5433056,3.5433054 0 0 0 3.5429688,29.410156 l 7.0878902,0 a 3.5433056,3.5433054 0 0 0 3.542969,-3.544922 3.5433056,3.5433054 0 0 0 -3.542969,-3.542968 l -7.0878902,0 z m 1.8769531,1.751953 3.3476562,0 c 0.9242479,9.3e-5 1.6737429,0.79414 1.6738279,1.773437 -8.5e-5,0.979284 -0.74958,1.773345 -1.6738279,1.773438 l -1.4414062,0 a 1.7716528,1.7716527 0 0 1 -0.4609375,0 l -1.4453125,0 c -0.924249,-9.3e-5 -1.6737396,-0.794154 -1.6738281,-1.773438 8.85e-5,-0.979297 0.7495791,-1.773344 1.6738281,-1.773437 z" gorn="0.1.0.0.3.0.0"  stroke-width="0" stroke="none" fill="#F7BD13" id="path9"/>
                    </g>
                </g>
                <g  transform="matrix(0.28222234,0,0,0.28222236,2.691482e-7,-3.768075e-6)">
                    <g >
                        <path d="m 24.802734,9.4746094 c -1.098175,0 -2.029352,0.6560886 -2.623046,1.5214846 -0.593694,0.865395 -0.919922,1.972272 -0.919922,3.177734 0,1.205462 0.326228,2.310386 0.919922,3.175781 0.593694,0.865396 1.524871,1.523438 2.623046,1.523438 1.098176,0 2.029353,-0.658042 2.623047,-1.523438 0.593694,-0.865395 0.919922,-1.970319 0.919922,-3.175781 0,-1.205462 -0.326228,-2.312339 -0.919922,-3.177734 C 26.832087,10.130698 25.90091,9.4746094 24.802734,9.4746094 Z M 24.8125,10.8125 c 0.979297,8.9e-5 1.773345,0.749579 1.773438,1.673828 l 0,3.347656 c -9.3e-5,0.924248 -0.794141,1.673743 -1.773438,1.673828 -0.979284,-8.5e-5 -1.773345,-0.74958 -1.773438,-1.673828 l 0,-3.347656 c 9.3e-5,-0.924249 0.794154,-1.673739 1.773438,-1.673828 z" gorn="0.1.0.0.4.0.0"  stroke-width="0" stroke="none" connectorname="GND@2" fill="#F7BD13" id="connector1pad"/>
                    </g>
                </g>
                <g  transform="matrix(0.28222234,0,0,0.28222236,2.691482e-7,-3.768075e-6)">
                    <g >
                        <path d="m 24.802734,7.0859375 a 3.5433056,3.5433054 0 0 0 -3.542968,3.5449215 l 0,7.085938 a 3.5433056,3.5433054 0 0 0 3.542968,3.542969 3.5433056,3.5433054 0 0 0 3.542969,-3.542969 l 0,-7.085938 A 3.5433056,3.5433054 0 0 0 24.802734,7.0859375 Z M 24.8125,10.8125 c 0.979297,8.9e-5 1.773345,0.749579 1.773438,1.673828 l 0,3.347656 c -9.3e-5,0.924248 -0.794141,1.673743 -1.773438,1.673828 -0.979284,-8.5e-5 -1.773345,-0.74958 -1.773438,-1.673828 l 0,-1.519531 a 1.7716528,1.7716527 0 0 1 -0.0078,-0.140625 1.7716528,1.7716527 0 0 1 0.0078,-0.140625 l 0,-1.546875 c 9.3e-5,-0.924249 0.794154,-1.673739 1.773438,-1.673828 z" gorn="0.1.0.0.5.0.0"  stroke-width="0" stroke="none" fill="#F7BD13" id="path12"/>
                    </g>
                </g>
                <g gorn="0.1.0.0.6"  id="copper0">
                    <g  transform="matrix(0.28222234,0,0,0.28222236,2.691482e-7,-3.768075e-6)">
                        <g >
                            <path d="M 7.0859375,0 C 5.9397288,0 4.8821858,0.33511977 4.0683594,0.94140625 3.254533,1.5476927 2.671875,2.4790456 2.671875,3.5429688 c 0,1.0639231 0.582658,1.995276 1.3964844,2.6015624 0.8138264,0.6062865 1.8713694,0.9414063 3.0175781,0.9414063 1.1462087,0 2.2037517,-0.3351198 3.0175785,-0.9414063 0.813826,-0.6062864 1.398437,-1.5376393 1.398437,-2.6015624 0,-1.0639232 -0.584611,-1.9952761 -1.398437,-2.60156255 C 9.2896892,0.33511977 8.2321462,0 7.0859375,0 Z m -1.6503906,1.7617188 3.3476562,0 c 0.9242476,9.28e-5 1.6737429,0.7941398 1.6738279,1.7734374 -8.5e-5,0.9792838 -0.7495803,1.7733451 -1.6738279,1.7734376 l -3.3476562,0 C 4.5112979,5.3085013 3.7618073,4.51444 3.7617188,3.5351562 3.7618073,2.5558586 4.5112979,1.7618116 5.4355469,1.7617188 Z" gorn="0.1.0.0.6.0.0.0"  stroke-width="0" stroke="none" connectorname="PWR" fill="#F7BD13" id="connector2pad"/>
                        </g>
                    </g>
                    <g  transform="matrix(0.28222234,0,0,0.28222236,2.691482e-7,-3.768075e-6)">
                        <g >
                            <path d="M 3.5429688,0 A 3.5433056,3.5433054 0 0 0 0,3.5429688 3.5433056,3.5433054 0 0 0 3.5429688,7.0859375 l 7.0878902,0 A 3.5433056,3.5433054 0 0 0 14.173828,3.5429688 3.5433056,3.5433054 0 0 0 10.630859,0 L 3.5429688,0 Z m 1.8671874,1.7714844 1.625,0 1.7246094,0 c 0.9242493,9.28e-5 1.6737414,0.7941401 1.6738284,1.7734375 -8.8e-5,0.9792835 -0.7495791,1.773345 -1.6738284,1.7734375 l -3.3496094,0 C 4.4859073,5.3182669 3.7383698,4.5242054 3.7382812,3.5449219 3.7383698,2.5656245 4.4859073,1.7715772 5.4101562,1.7714844 Z" gorn="0.1.0.0.6.1.0.0"  stroke-width="0" stroke="none" fill="#F7BD13" id="connector2pad"/>
                        </g>
                    </g>
                    <g  transform="matrix(0.28222234,0,0,0.28222236,2.691482e-7,-3.768075e-6)">
                        <g >
                            <path d="m 7.0859375,22.326172 c -1.1462087,0 -2.2037517,0.335118 -3.0175781,0.941406 -0.8138264,0.606287 -1.3964844,1.53764 -1.3964844,2.601563 0,1.063923 0.582658,1.989416 1.3964844,2.595703 0.8138264,0.606286 1.8713694,0.947265 3.0175781,0.947265 1.1462087,0 2.2037517,-0.340977 3.0175785,-0.947265 0.813826,-0.606287 1.398437,-1.53178 1.398437,-2.595703 0,-1.063923 -0.584611,-1.995276 -1.398437,-2.601563 C 9.2896892,22.661292 8.2321462,22.326172 7.0859375,22.326172 Z m -1.65625,1.759766 3.3476563,0 c 0.9242478,9.2e-5 1.6737422,0.79414 1.6738282,1.773437 -8.6e-5,0.979284 -0.7495804,1.773345 -1.6738282,1.773437 l -3.3476563,0 C 4.5054385,27.63272 3.755948,26.838659 3.7558594,25.859375 3.755948,24.880078 4.5054385,24.08603 5.4296875,24.085938 Z" gorn="0.1.0.0.6.2.0.0"  stroke-width="0" stroke="none" connectorname="GND@1" fill="#F7BD13" id="connector0pad"/>
                        </g>
                    </g>
                    <g  transform="matrix(0.28222234,0,0,0.28222236,2.691482e-7,-3.768075e-6)">
                        <g >
                            <path d="M 3.5429688,22.322266 A 3.5433056,3.5433054 0 0 0 0,25.865234 3.5433056,3.5433054 0 0 0 3.5429688,29.410156 l 7.0878902,0 a 3.5433056,3.5433054 0 0 0 3.542969,-3.544922 3.5433056,3.5433054 0 0 0 -3.542969,-3.542968 l -7.0878902,0 z m 1.8769531,1.767578 3.3476562,0 c 0.9242479,9.3e-5 1.6737429,0.79414 1.6738279,1.773437 -8.5e-5,0.979284 -0.74958,1.773345 -1.6738279,1.773438 l -1.6289062,0 -1.71875,0 c -0.924249,-9.3e-5 -1.6737396,-0.794154 -1.6738281,-1.773438 8.85e-5,-0.979297 0.7495791,-1.773344 1.6738281,-1.773437 z" gorn="0.1.0.0.6.3.0.0"  stroke-width="0" stroke="none" fill="#F7BD13" id="path21"/>
                        </g>
                    </g>
                    <g  transform="matrix(0.28222234,0,0,0.28222236,2.691482e-7,-3.768075e-6)">
                        <g >
                            <path d="m 24.802734,9.4394531 c -1.102127,0 -2.036624,0.6660929 -2.628906,1.5371089 -0.592282,0.871018 -0.914062,1.985134 -0.914062,3.197266 0,1.212133 0.32178,2.326249 0.914062,3.197266 0.592282,0.871017 1.526779,1.535156 2.628906,1.535156 1.102128,0 2.038578,-0.664139 2.63086,-1.535156 0.592282,-0.871017 0.912109,-1.985133 0.912109,-3.197266 0,-1.212132 -0.319827,-2.326248 -0.912109,-3.197266 -0.592282,-0.871016 -1.528732,-1.5371089 -2.63086,-1.5371089 z M 24.8125,10.8125 c 0.979295,8.9e-5 1.773345,0.749579 1.773438,1.673828 l 0,3.347656 c -9.3e-5,0.924248 -0.794143,1.673743 -1.773438,1.673828 -0.979285,-8.5e-5 -1.773345,-0.74958 -1.773438,-1.673828 l 0,-3.347656 c 9.3e-5,-0.924249 0.794153,-1.673739 1.773438,-1.673828 z" gorn="0.1.0.0.6.4.0.0"  stroke-width="0" stroke="none" connectorname="GND@2" fill="#F7BD13" id="connector1pad"/>
                        </g>
                    </g>
                    <g  transform="matrix(0.28222234,0,0,0.28222236,2.691482e-7,-3.768075e-6)">
                        <g >
                            <path d="m 24.802734,7.0859375 a 3.5433056,3.5433054 0 0 0 -3.542968,3.5449215 l 0,7.085938 a 3.5433056,3.5433054 0 0 0 3.542968,3.542969 3.5433056,3.5433054 0 0 0 3.542969,-3.542969 l 0,-7.085938 A 3.5433056,3.5433054 0 0 0 24.802734,7.0859375 Z M 24.8125,10.8125 c 0.979297,8.9e-5 1.773345,0.749579 1.773438,1.673828 l 0,3.347656 c -9.3e-5,0.924248 -0.794141,1.673743 -1.773438,1.673828 -0.979284,-8.5e-5 -1.773345,-0.74958 -1.773438,-1.673828 l 0,-1.519531 a 1.7716528,1.7716527 0 0 1 -0.0078,-0.140625 1.7716528,1.7716527 0 0 1 0.0078,-0.140625 l 0,-1.546875 c 9.3e-5,-0.924249 0.794154,-1.673739 1.773438,-1.673828 z" gorn="0.1.0.0.6.5.0.0"  stroke-width="0" stroke="none" fill="#F7BD13" id="path25"/>
                        </g>
                    </g>
                </g>
            </g>
        </g>
    </g>
    <g gorn="0.2"  id="silkscreen">
        <line x1="8.7549162" x2="4.4695907" y2="1.1" gorn="0.2.0"  stroke-width="0.2032" stroke-linecap="round" stroke="#f0f0f0" class="other" y1="1.1" id="line28"/>
        <line x1="0.25" x2="0.25" y2="6.4" gorn="0.2.1"  stroke-width="0.2032" stroke-linecap="round" stroke="#f0f0f0" class="other" y1="2.1" id="line30"/>
        <line x1="0.25" x2="0.25" y2="11.7" gorn="0.2.2"  stroke-width="0.2032" stroke-linecap="round" stroke="#f0f0f0" class="other" y1="8.29" id="line32"/>
        <line x1="8.75" x2="8.75" y2="1.1" gorn="0.2.3"  stroke-width="0.2032" stroke-linecap="round" stroke="#f0f0f0" class="other" y1="11.7" id="line34"/>
        <line x1="0.25" x2="8.75" y2="11.7" gorn="0.2.4"  stroke-width="0.2032" stroke-linecap="round" stroke="#f0f0f0" class="other" y1="11.7" id="line36"/>
        <line x1="8.75" x2="8.7" y2="11.7" gorn="0.2.5"  stroke-width="0.2032" stroke-linecap="round" stroke="#f0f0f0" class="other" y1="11.7" id="line38"/>
    </g>
</svg>
