M48
;DRILL file {KiCad 4.0.2+dfsg1-stable} date Wednesday, 12 September, 2018 10:40:08 AM +08
;FORMAT={-:-/ absolute / inch / decimal}
FMAT,2
INCH,TZ
T1C0.032
T2C0.035
T3C0.039
T4C0.039
T5C0.039
T6C0.040
T7C0.045
T8C0.050
T9C0.051
T10C0.051
T11C0.059
T12C0.063
T13C0.118
T14C0.118
%
G90
G05
M72
T1
X3.25Y-1.825
X3.25Y-1.925
X3.25Y-2.025
T2
X2.725Y-1.825
X2.725Y-1.925
X3.025Y-1.825
X3.025Y-1.925
T3
X1.4618Y-1.75
X1.4618Y-1.85
X1.4618Y-1.95
X1.4618Y-2.05
X1.5618Y-1.8
X1.5618Y-1.9
X1.5618Y-2.
X1.5618Y-2.1
T4
X2.7368Y-1.1268
X3.2093Y-1.1268
T5
X1.5251Y-0.675
X2.775Y-0.9249
X3.125Y-2.1001
T6
X1.7Y-0.8
X1.7Y-0.9
X1.7Y-1.
X1.7Y-1.1
X1.7Y-1.2
X1.7Y-1.3
X1.7Y-1.4
X1.7Y-1.5
X1.7Y-1.6
X1.7Y-1.7
X1.7Y-1.8
X1.7Y-1.9
X1.7Y-2.
X1.7Y-2.1
X1.7Y-2.2
X2.6Y-0.8
X2.6Y-0.9
X2.6Y-1.
X2.6Y-1.1
X2.6Y-1.2
X2.6Y-1.3
X2.6Y-1.4
X2.6Y-1.5
X2.6Y-1.6
X2.6Y-1.7
X2.6Y-1.8
X2.6Y-1.9
X2.6Y-2.
X2.6Y-2.1
X2.6Y-2.2
T7
X0.95Y-0.8
X0.95Y-1.55
X1.05Y-0.8
X1.05Y-1.55
X1.4Y-0.8
X1.4Y-1.55
X1.5Y-0.8
X1.5Y-1.55
T8
X1.5251Y-1.075
X2.725Y-2.1001
X3.175Y-0.9249
T9
X2.8Y-2.4
X2.9968Y-2.4
T10
X2.7368Y-1.6071
X2.975Y-1.05
X3.2112Y-1.6091
T11
X2.175Y-0.7919
X2.175Y-1.6581
T12
X1.3301Y-1.625
X1.3301Y-2.2234
T13
X1.0781Y-1.1
X1.1962Y-1.285
X1.3143Y-1.1
T14
X1.025Y-2.35
X3.2Y-0.75
X3.225Y-2.35
T0
M30
