%TF.GenerationSoftware,KiCad,Pcbnew,4.0.2+dfsg1-stable*%
%TF.CreationDate,2018-08-31T16:42:45+08:00*%
%TF.ProjectId,rfid board v2,7266696420626F6172642076322E6B69,rev?*%
%TF.FileFunction,Legend,Bot*%
%FSLAX46Y46*%
G04 Gerber Fmt 4.6, Leading zero omitted, Abs format (unit mm)*
G04 Created by KiCad (PCBNEW 4.0.2+dfsg1-stable) date Friday, 31 August, 2018 04:42:45 PM +08*
%MOMM*%
G01*
G04 APERTURE LIST*
%ADD10C,0.100000*%
%ADD11C,0.200000*%
%ADD12C,0.101600*%
%ADD13C,0.127000*%
%ADD14C,0.300000*%
%ADD15C,0.025400*%
%ADD16C,0.150000*%
%ADD17C,0.010000*%
G04 APERTURE END LIST*
D10*
D11*
X64467143Y-16962381D02*
X64467143Y-15962381D01*
X64038571Y-16962381D02*
X64038571Y-16438571D01*
X64086190Y-16343333D01*
X64181428Y-16295714D01*
X64324286Y-16295714D01*
X64419524Y-16343333D01*
X64467143Y-16390952D01*
X63705238Y-16295714D02*
X63324286Y-16295714D01*
X63562381Y-15962381D02*
X63562381Y-16819524D01*
X63514762Y-16914762D01*
X63419524Y-16962381D01*
X63324286Y-16962381D01*
X63133809Y-16295714D02*
X62752857Y-16295714D01*
X62990952Y-15962381D02*
X62990952Y-16819524D01*
X62943333Y-16914762D01*
X62848095Y-16962381D01*
X62752857Y-16962381D01*
X62419523Y-16295714D02*
X62419523Y-17295714D01*
X62419523Y-16343333D02*
X62324285Y-16295714D01*
X62133808Y-16295714D01*
X62038570Y-16343333D01*
X61990951Y-16390952D01*
X61943332Y-16486190D01*
X61943332Y-16771905D01*
X61990951Y-16867143D01*
X62038570Y-16914762D01*
X62133808Y-16962381D01*
X62324285Y-16962381D01*
X62419523Y-16914762D01*
X61514761Y-16867143D02*
X61467142Y-16914762D01*
X61514761Y-16962381D01*
X61562380Y-16914762D01*
X61514761Y-16867143D01*
X61514761Y-16962381D01*
X61514761Y-16343333D02*
X61467142Y-16390952D01*
X61514761Y-16438571D01*
X61562380Y-16390952D01*
X61514761Y-16343333D01*
X61514761Y-16438571D01*
X60324285Y-15914762D02*
X61181428Y-17200476D01*
X59276666Y-15914762D02*
X60133809Y-17200476D01*
X59038571Y-16295714D02*
X58848095Y-16962381D01*
X58657618Y-16486190D01*
X58467142Y-16962381D01*
X58276666Y-16295714D01*
X57990952Y-16295714D02*
X57800476Y-16962381D01*
X57609999Y-16486190D01*
X57419523Y-16962381D01*
X57229047Y-16295714D01*
X56943333Y-16295714D02*
X56752857Y-16962381D01*
X56562380Y-16486190D01*
X56371904Y-16962381D01*
X56181428Y-16295714D01*
X55800476Y-16867143D02*
X55752857Y-16914762D01*
X55800476Y-16962381D01*
X55848095Y-16914762D01*
X55800476Y-16867143D01*
X55800476Y-16962381D01*
X55324286Y-16295714D02*
X55324286Y-16962381D01*
X55324286Y-16390952D02*
X55276667Y-16343333D01*
X55181429Y-16295714D01*
X55038571Y-16295714D01*
X54943333Y-16343333D01*
X54895714Y-16438571D01*
X54895714Y-16962381D01*
X54419524Y-16962381D02*
X54419524Y-16295714D01*
X54419524Y-15962381D02*
X54467143Y-16010000D01*
X54419524Y-16057619D01*
X54371905Y-16010000D01*
X54419524Y-15962381D01*
X54419524Y-16057619D01*
X53514762Y-16295714D02*
X53514762Y-17105238D01*
X53562381Y-17200476D01*
X53610000Y-17248095D01*
X53705239Y-17295714D01*
X53848096Y-17295714D01*
X53943334Y-17248095D01*
X53514762Y-16914762D02*
X53610000Y-16962381D01*
X53800477Y-16962381D01*
X53895715Y-16914762D01*
X53943334Y-16867143D01*
X53990953Y-16771905D01*
X53990953Y-16486190D01*
X53943334Y-16390952D01*
X53895715Y-16343333D01*
X53800477Y-16295714D01*
X53610000Y-16295714D01*
X53514762Y-16343333D01*
X53038572Y-16962381D02*
X53038572Y-15962381D01*
X52610000Y-16962381D02*
X52610000Y-16438571D01*
X52657619Y-16343333D01*
X52752857Y-16295714D01*
X52895715Y-16295714D01*
X52990953Y-16343333D01*
X53038572Y-16390952D01*
X52276667Y-16295714D02*
X51895715Y-16295714D01*
X52133810Y-15962381D02*
X52133810Y-16819524D01*
X52086191Y-16914762D01*
X51990953Y-16962381D01*
X51895715Y-16962381D01*
X51419524Y-16962381D02*
X51514762Y-16914762D01*
X51562381Y-16867143D01*
X51610000Y-16771905D01*
X51610000Y-16486190D01*
X51562381Y-16390952D01*
X51514762Y-16343333D01*
X51419524Y-16295714D01*
X51276666Y-16295714D01*
X51181428Y-16343333D01*
X51133809Y-16390952D01*
X51086190Y-16486190D01*
X51086190Y-16771905D01*
X51133809Y-16867143D01*
X51181428Y-16914762D01*
X51276666Y-16962381D01*
X51419524Y-16962381D01*
X50752857Y-16295714D02*
X50562381Y-16962381D01*
X50371904Y-16486190D01*
X50181428Y-16962381D01*
X49990952Y-16295714D01*
X49467143Y-16962381D02*
X49562381Y-16914762D01*
X49610000Y-16819524D01*
X49610000Y-15962381D01*
X49086190Y-16867143D02*
X49038571Y-16914762D01*
X49086190Y-16962381D01*
X49133809Y-16914762D01*
X49086190Y-16867143D01*
X49086190Y-16962381D01*
X48657619Y-16914762D02*
X48562381Y-16962381D01*
X48371905Y-16962381D01*
X48276666Y-16914762D01*
X48229047Y-16819524D01*
X48229047Y-16771905D01*
X48276666Y-16676667D01*
X48371905Y-16629048D01*
X48514762Y-16629048D01*
X48610000Y-16581429D01*
X48657619Y-16486190D01*
X48657619Y-16438571D01*
X48610000Y-16343333D01*
X48514762Y-16295714D01*
X48371905Y-16295714D01*
X48276666Y-16343333D01*
X47800476Y-16295714D02*
X47800476Y-17295714D01*
X47800476Y-16343333D02*
X47705238Y-16295714D01*
X47514761Y-16295714D01*
X47419523Y-16343333D01*
X47371904Y-16390952D01*
X47324285Y-16486190D01*
X47324285Y-16771905D01*
X47371904Y-16867143D01*
X47419523Y-16914762D01*
X47514761Y-16962381D01*
X47705238Y-16962381D01*
X47800476Y-16914762D01*
X46467142Y-16962381D02*
X46467142Y-16438571D01*
X46514761Y-16343333D01*
X46609999Y-16295714D01*
X46800476Y-16295714D01*
X46895714Y-16343333D01*
X46467142Y-16914762D02*
X46562380Y-16962381D01*
X46800476Y-16962381D01*
X46895714Y-16914762D01*
X46943333Y-16819524D01*
X46943333Y-16724286D01*
X46895714Y-16629048D01*
X46800476Y-16581429D01*
X46562380Y-16581429D01*
X46467142Y-16533810D01*
X45562380Y-16914762D02*
X45657618Y-16962381D01*
X45848095Y-16962381D01*
X45943333Y-16914762D01*
X45990952Y-16867143D01*
X46038571Y-16771905D01*
X46038571Y-16486190D01*
X45990952Y-16390952D01*
X45943333Y-16343333D01*
X45848095Y-16295714D01*
X45657618Y-16295714D01*
X45562380Y-16343333D01*
X44752856Y-16914762D02*
X44848094Y-16962381D01*
X45038571Y-16962381D01*
X45133809Y-16914762D01*
X45181428Y-16819524D01*
X45181428Y-16438571D01*
X45133809Y-16343333D01*
X45038571Y-16295714D01*
X44848094Y-16295714D01*
X44752856Y-16343333D01*
X44705237Y-16438571D01*
X44705237Y-16533810D01*
X45181428Y-16629048D01*
D12*
X64128953Y-30201810D02*
X63814476Y-30201810D01*
X63983810Y-30395333D01*
X63911238Y-30395333D01*
X63862857Y-30419524D01*
X63838667Y-30443714D01*
X63814476Y-30492095D01*
X63814476Y-30613048D01*
X63838667Y-30661429D01*
X63862857Y-30685619D01*
X63911238Y-30709810D01*
X64056381Y-30709810D01*
X64104762Y-30685619D01*
X64128953Y-30661429D01*
X63669333Y-30201810D02*
X63500000Y-30709810D01*
X63330666Y-30201810D01*
X63209714Y-30201810D02*
X62895237Y-30201810D01*
X63064571Y-30395333D01*
X62991999Y-30395333D01*
X62943618Y-30419524D01*
X62919428Y-30443714D01*
X62895237Y-30492095D01*
X62895237Y-30613048D01*
X62919428Y-30661429D01*
X62943618Y-30685619D01*
X62991999Y-30709810D01*
X63137142Y-30709810D01*
X63185523Y-30685619D01*
X63209714Y-30661429D01*
X46348953Y-42901810D02*
X46034476Y-42901810D01*
X46203810Y-43095333D01*
X46131238Y-43095333D01*
X46082857Y-43119524D01*
X46058667Y-43143714D01*
X46034476Y-43192095D01*
X46034476Y-43313048D01*
X46058667Y-43361429D01*
X46082857Y-43385619D01*
X46131238Y-43409810D01*
X46276381Y-43409810D01*
X46324762Y-43385619D01*
X46348953Y-43361429D01*
X45889333Y-42901810D02*
X45720000Y-43409810D01*
X45550666Y-42901810D01*
X45429714Y-42901810D02*
X45115237Y-42901810D01*
X45284571Y-43095333D01*
X45211999Y-43095333D01*
X45163618Y-43119524D01*
X45139428Y-43143714D01*
X45115237Y-43192095D01*
X45115237Y-43313048D01*
X45139428Y-43361429D01*
X45163618Y-43385619D01*
X45211999Y-43409810D01*
X45357142Y-43409810D01*
X45405523Y-43385619D01*
X45429714Y-43361429D01*
X63887047Y-32766000D02*
X63935428Y-32741810D01*
X64008000Y-32741810D01*
X64080571Y-32766000D01*
X64128952Y-32814381D01*
X64153143Y-32862762D01*
X64177333Y-32959524D01*
X64177333Y-33032095D01*
X64153143Y-33128857D01*
X64128952Y-33177238D01*
X64080571Y-33225619D01*
X64008000Y-33249810D01*
X63959619Y-33249810D01*
X63887047Y-33225619D01*
X63862857Y-33201429D01*
X63862857Y-33032095D01*
X63959619Y-33032095D01*
X63645143Y-33249810D02*
X63645143Y-32741810D01*
X63354857Y-33249810D01*
X63354857Y-32741810D01*
X63112953Y-33249810D02*
X63112953Y-32741810D01*
X62992000Y-32741810D01*
X62919429Y-32766000D01*
X62871048Y-32814381D01*
X62846857Y-32862762D01*
X62822667Y-32959524D01*
X62822667Y-33032095D01*
X62846857Y-33128857D01*
X62871048Y-33177238D01*
X62919429Y-33225619D01*
X62992000Y-33249810D01*
X63112953Y-33249810D01*
X46107047Y-40386000D02*
X46155428Y-40361810D01*
X46228000Y-40361810D01*
X46300571Y-40386000D01*
X46348952Y-40434381D01*
X46373143Y-40482762D01*
X46397333Y-40579524D01*
X46397333Y-40652095D01*
X46373143Y-40748857D01*
X46348952Y-40797238D01*
X46300571Y-40845619D01*
X46228000Y-40869810D01*
X46179619Y-40869810D01*
X46107047Y-40845619D01*
X46082857Y-40821429D01*
X46082857Y-40652095D01*
X46179619Y-40652095D01*
X45865143Y-40869810D02*
X45865143Y-40361810D01*
X45574857Y-40869810D01*
X45574857Y-40361810D01*
X45332953Y-40869810D02*
X45332953Y-40361810D01*
X45212000Y-40361810D01*
X45139429Y-40386000D01*
X45091048Y-40434381D01*
X45066857Y-40482762D01*
X45042667Y-40579524D01*
X45042667Y-40652095D01*
X45066857Y-40748857D01*
X45091048Y-40797238D01*
X45139429Y-40845619D01*
X45212000Y-40869810D01*
X45332953Y-40869810D01*
X46107047Y-22606000D02*
X46155428Y-22581810D01*
X46228000Y-22581810D01*
X46300571Y-22606000D01*
X46348952Y-22654381D01*
X46373143Y-22702762D01*
X46397333Y-22799524D01*
X46397333Y-22872095D01*
X46373143Y-22968857D01*
X46348952Y-23017238D01*
X46300571Y-23065619D01*
X46228000Y-23089810D01*
X46179619Y-23089810D01*
X46107047Y-23065619D01*
X46082857Y-23041429D01*
X46082857Y-22872095D01*
X46179619Y-22872095D01*
X45865143Y-23089810D02*
X45865143Y-22581810D01*
X45574857Y-23089810D01*
X45574857Y-22581810D01*
X45332953Y-23089810D02*
X45332953Y-22581810D01*
X45212000Y-22581810D01*
X45139429Y-22606000D01*
X45091048Y-22654381D01*
X45066857Y-22702762D01*
X45042667Y-22799524D01*
X45042667Y-22872095D01*
X45066857Y-22968857D01*
X45091048Y-23017238D01*
X45139429Y-23065619D01*
X45212000Y-23089810D01*
X45332953Y-23089810D01*
X46348953Y-20041810D02*
X46034476Y-20041810D01*
X46203810Y-20235333D01*
X46131238Y-20235333D01*
X46082857Y-20259524D01*
X46058667Y-20283714D01*
X46034476Y-20332095D01*
X46034476Y-20453048D01*
X46058667Y-20501429D01*
X46082857Y-20525619D01*
X46131238Y-20549810D01*
X46276381Y-20549810D01*
X46324762Y-20525619D01*
X46348953Y-20501429D01*
X45889333Y-20041810D02*
X45720000Y-20549810D01*
X45550666Y-20041810D01*
X45429714Y-20041810D02*
X45115237Y-20041810D01*
X45284571Y-20235333D01*
X45211999Y-20235333D01*
X45163618Y-20259524D01*
X45139428Y-20283714D01*
X45115237Y-20332095D01*
X45115237Y-20453048D01*
X45139428Y-20501429D01*
X45163618Y-20525619D01*
X45211999Y-20549810D01*
X45357142Y-20549810D01*
X45405523Y-20525619D01*
X45429714Y-20501429D01*
X41891857Y-49735619D02*
X41819286Y-49759810D01*
X41698333Y-49759810D01*
X41649952Y-49735619D01*
X41625762Y-49711429D01*
X41601571Y-49663048D01*
X41601571Y-49614667D01*
X41625762Y-49566286D01*
X41649952Y-49542095D01*
X41698333Y-49517905D01*
X41795095Y-49493714D01*
X41843476Y-49469524D01*
X41867667Y-49445333D01*
X41891857Y-49396952D01*
X41891857Y-49348571D01*
X41867667Y-49300190D01*
X41843476Y-49276000D01*
X41795095Y-49251810D01*
X41674143Y-49251810D01*
X41601571Y-49276000D01*
X41383857Y-49759810D02*
X41383857Y-49251810D01*
X41262904Y-49251810D01*
X41190333Y-49276000D01*
X41141952Y-49324381D01*
X41117761Y-49372762D01*
X41093571Y-49469524D01*
X41093571Y-49542095D01*
X41117761Y-49638857D01*
X41141952Y-49687238D01*
X41190333Y-49735619D01*
X41262904Y-49759810D01*
X41383857Y-49759810D01*
X40900047Y-49614667D02*
X40658142Y-49614667D01*
X40948428Y-49759810D02*
X40779095Y-49251810D01*
X40609761Y-49759810D01*
X41903953Y-51791810D02*
X41589476Y-51791810D01*
X41758810Y-51985333D01*
X41686238Y-51985333D01*
X41637857Y-52009524D01*
X41613667Y-52033714D01*
X41589476Y-52082095D01*
X41589476Y-52203048D01*
X41613667Y-52251429D01*
X41637857Y-52275619D01*
X41686238Y-52299810D01*
X41831381Y-52299810D01*
X41879762Y-52275619D01*
X41903953Y-52251429D01*
X41444333Y-51791810D02*
X41275000Y-52299810D01*
X41105666Y-51791810D01*
X40984714Y-51791810D02*
X40670237Y-51791810D01*
X40839571Y-51985333D01*
X40766999Y-51985333D01*
X40718618Y-52009524D01*
X40694428Y-52033714D01*
X40670237Y-52082095D01*
X40670237Y-52203048D01*
X40694428Y-52251429D01*
X40718618Y-52275619D01*
X40766999Y-52299810D01*
X40912142Y-52299810D01*
X40960523Y-52275619D01*
X40984714Y-52251429D01*
X41553191Y-54839810D02*
X41722524Y-54597905D01*
X41843477Y-54839810D02*
X41843477Y-54331810D01*
X41649953Y-54331810D01*
X41601572Y-54356000D01*
X41577381Y-54380190D01*
X41553191Y-54428571D01*
X41553191Y-54501143D01*
X41577381Y-54549524D01*
X41601572Y-54573714D01*
X41649953Y-54597905D01*
X41843477Y-54597905D01*
X41359667Y-54815619D02*
X41287096Y-54839810D01*
X41166143Y-54839810D01*
X41117762Y-54815619D01*
X41093572Y-54791429D01*
X41069381Y-54743048D01*
X41069381Y-54694667D01*
X41093572Y-54646286D01*
X41117762Y-54622095D01*
X41166143Y-54597905D01*
X41262905Y-54573714D01*
X41311286Y-54549524D01*
X41335477Y-54525333D01*
X41359667Y-54476952D01*
X41359667Y-54428571D01*
X41335477Y-54380190D01*
X41311286Y-54356000D01*
X41262905Y-54331810D01*
X41141953Y-54331810D01*
X41069381Y-54356000D01*
X40924238Y-54331810D02*
X40633952Y-54331810D01*
X40779095Y-54839810D02*
X40779095Y-54331810D01*
X41746714Y-46953714D02*
X41674143Y-46977905D01*
X41649952Y-47002095D01*
X41625762Y-47050476D01*
X41625762Y-47123048D01*
X41649952Y-47171429D01*
X41674143Y-47195619D01*
X41722524Y-47219810D01*
X41916048Y-47219810D01*
X41916048Y-46711810D01*
X41746714Y-46711810D01*
X41698333Y-46736000D01*
X41674143Y-46760190D01*
X41649952Y-46808571D01*
X41649952Y-46856952D01*
X41674143Y-46905333D01*
X41698333Y-46929524D01*
X41746714Y-46953714D01*
X41916048Y-46953714D01*
X41408048Y-46711810D02*
X41408048Y-47123048D01*
X41383857Y-47171429D01*
X41359667Y-47195619D01*
X41311286Y-47219810D01*
X41214524Y-47219810D01*
X41166143Y-47195619D01*
X41141952Y-47171429D01*
X41117762Y-47123048D01*
X41117762Y-46711810D01*
X40924239Y-46711810D02*
X40585572Y-46711810D01*
X40924239Y-47219810D01*
X40585572Y-47219810D01*
D13*
X34870572Y-51689000D02*
X34943143Y-51652714D01*
X35052000Y-51652714D01*
X35160857Y-51689000D01*
X35233429Y-51761571D01*
X35269714Y-51834143D01*
X35306000Y-51979286D01*
X35306000Y-52088143D01*
X35269714Y-52233286D01*
X35233429Y-52305857D01*
X35160857Y-52378429D01*
X35052000Y-52414714D01*
X34979429Y-52414714D01*
X34870572Y-52378429D01*
X34834286Y-52342143D01*
X34834286Y-52088143D01*
X34979429Y-52088143D01*
X34507714Y-52414714D02*
X34507714Y-51652714D01*
X34072286Y-52414714D01*
X34072286Y-51652714D01*
X33709428Y-52414714D02*
X33709428Y-51652714D01*
X33528000Y-51652714D01*
X33419143Y-51689000D01*
X33346571Y-51761571D01*
X33310286Y-51834143D01*
X33274000Y-51979286D01*
X33274000Y-52088143D01*
X33310286Y-52233286D01*
X33346571Y-52305857D01*
X33419143Y-52378429D01*
X33528000Y-52414714D01*
X33709428Y-52414714D01*
X35487428Y-49874714D02*
X35487428Y-49112714D01*
X35233428Y-49657000D01*
X34979428Y-49112714D01*
X34979428Y-49874714D01*
X34471429Y-49112714D02*
X34326286Y-49112714D01*
X34253714Y-49149000D01*
X34181143Y-49221571D01*
X34144857Y-49366714D01*
X34144857Y-49620714D01*
X34181143Y-49765857D01*
X34253714Y-49838429D01*
X34326286Y-49874714D01*
X34471429Y-49874714D01*
X34544000Y-49838429D01*
X34616571Y-49765857D01*
X34652857Y-49620714D01*
X34652857Y-49366714D01*
X34616571Y-49221571D01*
X34544000Y-49149000D01*
X34471429Y-49112714D01*
X33854571Y-49838429D02*
X33745714Y-49874714D01*
X33564285Y-49874714D01*
X33491714Y-49838429D01*
X33455428Y-49802143D01*
X33419143Y-49729571D01*
X33419143Y-49657000D01*
X33455428Y-49584429D01*
X33491714Y-49548143D01*
X33564285Y-49511857D01*
X33709428Y-49475571D01*
X33782000Y-49439286D01*
X33818285Y-49403000D01*
X33854571Y-49330429D01*
X33854571Y-49257857D01*
X33818285Y-49185286D01*
X33782000Y-49149000D01*
X33709428Y-49112714D01*
X33528000Y-49112714D01*
X33419143Y-49149000D01*
X33092571Y-49874714D02*
X33092571Y-49112714D01*
X35487428Y-47334714D02*
X35487428Y-46572714D01*
X35233428Y-47117000D01*
X34979428Y-46572714D01*
X34979428Y-47334714D01*
X34616571Y-47334714D02*
X34616571Y-46572714D01*
X34290000Y-47298429D02*
X34181143Y-47334714D01*
X33999714Y-47334714D01*
X33927143Y-47298429D01*
X33890857Y-47262143D01*
X33854572Y-47189571D01*
X33854572Y-47117000D01*
X33890857Y-47044429D01*
X33927143Y-47008143D01*
X33999714Y-46971857D01*
X34144857Y-46935571D01*
X34217429Y-46899286D01*
X34253714Y-46863000D01*
X34290000Y-46790429D01*
X34290000Y-46717857D01*
X34253714Y-46645286D01*
X34217429Y-46609000D01*
X34144857Y-46572714D01*
X33963429Y-46572714D01*
X33854572Y-46609000D01*
X33382858Y-46572714D02*
X33237715Y-46572714D01*
X33165143Y-46609000D01*
X33092572Y-46681571D01*
X33056286Y-46826714D01*
X33056286Y-47080714D01*
X33092572Y-47225857D01*
X33165143Y-47298429D01*
X33237715Y-47334714D01*
X33382858Y-47334714D01*
X33455429Y-47298429D01*
X33528000Y-47225857D01*
X33564286Y-47080714D01*
X33564286Y-46826714D01*
X33528000Y-46681571D01*
X33455429Y-46609000D01*
X33382858Y-46572714D01*
X35269714Y-44758429D02*
X35160857Y-44794714D01*
X34979428Y-44794714D01*
X34906857Y-44758429D01*
X34870571Y-44722143D01*
X34834286Y-44649571D01*
X34834286Y-44577000D01*
X34870571Y-44504429D01*
X34906857Y-44468143D01*
X34979428Y-44431857D01*
X35124571Y-44395571D01*
X35197143Y-44359286D01*
X35233428Y-44323000D01*
X35269714Y-44250429D01*
X35269714Y-44177857D01*
X35233428Y-44105286D01*
X35197143Y-44069000D01*
X35124571Y-44032714D01*
X34943143Y-44032714D01*
X34834286Y-44069000D01*
X34072286Y-44722143D02*
X34108572Y-44758429D01*
X34217429Y-44794714D01*
X34290000Y-44794714D01*
X34398857Y-44758429D01*
X34471429Y-44685857D01*
X34507714Y-44613286D01*
X34544000Y-44468143D01*
X34544000Y-44359286D01*
X34507714Y-44214143D01*
X34471429Y-44141571D01*
X34398857Y-44069000D01*
X34290000Y-44032714D01*
X34217429Y-44032714D01*
X34108572Y-44069000D01*
X34072286Y-44105286D01*
X33745714Y-44794714D02*
X33745714Y-44032714D01*
X33310286Y-44794714D02*
X33636857Y-44359286D01*
X33310286Y-44032714D02*
X33745714Y-44468143D01*
D14*
X26606428Y-31222143D02*
X25463571Y-31222143D01*
X36131428Y-24872143D02*
X34988571Y-24872143D01*
X35560000Y-25443571D02*
X35560000Y-24300714D01*
X76509285Y-56558571D02*
X76509285Y-55058571D01*
X76152142Y-55058571D01*
X75937857Y-55130000D01*
X75794999Y-55272857D01*
X75723571Y-55415714D01*
X75652142Y-55701429D01*
X75652142Y-55915714D01*
X75723571Y-56201429D01*
X75794999Y-56344286D01*
X75937857Y-56487143D01*
X76152142Y-56558571D01*
X76509285Y-56558571D01*
X74794999Y-56558571D02*
X74937857Y-56487143D01*
X75009285Y-56415714D01*
X75080714Y-56272857D01*
X75080714Y-55844286D01*
X75009285Y-55701429D01*
X74937857Y-55630000D01*
X74794999Y-55558571D01*
X74580714Y-55558571D01*
X74437857Y-55630000D01*
X74366428Y-55701429D01*
X74294999Y-55844286D01*
X74294999Y-56272857D01*
X74366428Y-56415714D01*
X74437857Y-56487143D01*
X74580714Y-56558571D01*
X74794999Y-56558571D01*
X73437856Y-56558571D02*
X73580714Y-56487143D01*
X73652142Y-56415714D01*
X73723571Y-56272857D01*
X73723571Y-55844286D01*
X73652142Y-55701429D01*
X73580714Y-55630000D01*
X73437856Y-55558571D01*
X73223571Y-55558571D01*
X73080714Y-55630000D01*
X73009285Y-55701429D01*
X72937856Y-55844286D01*
X72937856Y-56272857D01*
X73009285Y-56415714D01*
X73080714Y-56487143D01*
X73223571Y-56558571D01*
X73437856Y-56558571D01*
X72294999Y-56558571D02*
X72294999Y-55558571D01*
X72294999Y-55844286D02*
X72223571Y-55701429D01*
X72152142Y-55630000D01*
X72009285Y-55558571D01*
X71866428Y-55558571D01*
X76771428Y-57892143D02*
X75628571Y-57892143D01*
X76200000Y-58463571D02*
X76200000Y-57320714D01*
X71691428Y-57892143D02*
X70548571Y-57892143D01*
D15*
X22860000Y-62865000D02*
X22860000Y-15240000D01*
X85090000Y-62865000D02*
X85090000Y-15240000D01*
X22860000Y-15240000D02*
X85090000Y-15240000D01*
X85090000Y-62865000D02*
X22860000Y-62865000D01*
D16*
X57744360Y-37114480D02*
X60246260Y-37114480D01*
X50243740Y-37114480D02*
X52745640Y-37114480D01*
X50243740Y-25115520D02*
X52745640Y-25115520D01*
X60246260Y-25115520D02*
X57744360Y-25115520D01*
X55245000Y-35615880D02*
X55245000Y-26614120D01*
X57744360Y-35615880D02*
X52745640Y-35615880D01*
X57744360Y-26614120D02*
X52745640Y-26614120D01*
X57144920Y-21115020D02*
X57744360Y-21115020D01*
X53345080Y-41114980D02*
X52745640Y-41114980D01*
X52745640Y-41114980D02*
X52745640Y-21115020D01*
X52745640Y-21115020D02*
X53345080Y-21115020D01*
X57744360Y-21115020D02*
X57744360Y-41114980D01*
X57744360Y-41114980D02*
X57144920Y-41114980D01*
X57144920Y-19116040D02*
X60246260Y-19116040D01*
X53345080Y-43113960D02*
X50243740Y-43113960D01*
X50243740Y-43113960D02*
X50243740Y-19116040D01*
X50243740Y-19116040D02*
X53345080Y-19116040D01*
X60246260Y-19116040D02*
X60246260Y-43113960D01*
X60246260Y-43113960D02*
X57144920Y-43113960D01*
X23495000Y-41910000D02*
X40005000Y-41910000D01*
X40005000Y-41910000D02*
X40005000Y-19050000D01*
X40005000Y-19050000D02*
X23495000Y-19050000D01*
X23495000Y-19050000D02*
X23495000Y-41910000D01*
D17*
G36*
X54243154Y-44627829D02*
X53922181Y-44644477D01*
X53719890Y-44663840D01*
X52875407Y-44810521D01*
X52049863Y-45037214D01*
X51250645Y-45340825D01*
X50485137Y-45718260D01*
X49760725Y-46166426D01*
X49276000Y-46525378D01*
X49066151Y-46703185D01*
X48825919Y-46924109D01*
X48572664Y-47170606D01*
X48323748Y-47425133D01*
X48096531Y-47670144D01*
X47908375Y-47888095D01*
X47831792Y-47984834D01*
X47335405Y-48701326D01*
X46919844Y-49436796D01*
X46582106Y-50198346D01*
X46319187Y-50993075D01*
X46128085Y-51828087D01*
X46077258Y-52133500D01*
X46049137Y-52376133D01*
X46027931Y-52673080D01*
X46013902Y-53003341D01*
X46007317Y-53345914D01*
X46008439Y-53679800D01*
X46017534Y-53983998D01*
X46034866Y-54237508D01*
X46049246Y-54356000D01*
X46069241Y-54497466D01*
X46080797Y-54600602D01*
X46081503Y-54642263D01*
X46047506Y-54622570D01*
X45968588Y-54560220D01*
X45874710Y-54479915D01*
X45767136Y-54388557D01*
X45707380Y-54349921D01*
X45682079Y-54358201D01*
X45677667Y-54394282D01*
X45703733Y-54539790D01*
X45775764Y-54729302D01*
X45884512Y-54942638D01*
X46020727Y-55159615D01*
X46042816Y-55191031D01*
X46136777Y-55337889D01*
X46250417Y-55538822D01*
X46370816Y-55769764D01*
X46485055Y-56006652D01*
X46509386Y-56060080D01*
X46908943Y-56901962D01*
X47316033Y-57667735D01*
X47729540Y-58355648D01*
X48148350Y-58963950D01*
X48571348Y-59490891D01*
X48943148Y-59882994D01*
X49318789Y-60211764D01*
X49761667Y-60540566D01*
X50255105Y-60858193D01*
X50782422Y-61153438D01*
X50990500Y-61258551D01*
X51658134Y-61555047D01*
X52317374Y-61782700D01*
X52995258Y-61949560D01*
X53677556Y-62058658D01*
X53865161Y-62074837D01*
X54116278Y-62086519D01*
X54410726Y-62093718D01*
X54728319Y-62096451D01*
X55048873Y-62094731D01*
X55352206Y-62088575D01*
X55618133Y-62077998D01*
X55826470Y-62063015D01*
X55880000Y-62056997D01*
X56619078Y-61926516D01*
X57366654Y-61726604D01*
X58101721Y-61464705D01*
X58803271Y-61148263D01*
X59424161Y-60801050D01*
X60122260Y-60317955D01*
X60766242Y-59772413D01*
X61352594Y-59169823D01*
X61617098Y-58840338D01*
X57361667Y-58840338D01*
X57324279Y-58869192D01*
X57222464Y-58919668D01*
X57071747Y-58985528D01*
X56887653Y-59060533D01*
X56685707Y-59138443D01*
X56481433Y-59213020D01*
X56290355Y-59278026D01*
X56207982Y-59303967D01*
X55588001Y-59454704D01*
X54926595Y-59545069D01*
X54243136Y-59573610D01*
X53556996Y-59538881D01*
X53361167Y-59516880D01*
X52612789Y-59379868D01*
X51888164Y-59162606D01*
X51191725Y-58867274D01*
X50527907Y-58496057D01*
X49901142Y-58051136D01*
X49315864Y-57534693D01*
X49297460Y-57516607D01*
X48789167Y-57015380D01*
X48921827Y-56951703D01*
X48651729Y-56951703D01*
X48651605Y-56951777D01*
X48597868Y-56968799D01*
X48483163Y-56997706D01*
X48329397Y-57033065D01*
X48281167Y-57043633D01*
X47980310Y-57118578D01*
X47755701Y-57196131D01*
X47610761Y-57275000D01*
X47571840Y-57311298D01*
X47528401Y-57350928D01*
X47507781Y-57315223D01*
X47504191Y-57298070D01*
X47516075Y-57228556D01*
X47560344Y-57105408D01*
X47628993Y-56949403D01*
X47673525Y-56858533D01*
X47772264Y-56677369D01*
X47877419Y-56505565D01*
X47971354Y-56371289D01*
X48001284Y-56335013D01*
X48086787Y-56242209D01*
X48136915Y-56205677D01*
X48172296Y-56218185D01*
X48206867Y-56262955D01*
X48234044Y-56311831D01*
X48231181Y-56358253D01*
X48188755Y-56419045D01*
X48097244Y-56511036D01*
X48031666Y-56572536D01*
X47894103Y-56710946D01*
X47812965Y-56813537D01*
X47787898Y-56874520D01*
X47818548Y-56888108D01*
X47904561Y-56848513D01*
X48042661Y-56752199D01*
X48169261Y-56657472D01*
X48272323Y-56585261D01*
X48331537Y-56549726D01*
X48334584Y-56548641D01*
X48379579Y-56571369D01*
X48450199Y-56640462D01*
X48529583Y-56734481D01*
X48600872Y-56831986D01*
X48647207Y-56911540D01*
X48651729Y-56951703D01*
X48921827Y-56951703D01*
X48979667Y-56923940D01*
X49148241Y-56811741D01*
X49233667Y-56697707D01*
X49285457Y-56610470D01*
X49351999Y-56558912D01*
X49450161Y-56539621D01*
X49596812Y-56549181D01*
X49801401Y-56582801D01*
X50017693Y-56623411D01*
X50160706Y-56653353D01*
X50240443Y-56677222D01*
X50266905Y-56699610D01*
X50250094Y-56725112D01*
X50200011Y-56758321D01*
X50192915Y-56762633D01*
X50114130Y-56818808D01*
X50080355Y-56859497D01*
X50080333Y-56860075D01*
X50048369Y-56896384D01*
X49962970Y-56968529D01*
X49839878Y-57063530D01*
X49781012Y-57106915D01*
X49624413Y-57227091D01*
X49541280Y-57314921D01*
X49533646Y-57381740D01*
X49603541Y-57438878D01*
X49752998Y-57497669D01*
X49857031Y-57530866D01*
X50177019Y-57599037D01*
X50485684Y-57607236D01*
X50770627Y-57558906D01*
X51019447Y-57457492D01*
X51219744Y-57306439D01*
X51356659Y-57114282D01*
X51417602Y-57002920D01*
X51470311Y-56953232D01*
X51536360Y-56947645D01*
X51557114Y-56951011D01*
X51602169Y-56959224D01*
X51676590Y-56972507D01*
X51786817Y-56991989D01*
X51939288Y-57018797D01*
X52140442Y-57054061D01*
X52396720Y-57098907D01*
X52714558Y-57154466D01*
X53100398Y-57221864D01*
X53560676Y-57302231D01*
X53763333Y-57337608D01*
X54039145Y-57390746D01*
X54359582Y-57460342D01*
X54688308Y-57538081D01*
X54988987Y-57615648D01*
X55041476Y-57630107D01*
X55311463Y-57707978D01*
X55531995Y-57779372D01*
X55728879Y-57854840D01*
X55927918Y-57944932D01*
X56154919Y-58060200D01*
X56353810Y-58166683D01*
X56658764Y-58336663D01*
X56917187Y-58490265D01*
X57122573Y-58623139D01*
X57268414Y-58730937D01*
X57348204Y-58809308D01*
X57361667Y-58840338D01*
X61617098Y-58840338D01*
X61877805Y-58515585D01*
X62338363Y-57815097D01*
X62730756Y-57073758D01*
X63051472Y-56296967D01*
X63297001Y-55490123D01*
X63463829Y-54658626D01*
X63476550Y-54570737D01*
X63510638Y-54243469D01*
X63532065Y-53858708D01*
X63540833Y-53442676D01*
X63536941Y-53021594D01*
X63531418Y-52888140D01*
X61293738Y-52888140D01*
X61286188Y-53091906D01*
X61269680Y-53282019D01*
X61242906Y-53482101D01*
X61214526Y-53657500D01*
X61095760Y-54215047D01*
X60930617Y-54778984D01*
X60729886Y-55315302D01*
X60592353Y-55618904D01*
X60500355Y-55795282D01*
X60384899Y-55999330D01*
X60255741Y-56215631D01*
X60122638Y-56428770D01*
X59995346Y-56623330D01*
X59883623Y-56783895D01*
X59797226Y-56895048D01*
X59761520Y-56931678D01*
X59716359Y-56949457D01*
X59626843Y-56959474D01*
X59483510Y-56961823D01*
X59276901Y-56956597D01*
X58997554Y-56943889D01*
X58923066Y-56939974D01*
X58355683Y-56913237D01*
X57869973Y-56898268D01*
X57463759Y-56895082D01*
X57134868Y-56903692D01*
X56881124Y-56924114D01*
X56705500Y-56955027D01*
X56487833Y-57001906D01*
X56229289Y-57044283D01*
X55961515Y-57078098D01*
X55716158Y-57099290D01*
X55542444Y-57104248D01*
X55476800Y-57099644D01*
X55478369Y-57088291D01*
X55551938Y-57068656D01*
X55702295Y-57039204D01*
X55799871Y-57021706D01*
X56088150Y-56965366D01*
X56326177Y-56903037D01*
X56542456Y-56824058D01*
X56765494Y-56717771D01*
X57023798Y-56573516D01*
X57068257Y-56547408D01*
X57585908Y-56197991D01*
X58034776Y-55800274D01*
X58417516Y-55351395D01*
X58736784Y-54848495D01*
X58847505Y-54631167D01*
X59010600Y-54255504D01*
X59126553Y-53901196D01*
X59202381Y-53538812D01*
X59245099Y-53138921D01*
X59256200Y-52916667D01*
X59253462Y-52789667D01*
X58642400Y-52789667D01*
X58625624Y-53207085D01*
X58570905Y-53576204D01*
X58471652Y-53927375D01*
X58321278Y-54290945D01*
X58312339Y-54309910D01*
X58041868Y-54783631D01*
X57703767Y-55212685D01*
X57306429Y-55589671D01*
X56858248Y-55907190D01*
X56367616Y-56157843D01*
X56102777Y-56257871D01*
X55679718Y-56364598D01*
X55219299Y-56419985D01*
X54752826Y-56422221D01*
X54311606Y-56369498D01*
X54280132Y-56363222D01*
X53750561Y-56212720D01*
X53251696Y-55988460D01*
X52791965Y-55696806D01*
X52379793Y-55344123D01*
X52023609Y-54936775D01*
X51731838Y-54481129D01*
X51694959Y-54410603D01*
X51629830Y-54274188D01*
X51607121Y-54209142D01*
X51624246Y-54217287D01*
X51678618Y-54300443D01*
X51728129Y-54387252D01*
X51910207Y-54684141D01*
X52120100Y-54957052D01*
X52378330Y-55231623D01*
X52488345Y-55336999D01*
X52906419Y-55678678D01*
X53358563Y-55956665D01*
X53834289Y-56167138D01*
X54323114Y-56306280D01*
X54814549Y-56370270D01*
X55287333Y-56356529D01*
X55824570Y-56260178D01*
X56318788Y-56095301D01*
X56778638Y-55857707D01*
X57212773Y-55543202D01*
X57493599Y-55287334D01*
X57719924Y-55033065D01*
X53210621Y-55033065D01*
X53209817Y-55033334D01*
X53171850Y-55005420D01*
X53091975Y-54932010D01*
X52987009Y-54828602D01*
X52980167Y-54821667D01*
X52880750Y-54717958D01*
X52813621Y-54642495D01*
X52792046Y-54610268D01*
X52792850Y-54610000D01*
X52830817Y-54637914D01*
X52910692Y-54711324D01*
X53015658Y-54814731D01*
X53022500Y-54821667D01*
X53121917Y-54925376D01*
X53189046Y-55000839D01*
X53210621Y-55033065D01*
X57719924Y-55033065D01*
X57865609Y-54869393D01*
X58156572Y-54429086D01*
X58367830Y-53962758D01*
X58500725Y-53466754D01*
X58556597Y-52937420D01*
X58543381Y-52472660D01*
X58056749Y-52472660D01*
X58007921Y-52813635D01*
X57897312Y-53130155D01*
X57732694Y-53414569D01*
X57521839Y-53659226D01*
X57272517Y-53856473D01*
X56992500Y-53998659D01*
X56689560Y-54078134D01*
X56371468Y-54087245D01*
X56088767Y-54032076D01*
X56040916Y-54020159D01*
X55491122Y-54020159D01*
X55348083Y-54262163D01*
X55252691Y-54423655D01*
X55156073Y-54587380D01*
X55099065Y-54684084D01*
X55031574Y-54788135D01*
X54977503Y-54853105D01*
X54959656Y-54864000D01*
X54924489Y-54830281D01*
X54857089Y-54739584D01*
X54768674Y-54607599D01*
X54709976Y-54514750D01*
X54656723Y-54428415D01*
X52635661Y-54428415D01*
X52587725Y-54385362D01*
X52499449Y-54294351D01*
X52386049Y-54171316D01*
X52342946Y-54123167D01*
X51603037Y-54123167D01*
X51585568Y-54130739D01*
X51562000Y-54102000D01*
X51526178Y-54024826D01*
X51520963Y-53996167D01*
X51538432Y-53988594D01*
X51562000Y-54017334D01*
X51597822Y-54094508D01*
X51603037Y-54123167D01*
X52342946Y-54123167D01*
X52324385Y-54102434D01*
X52212992Y-53974535D01*
X52142852Y-53890334D01*
X51519667Y-53890334D01*
X51504178Y-53925179D01*
X51491445Y-53918556D01*
X51486378Y-53868316D01*
X51491445Y-53862111D01*
X51516612Y-53867922D01*
X51519667Y-53890334D01*
X52142852Y-53890334D01*
X52129502Y-53874308D01*
X52085122Y-53815452D01*
X52081618Y-53805667D01*
X52116465Y-53835252D01*
X52194497Y-53915142D01*
X52303017Y-54032039D01*
X52392895Y-54131648D01*
X52507562Y-54262301D01*
X52591537Y-54362276D01*
X52635410Y-54420068D01*
X52635661Y-54428415D01*
X54656723Y-54428415D01*
X54613899Y-54358989D01*
X54533516Y-54227570D01*
X54480144Y-54139052D01*
X54466237Y-54115074D01*
X54472716Y-54058410D01*
X54511803Y-53944852D01*
X54576647Y-53792416D01*
X54637706Y-53664129D01*
X54730288Y-53482952D01*
X54797271Y-53367577D01*
X54847316Y-53306379D01*
X54889081Y-53287734D01*
X54914599Y-53292440D01*
X54971313Y-53337839D01*
X55061136Y-53436821D01*
X55169749Y-53572833D01*
X55241828Y-53670715D01*
X55491122Y-54020159D01*
X56040916Y-54020159D01*
X55934254Y-53993596D01*
X55790506Y-53971648D01*
X55726781Y-53969529D01*
X55630133Y-53961744D01*
X55571421Y-53908956D01*
X55537572Y-53838918D01*
X55483797Y-53737392D01*
X55395195Y-53598089D01*
X55289883Y-53449306D01*
X55278041Y-53433556D01*
X55182759Y-53303090D01*
X55111602Y-53196927D01*
X55077100Y-53134019D01*
X55075667Y-53127528D01*
X55085337Y-53092980D01*
X54778319Y-53092980D01*
X54676131Y-53227073D01*
X54606747Y-53332560D01*
X54526067Y-53476264D01*
X54445280Y-53635271D01*
X54375577Y-53786668D01*
X54328146Y-53907541D01*
X54313700Y-53969224D01*
X54291356Y-54004256D01*
X54213597Y-54010819D01*
X54133750Y-54002350D01*
X53955197Y-54000821D01*
X53760913Y-54033863D01*
X53742167Y-54039064D01*
X53451513Y-54080392D01*
X53129887Y-54046690D01*
X52922630Y-53989807D01*
X52624826Y-53847316D01*
X52518879Y-53762419D01*
X52065511Y-53762419D01*
X52063592Y-53763334D01*
X52027699Y-53738639D01*
X51473991Y-53738639D01*
X51466208Y-53793546D01*
X51451757Y-53794202D01*
X51441651Y-53737543D01*
X51448415Y-53713063D01*
X51467212Y-53697028D01*
X51473991Y-53738639D01*
X52027699Y-53738639D01*
X52023328Y-53735632D01*
X51952870Y-53667898D01*
X51943000Y-53657500D01*
X51882600Y-53587549D01*
X51862822Y-53552581D01*
X51864742Y-53551667D01*
X51905006Y-53579368D01*
X51975463Y-53647102D01*
X51985333Y-53657500D01*
X52045733Y-53727452D01*
X52065511Y-53762419D01*
X52518879Y-53762419D01*
X52364100Y-53638393D01*
X52234339Y-53481057D01*
X51850065Y-53481057D01*
X51849779Y-53508638D01*
X51842350Y-53509334D01*
X51807013Y-53480404D01*
X51768267Y-53435250D01*
X51731655Y-53385107D01*
X51753577Y-53395619D01*
X51784250Y-53419267D01*
X51850065Y-53481057D01*
X52234339Y-53481057D01*
X52147504Y-53375770D01*
X52103448Y-53294911D01*
X51678621Y-53294911D01*
X51672830Y-53297667D01*
X51634198Y-53267865D01*
X51625500Y-53255334D01*
X51614713Y-53215756D01*
X51620503Y-53213000D01*
X51659136Y-53242802D01*
X51667833Y-53255334D01*
X51678621Y-53294911D01*
X52103448Y-53294911D01*
X51982090Y-53072181D01*
X51874911Y-52740356D01*
X51833018Y-52393028D01*
X51858565Y-52068726D01*
X51905962Y-51891830D01*
X51987324Y-51671776D01*
X52091709Y-51431681D01*
X52208172Y-51194665D01*
X52276198Y-51072714D01*
X51761883Y-51072714D01*
X51745023Y-51138500D01*
X51703069Y-51257849D01*
X51663576Y-51359630D01*
X51586157Y-51573847D01*
X51514048Y-51808535D01*
X51460545Y-52019653D01*
X51452674Y-52058130D01*
X51420587Y-52283258D01*
X51398121Y-52558519D01*
X51386249Y-52853703D01*
X51385940Y-53138599D01*
X51398168Y-53382996D01*
X51407370Y-53467000D01*
X51420693Y-53574546D01*
X51419209Y-53604675D01*
X51401169Y-53563625D01*
X51389553Y-53530500D01*
X51368253Y-53433482D01*
X51347071Y-53277667D01*
X51329179Y-53088870D01*
X51321883Y-52980167D01*
X51316051Y-52649067D01*
X51341652Y-52346433D01*
X51369603Y-52176876D01*
X51420228Y-51952217D01*
X51487836Y-51712814D01*
X51564939Y-51480400D01*
X51644051Y-51276712D01*
X51717683Y-51123484D01*
X51749944Y-51072800D01*
X51761883Y-51072714D01*
X52276198Y-51072714D01*
X52325771Y-50983847D01*
X52433562Y-50822346D01*
X52468644Y-50779856D01*
X52599167Y-50634941D01*
X52836410Y-50890502D01*
X52953180Y-51021328D01*
X53014437Y-51104851D01*
X53026549Y-51151551D01*
X53005743Y-51169238D01*
X52671698Y-51316317D01*
X52408007Y-51506818D01*
X52210443Y-51744090D01*
X52153274Y-51844373D01*
X52101924Y-51957406D01*
X52070481Y-52068218D01*
X52054371Y-52203363D01*
X52049025Y-52389393D01*
X52048833Y-52451000D01*
X52062471Y-52730748D01*
X52109248Y-52953920D01*
X52197962Y-53145032D01*
X52337412Y-53328600D01*
X52380612Y-53375530D01*
X52615693Y-53565051D01*
X52891836Y-53691616D01*
X53192273Y-53754108D01*
X53500232Y-53751406D01*
X53798942Y-53682391D01*
X54071632Y-53545946D01*
X54143974Y-53493191D01*
X54300116Y-53344742D01*
X54440543Y-53166991D01*
X54482056Y-53096180D01*
X54203723Y-53096180D01*
X54200198Y-53121034D01*
X54141433Y-53189958D01*
X54106591Y-53226912D01*
X53976483Y-53343346D01*
X53834952Y-53439159D01*
X53708535Y-53497854D01*
X53653839Y-53508370D01*
X53611573Y-53474019D01*
X53549164Y-53384010D01*
X53495089Y-53286476D01*
X53433231Y-53149343D01*
X53392275Y-53030047D01*
X53382333Y-52973505D01*
X53409616Y-52883431D01*
X53480517Y-52855341D01*
X53578615Y-52891519D01*
X53636616Y-52938104D01*
X53775148Y-53034266D01*
X53939673Y-53096827D01*
X54095803Y-53114767D01*
X54156371Y-53104689D01*
X54203723Y-53096180D01*
X54482056Y-53096180D01*
X54545872Y-52987328D01*
X54591987Y-52859975D01*
X54618979Y-52737082D01*
X54778319Y-53092980D01*
X55085337Y-53092980D01*
X55092570Y-53067142D01*
X55134437Y-52966221D01*
X55146834Y-52939634D01*
X55218001Y-52790396D01*
X55339048Y-53042602D01*
X55508300Y-53305197D01*
X55728384Y-53510324D01*
X55986480Y-53656345D01*
X56269767Y-53741620D01*
X56565426Y-53764510D01*
X56860635Y-53723374D01*
X57142574Y-53616575D01*
X57398424Y-53442472D01*
X57519841Y-53321463D01*
X57697023Y-53059529D01*
X57716144Y-53007164D01*
X57491164Y-53007164D01*
X57361993Y-53170255D01*
X57271068Y-53260183D01*
X57141852Y-53359008D01*
X56999060Y-53450971D01*
X56867407Y-53520314D01*
X56771610Y-53551278D01*
X56763795Y-53551667D01*
X56730459Y-53519917D01*
X56548046Y-53519917D01*
X56529844Y-53545762D01*
X56452924Y-53551502D01*
X56340291Y-53539159D01*
X56214951Y-53510759D01*
X56134857Y-53483570D01*
X56026668Y-53432487D01*
X55977452Y-53376686D01*
X55964797Y-53288114D01*
X55964667Y-53270544D01*
X55988233Y-53097906D01*
X56049583Y-52931584D01*
X56134689Y-52807727D01*
X56149403Y-52794408D01*
X56231172Y-52768207D01*
X56307511Y-52810327D01*
X56362196Y-52905111D01*
X56379533Y-53016458D01*
X56406301Y-53176261D01*
X56483034Y-53384150D01*
X56548046Y-53519917D01*
X56730459Y-53519917D01*
X56728243Y-53517807D01*
X56666625Y-53429669D01*
X56602774Y-53324264D01*
X56509927Y-53135261D01*
X56473389Y-52994059D01*
X56493490Y-52905477D01*
X56570561Y-52874339D01*
X56571939Y-52874334D01*
X56675505Y-52904769D01*
X56747995Y-52959179D01*
X56888952Y-53057467D01*
X57069778Y-53103939D01*
X57259095Y-53092528D01*
X57327816Y-53071328D01*
X57491164Y-53007164D01*
X57716144Y-53007164D01*
X57804086Y-52766333D01*
X57827627Y-52569342D01*
X57613436Y-52569342D01*
X57600640Y-52726705D01*
X57591693Y-52768727D01*
X57536614Y-52841499D01*
X57427104Y-52913996D01*
X57292066Y-52970973D01*
X57160401Y-52997182D01*
X57158481Y-52997267D01*
X57051489Y-52980743D01*
X56936231Y-52936746D01*
X56851359Y-52887077D01*
X56811721Y-52852492D01*
X56811333Y-52850590D01*
X56838489Y-52782586D01*
X56901128Y-52700196D01*
X56968179Y-52638934D01*
X56145581Y-52638934D01*
X56087931Y-52729548D01*
X55958669Y-52892693D01*
X55888281Y-53082243D01*
X55880000Y-53168565D01*
X55867299Y-53267143D01*
X55827198Y-53289243D01*
X55756698Y-53234694D01*
X55692964Y-53157805D01*
X55562928Y-52958375D01*
X55486142Y-52776478D01*
X55464639Y-52623186D01*
X55500451Y-52509569D01*
X55564492Y-52457795D01*
X55598995Y-52448244D01*
X54440667Y-52448244D01*
X54416194Y-52688368D01*
X54346514Y-52864045D01*
X54237234Y-52971409D01*
X54093959Y-53006594D01*
X53922298Y-52965732D01*
X53794327Y-52893974D01*
X53699336Y-52822884D01*
X53643005Y-52768089D01*
X53636333Y-52754274D01*
X53673887Y-52683569D01*
X53767592Y-52633722D01*
X53858569Y-52620334D01*
X54045002Y-52581246D01*
X54209786Y-52475916D01*
X54299106Y-52366550D01*
X54366286Y-52269429D01*
X54410056Y-52250181D01*
X54433740Y-52310726D01*
X54440667Y-52448244D01*
X55598995Y-52448244D01*
X55677120Y-52426618D01*
X55821098Y-52411483D01*
X55961133Y-52413548D01*
X56061930Y-52433967D01*
X56075378Y-52441065D01*
X56143957Y-52529390D01*
X56145581Y-52638934D01*
X56968179Y-52638934D01*
X56971004Y-52636353D01*
X57008805Y-52620334D01*
X57148218Y-52582474D01*
X57285398Y-52483245D01*
X57400870Y-52344170D01*
X57475160Y-52186771D01*
X57492105Y-52086170D01*
X57494742Y-51992566D01*
X57398510Y-51992566D01*
X57387139Y-52083102D01*
X57345302Y-52199402D01*
X57272638Y-52309563D01*
X57183207Y-52403089D01*
X57091071Y-52469486D01*
X57010288Y-52498261D01*
X56954918Y-52478919D01*
X56938333Y-52418086D01*
X56914863Y-52328012D01*
X56869770Y-52244952D01*
X56825061Y-52150608D01*
X56825718Y-52147128D01*
X56285511Y-52147128D01*
X56269231Y-52201546D01*
X56232421Y-52253918D01*
X56161794Y-52323932D01*
X56087443Y-52328869D01*
X56057204Y-52318945D01*
X55943756Y-52292264D01*
X55816500Y-52281667D01*
X55678647Y-52294888D01*
X55561837Y-52324252D01*
X55486899Y-52347949D01*
X55463408Y-52326644D01*
X55475764Y-52242492D01*
X55478565Y-52229002D01*
X55521469Y-52098095D01*
X55538832Y-52061159D01*
X54300382Y-52061159D01*
X54297907Y-52074715D01*
X54224464Y-52266258D01*
X54097830Y-52415160D01*
X53998182Y-52476690D01*
X53864288Y-52520155D01*
X53779555Y-52502208D01*
X53728556Y-52416177D01*
X53712426Y-52353114D01*
X53702642Y-52192760D01*
X53746995Y-52060663D01*
X53795371Y-51896325D01*
X53796492Y-51705943D01*
X53793753Y-51672905D01*
X53672136Y-51672905D01*
X53669363Y-51872895D01*
X53637010Y-52004721D01*
X53592735Y-52081809D01*
X53523234Y-52095732D01*
X53478260Y-52087365D01*
X53366981Y-52035332D01*
X53297667Y-51970608D01*
X53133955Y-51771890D01*
X52980221Y-51654221D01*
X52884917Y-51620103D01*
X52781264Y-51612772D01*
X52752023Y-51637767D01*
X52798409Y-51684864D01*
X52872599Y-51723780D01*
X52979509Y-51797957D01*
X53075958Y-51906365D01*
X53085665Y-51921291D01*
X53173465Y-52063354D01*
X53060911Y-52175907D01*
X52976279Y-52244399D01*
X52876924Y-52281174D01*
X52730627Y-52297208D01*
X52700888Y-52298575D01*
X52507452Y-52325771D01*
X52366877Y-52385436D01*
X52291298Y-52471148D01*
X52281667Y-52520439D01*
X52302227Y-52546247D01*
X52371367Y-52520564D01*
X52419250Y-52492870D01*
X52563895Y-52433976D01*
X52724179Y-52408868D01*
X52729647Y-52408825D01*
X52842534Y-52415218D01*
X52902231Y-52449012D01*
X52940006Y-52531717D01*
X52948772Y-52559560D01*
X52972450Y-52666544D01*
X52957202Y-52751809D01*
X52895118Y-52857750D01*
X52892374Y-52861800D01*
X52804655Y-53059342D01*
X52789667Y-53197741D01*
X52799090Y-53327295D01*
X52822518Y-53376078D01*
X52852692Y-53345270D01*
X52882351Y-53236054D01*
X52891031Y-53181250D01*
X52923765Y-53037666D01*
X52973380Y-52914735D01*
X52994067Y-52882065D01*
X53058953Y-52815821D01*
X53125883Y-52812710D01*
X53178633Y-52833688D01*
X53249388Y-52881276D01*
X53287777Y-52959113D01*
X53307150Y-53085131D01*
X53341834Y-53247760D01*
X53404111Y-53393326D01*
X53420816Y-53419258D01*
X53515099Y-53551667D01*
X53305719Y-53551667D01*
X53147016Y-53538923D01*
X52997189Y-53506912D01*
X52953587Y-53491488D01*
X52752744Y-53373600D01*
X52561645Y-53204228D01*
X52411946Y-53012997D01*
X52378697Y-52953511D01*
X52279095Y-52694098D01*
X52252972Y-52449616D01*
X52298059Y-52197171D01*
X52302384Y-52183162D01*
X52431964Y-51898971D01*
X52620321Y-51674074D01*
X52861559Y-51513119D01*
X53149781Y-51420756D01*
X53291744Y-51402917D01*
X53443564Y-51393933D01*
X53533356Y-51398318D01*
X53583453Y-51422230D01*
X53616186Y-51471830D01*
X53627243Y-51495454D01*
X53672136Y-51672905D01*
X53793753Y-51672905D01*
X53777982Y-51482734D01*
X53890256Y-51540793D01*
X53982919Y-51605631D01*
X54096947Y-51707867D01*
X54162411Y-51775822D01*
X54256978Y-51890875D01*
X54299004Y-51977242D01*
X54300382Y-52061159D01*
X55538832Y-52061159D01*
X55592972Y-51945988D01*
X55675761Y-51805037D01*
X55752521Y-51707593D01*
X55762244Y-51698895D01*
X55846612Y-51678865D01*
X55957026Y-51719060D01*
X56074638Y-51807924D01*
X56180599Y-51933899D01*
X56202463Y-51968816D01*
X56264293Y-52079421D01*
X56285511Y-52147128D01*
X56825718Y-52147128D01*
X56842989Y-52055791D01*
X56848604Y-52043040D01*
X56884409Y-51907822D01*
X56893652Y-51752569D01*
X56766380Y-51752569D01*
X56740805Y-51966498D01*
X56730397Y-51996689D01*
X56677245Y-52072907D01*
X56579828Y-52097821D01*
X56558325Y-52098222D01*
X56461062Y-52083819D01*
X56393719Y-52025791D01*
X56347432Y-51946528D01*
X56218549Y-51754752D01*
X56061490Y-51635760D01*
X56010999Y-51614097D01*
X55953489Y-51588841D01*
X55952462Y-51564757D01*
X56016060Y-51527224D01*
X56075369Y-51498495D01*
X56221295Y-51446618D01*
X56393675Y-51409123D01*
X56456283Y-51401532D01*
X56584350Y-51393568D01*
X56654552Y-51405808D01*
X56693282Y-51450191D01*
X56720866Y-51521223D01*
X56766380Y-51752569D01*
X56893652Y-51752569D01*
X56894196Y-51743449D01*
X56877687Y-51591056D01*
X56852177Y-51516884D01*
X56833750Y-51450245D01*
X56875296Y-51436800D01*
X56971789Y-51475490D01*
X57118204Y-51565252D01*
X57134794Y-51576581D01*
X57293349Y-51707716D01*
X57378187Y-51840220D01*
X57398510Y-51992566D01*
X57494742Y-51992566D01*
X57495543Y-51964167D01*
X57553696Y-52091167D01*
X57587924Y-52215195D01*
X57608518Y-52386713D01*
X57613436Y-52569342D01*
X57827627Y-52569342D01*
X57840997Y-52457467D01*
X57807726Y-52148517D01*
X57704240Y-51855075D01*
X57530508Y-51592729D01*
X57523354Y-51584528D01*
X57314239Y-51395879D01*
X57064241Y-51246153D01*
X56836094Y-51163329D01*
X56712688Y-51133545D01*
X56836094Y-51057947D01*
X56931956Y-50985265D01*
X57052465Y-50875329D01*
X57143255Y-50782123D01*
X57239045Y-50681609D01*
X57309868Y-50614534D01*
X57339332Y-50595699D01*
X57365564Y-50635811D01*
X57424404Y-50730236D01*
X57504599Y-50860867D01*
X57530359Y-50903127D01*
X57714927Y-51234456D01*
X57867036Y-51564237D01*
X57978025Y-51871709D01*
X58036026Y-52114882D01*
X58056749Y-52472660D01*
X58543381Y-52472660D01*
X58542163Y-52429834D01*
X58456606Y-51910439D01*
X58294007Y-51417695D01*
X58059450Y-50957666D01*
X57758018Y-50536421D01*
X57394797Y-50160027D01*
X56974871Y-49834550D01*
X56503323Y-49566057D01*
X55985239Y-49360617D01*
X55964667Y-49354124D01*
X55717057Y-49298630D01*
X55412219Y-49263964D01*
X55074999Y-49250165D01*
X54730245Y-49257273D01*
X54402801Y-49285327D01*
X54117515Y-49334365D01*
X54051265Y-49351118D01*
X53549401Y-49524810D01*
X53082855Y-49757149D01*
X52662616Y-50040679D01*
X52299671Y-50367942D01*
X52005009Y-50731478D01*
X51994522Y-50747084D01*
X51907034Y-50873268D01*
X51848823Y-50947670D01*
X51825089Y-50965805D01*
X51841032Y-50923190D01*
X51887690Y-50839207D01*
X52038284Y-50621321D01*
X52239906Y-50384117D01*
X52470589Y-50151178D01*
X52708367Y-49946083D01*
X52748178Y-49915483D01*
X53225130Y-49605995D01*
X53727581Y-49375916D01*
X54251530Y-49226479D01*
X54792976Y-49158917D01*
X55194724Y-49161864D01*
X55742534Y-49236559D01*
X56263042Y-49388058D01*
X56749882Y-49611126D01*
X57196688Y-49900529D01*
X57597093Y-50251032D01*
X57944730Y-50657401D01*
X58233233Y-51114402D01*
X58456235Y-51616801D01*
X58551694Y-51921834D01*
X58596741Y-52117640D01*
X58624882Y-52317082D01*
X58639081Y-52548500D01*
X58642400Y-52789667D01*
X59253462Y-52789667D01*
X59243153Y-52311566D01*
X59158575Y-51746915D01*
X59000591Y-51215035D01*
X58767323Y-50708246D01*
X58679355Y-50554911D01*
X58532291Y-50278883D01*
X58438887Y-50017565D01*
X58390324Y-49738427D01*
X58377667Y-49442104D01*
X58372555Y-49254018D01*
X58352592Y-49145251D01*
X58310837Y-49110824D01*
X58240348Y-49145759D01*
X58134185Y-49245078D01*
X58121388Y-49258308D01*
X58009655Y-49370321D01*
X57923161Y-49433670D01*
X57841748Y-49448043D01*
X57745260Y-49413125D01*
X57613540Y-49328603D01*
X57501913Y-49248674D01*
X56989381Y-48928896D01*
X56443817Y-48683714D01*
X55873761Y-48514701D01*
X55287754Y-48423429D01*
X54694335Y-48411471D01*
X54102046Y-48480400D01*
X53758131Y-48559222D01*
X53489119Y-48649128D01*
X53184133Y-48777863D01*
X52869648Y-48932047D01*
X52572138Y-49098303D01*
X52318076Y-49263252D01*
X52223342Y-49334802D01*
X52082719Y-49446104D01*
X51989412Y-49511292D01*
X51925381Y-49538075D01*
X51872584Y-49534165D01*
X51816058Y-49508863D01*
X51726836Y-49451802D01*
X51600511Y-49357709D01*
X51463067Y-49246024D01*
X51451049Y-49235782D01*
X51328933Y-49134553D01*
X51230795Y-49059280D01*
X51174571Y-49023573D01*
X51169849Y-49022376D01*
X51165205Y-49055919D01*
X51192038Y-49140576D01*
X51209100Y-49180750D01*
X51240956Y-49270224D01*
X51260859Y-49380608D01*
X51270414Y-49530157D01*
X51271224Y-49737126D01*
X51268982Y-49862077D01*
X51263122Y-50082502D01*
X51254335Y-50238968D01*
X51238407Y-50352173D01*
X51211126Y-50442814D01*
X51168280Y-50531590D01*
X51113505Y-50626034D01*
X50902687Y-51050379D01*
X50739612Y-51527965D01*
X50629457Y-52038839D01*
X50577398Y-52563052D01*
X50573970Y-52705000D01*
X50588472Y-53162916D01*
X50642990Y-53577882D01*
X50742965Y-53984232D01*
X50808825Y-54186667D01*
X51046269Y-54744224D01*
X51351708Y-55254239D01*
X51720455Y-55712590D01*
X52147822Y-56115156D01*
X52629118Y-56457816D01*
X53159657Y-56736449D01*
X53734750Y-56946933D01*
X54038500Y-57025549D01*
X54169304Y-57048348D01*
X54356777Y-57072647D01*
X54573061Y-57095128D01*
X54737000Y-57108766D01*
X55223833Y-57144412D01*
X54650004Y-57126756D01*
X54322958Y-57110446D01*
X54047946Y-57081224D01*
X53792805Y-57035074D01*
X53655171Y-57002511D01*
X53293920Y-56892407D01*
X53206539Y-56857323D01*
X51011667Y-56857323D01*
X50973690Y-56963789D01*
X50875383Y-57065752D01*
X50740179Y-57146387D01*
X50591515Y-57188868D01*
X50546000Y-57191659D01*
X50501890Y-57184393D01*
X50522860Y-57159142D01*
X50614944Y-57110408D01*
X50656844Y-57090616D01*
X50791555Y-57016167D01*
X50901325Y-56935020D01*
X50942594Y-56891110D01*
X50993168Y-56833143D01*
X51011511Y-56851208D01*
X51011667Y-56857323D01*
X53206539Y-56857323D01*
X52939855Y-56750248D01*
X52618738Y-56587667D01*
X52356332Y-56416300D01*
X52355071Y-56415334D01*
X52272186Y-56354942D01*
X52193087Y-56308958D01*
X52101155Y-56272260D01*
X51979767Y-56239729D01*
X51812303Y-56206243D01*
X51588605Y-56167794D01*
X48810211Y-56167794D01*
X48776256Y-56203002D01*
X48692276Y-56257801D01*
X48584845Y-56317851D01*
X48480538Y-56368812D01*
X48405929Y-56396344D01*
X48387000Y-56396164D01*
X48402147Y-56363537D01*
X48468257Y-56309479D01*
X48468537Y-56309289D01*
X48578144Y-56243677D01*
X48687166Y-56191402D01*
X48772223Y-56162144D01*
X48809937Y-56165585D01*
X48810211Y-56167794D01*
X51588605Y-56167794D01*
X51582141Y-56166683D01*
X51508404Y-56154512D01*
X51212489Y-56108851D01*
X50873406Y-56061232D01*
X48073916Y-56061232D01*
X48066191Y-56091811D01*
X48017204Y-56121041D01*
X47912666Y-56158396D01*
X47784462Y-56198924D01*
X47628067Y-56240432D01*
X47500731Y-56249574D01*
X47377130Y-56221336D01*
X47231938Y-56150701D01*
X47082622Y-56059917D01*
X46896978Y-55933348D01*
X46702462Y-55786471D01*
X46538011Y-55648842D01*
X46522976Y-55635118D01*
X46396551Y-55513194D01*
X46318350Y-55417131D01*
X46271442Y-55318721D01*
X46238900Y-55189756D01*
X46230807Y-55148285D01*
X46200760Y-54996542D01*
X46173552Y-54870092D01*
X46158081Y-54807450D01*
X46151731Y-54754509D01*
X46193790Y-54761616D01*
X46218365Y-54774177D01*
X46288265Y-54800653D01*
X46422814Y-54842659D01*
X46604559Y-54895047D01*
X46816046Y-54952670D01*
X46885969Y-54971066D01*
X47106182Y-55030430D01*
X47304969Y-55087580D01*
X47463881Y-55136957D01*
X47564466Y-55173002D01*
X47580135Y-55180191D01*
X47674799Y-55268818D01*
X47777983Y-55441305D01*
X47824493Y-55540147D01*
X47959244Y-55843423D01*
X47823872Y-55814304D01*
X47500074Y-55732703D01*
X47185856Y-55631647D01*
X46906666Y-55520189D01*
X46699126Y-55414156D01*
X46564638Y-55338146D01*
X46459518Y-55287194D01*
X46402985Y-55270411D01*
X46399198Y-55271959D01*
X46410316Y-55314417D01*
X46483150Y-55385198D01*
X46603902Y-55474344D01*
X46758768Y-55571898D01*
X46933949Y-55667904D01*
X46979427Y-55690559D01*
X47236549Y-55810935D01*
X47438084Y-55892285D01*
X47600628Y-55939831D01*
X47740780Y-55958792D01*
X47830080Y-55958125D01*
X47961896Y-55960966D01*
X48034997Y-55993770D01*
X48054674Y-56019833D01*
X48073916Y-56061232D01*
X50873406Y-56061232D01*
X50872572Y-56061115D01*
X50528988Y-56016720D01*
X50222071Y-55981084D01*
X50198896Y-55978625D01*
X50140745Y-55972347D01*
X48869217Y-55972347D01*
X48833323Y-56006998D01*
X48832888Y-56007000D01*
X48812815Y-55970301D01*
X48774536Y-55874188D01*
X48727368Y-55742417D01*
X48665568Y-55499684D01*
X48626668Y-55211455D01*
X48619154Y-55096834D01*
X48601678Y-54715834D01*
X48660453Y-55118000D01*
X48696641Y-55322320D01*
X48742553Y-55520964D01*
X48790223Y-55680990D01*
X48807249Y-55725074D01*
X48860256Y-55875397D01*
X48869217Y-55972347D01*
X50140745Y-55972347D01*
X49949034Y-55951650D01*
X49772190Y-55929986D01*
X49657085Y-55911016D01*
X49592442Y-55892122D01*
X49566983Y-55870684D01*
X49569432Y-55844085D01*
X49574479Y-55833658D01*
X49614281Y-55711687D01*
X49615925Y-55558221D01*
X49577313Y-55365780D01*
X49496349Y-55126888D01*
X49370937Y-54834066D01*
X49198980Y-54479836D01*
X49189861Y-54461834D01*
X49082982Y-54247130D01*
X48996923Y-54061619D01*
X48924623Y-53885758D01*
X48859024Y-53700004D01*
X48793069Y-53484814D01*
X48719699Y-53220644D01*
X48659253Y-52992703D01*
X48591408Y-52733040D01*
X48531497Y-52501768D01*
X48482655Y-52311148D01*
X48448016Y-52173443D01*
X48430714Y-52100917D01*
X48429333Y-52093120D01*
X48397706Y-52070096D01*
X48394536Y-52070000D01*
X48374803Y-52109086D01*
X48349708Y-52214348D01*
X48323066Y-52367797D01*
X48306995Y-52482750D01*
X48274473Y-52717787D01*
X48233106Y-52989540D01*
X48190067Y-53251586D01*
X48174579Y-53340000D01*
X48093562Y-53835069D01*
X48036114Y-54281966D01*
X48002813Y-54673183D01*
X47994239Y-55001216D01*
X48010971Y-55258558D01*
X48021533Y-55323561D01*
X48057288Y-55507955D01*
X47881712Y-55332378D01*
X47791793Y-55231736D01*
X47719156Y-55119898D01*
X47652146Y-54974668D01*
X47579107Y-54773849D01*
X47562615Y-54724651D01*
X47358929Y-53980874D01*
X47239160Y-53231866D01*
X47203028Y-52481327D01*
X47250254Y-51732953D01*
X47380560Y-50990444D01*
X47593667Y-50257497D01*
X47889296Y-49537812D01*
X47965278Y-49381834D01*
X48092551Y-49142115D01*
X48241635Y-48883173D01*
X48392396Y-48638994D01*
X48504530Y-48471667D01*
X48721985Y-48190724D01*
X48991045Y-47884025D01*
X49291937Y-47571347D01*
X49604883Y-47272464D01*
X49910108Y-47007152D01*
X50165000Y-46811197D01*
X50754008Y-46440388D01*
X51398895Y-46118876D01*
X52081787Y-45854378D01*
X52784808Y-45654612D01*
X52907171Y-45627185D01*
X53073826Y-45593433D01*
X53227265Y-45568412D01*
X53384813Y-45550904D01*
X53563792Y-45539690D01*
X53781523Y-45533553D01*
X54055331Y-45531276D01*
X54271333Y-45531288D01*
X54594599Y-45533092D01*
X54850531Y-45537908D01*
X55056442Y-45546981D01*
X55229647Y-45561556D01*
X55387460Y-45582877D01*
X55547195Y-45612190D01*
X55626000Y-45628682D01*
X56377443Y-45831629D01*
X57093165Y-46107465D01*
X57768640Y-46452099D01*
X58399339Y-46861444D01*
X58980738Y-47331412D01*
X59508308Y-47857915D01*
X59977522Y-48436863D01*
X60383854Y-49064170D01*
X60722776Y-49735745D01*
X60989762Y-50447502D01*
X61000657Y-50482500D01*
X61104310Y-50846495D01*
X61180640Y-51186733D01*
X61233764Y-51529968D01*
X61267795Y-51902951D01*
X61286850Y-52332435D01*
X61287199Y-52345167D01*
X61293639Y-52647101D01*
X61293738Y-52888140D01*
X63531418Y-52888140D01*
X63520390Y-52621684D01*
X63491178Y-52269167D01*
X63476550Y-52151597D01*
X63318504Y-51315735D01*
X63084052Y-50510586D01*
X62777085Y-49740024D01*
X62401499Y-49007924D01*
X61961186Y-48318160D01*
X61460039Y-47674607D01*
X60901952Y-47081140D01*
X60290819Y-46541633D01*
X59630533Y-46059961D01*
X58924987Y-45639998D01*
X58178074Y-45285619D01*
X57393689Y-45000698D01*
X56575724Y-44789110D01*
X55973795Y-44685122D01*
X55692359Y-44655695D01*
X55354138Y-44635022D01*
X54983571Y-44623332D01*
X54605097Y-44620858D01*
X54243154Y-44627829D01*
X54243154Y-44627829D01*
G37*
X54243154Y-44627829D02*
X53922181Y-44644477D01*
X53719890Y-44663840D01*
X52875407Y-44810521D01*
X52049863Y-45037214D01*
X51250645Y-45340825D01*
X50485137Y-45718260D01*
X49760725Y-46166426D01*
X49276000Y-46525378D01*
X49066151Y-46703185D01*
X48825919Y-46924109D01*
X48572664Y-47170606D01*
X48323748Y-47425133D01*
X48096531Y-47670144D01*
X47908375Y-47888095D01*
X47831792Y-47984834D01*
X47335405Y-48701326D01*
X46919844Y-49436796D01*
X46582106Y-50198346D01*
X46319187Y-50993075D01*
X46128085Y-51828087D01*
X46077258Y-52133500D01*
X46049137Y-52376133D01*
X46027931Y-52673080D01*
X46013902Y-53003341D01*
X46007317Y-53345914D01*
X46008439Y-53679800D01*
X46017534Y-53983998D01*
X46034866Y-54237508D01*
X46049246Y-54356000D01*
X46069241Y-54497466D01*
X46080797Y-54600602D01*
X46081503Y-54642263D01*
X46047506Y-54622570D01*
X45968588Y-54560220D01*
X45874710Y-54479915D01*
X45767136Y-54388557D01*
X45707380Y-54349921D01*
X45682079Y-54358201D01*
X45677667Y-54394282D01*
X45703733Y-54539790D01*
X45775764Y-54729302D01*
X45884512Y-54942638D01*
X46020727Y-55159615D01*
X46042816Y-55191031D01*
X46136777Y-55337889D01*
X46250417Y-55538822D01*
X46370816Y-55769764D01*
X46485055Y-56006652D01*
X46509386Y-56060080D01*
X46908943Y-56901962D01*
X47316033Y-57667735D01*
X47729540Y-58355648D01*
X48148350Y-58963950D01*
X48571348Y-59490891D01*
X48943148Y-59882994D01*
X49318789Y-60211764D01*
X49761667Y-60540566D01*
X50255105Y-60858193D01*
X50782422Y-61153438D01*
X50990500Y-61258551D01*
X51658134Y-61555047D01*
X52317374Y-61782700D01*
X52995258Y-61949560D01*
X53677556Y-62058658D01*
X53865161Y-62074837D01*
X54116278Y-62086519D01*
X54410726Y-62093718D01*
X54728319Y-62096451D01*
X55048873Y-62094731D01*
X55352206Y-62088575D01*
X55618133Y-62077998D01*
X55826470Y-62063015D01*
X55880000Y-62056997D01*
X56619078Y-61926516D01*
X57366654Y-61726604D01*
X58101721Y-61464705D01*
X58803271Y-61148263D01*
X59424161Y-60801050D01*
X60122260Y-60317955D01*
X60766242Y-59772413D01*
X61352594Y-59169823D01*
X61617098Y-58840338D01*
X57361667Y-58840338D01*
X57324279Y-58869192D01*
X57222464Y-58919668D01*
X57071747Y-58985528D01*
X56887653Y-59060533D01*
X56685707Y-59138443D01*
X56481433Y-59213020D01*
X56290355Y-59278026D01*
X56207982Y-59303967D01*
X55588001Y-59454704D01*
X54926595Y-59545069D01*
X54243136Y-59573610D01*
X53556996Y-59538881D01*
X53361167Y-59516880D01*
X52612789Y-59379868D01*
X51888164Y-59162606D01*
X51191725Y-58867274D01*
X50527907Y-58496057D01*
X49901142Y-58051136D01*
X49315864Y-57534693D01*
X49297460Y-57516607D01*
X48789167Y-57015380D01*
X48921827Y-56951703D01*
X48651729Y-56951703D01*
X48651605Y-56951777D01*
X48597868Y-56968799D01*
X48483163Y-56997706D01*
X48329397Y-57033065D01*
X48281167Y-57043633D01*
X47980310Y-57118578D01*
X47755701Y-57196131D01*
X47610761Y-57275000D01*
X47571840Y-57311298D01*
X47528401Y-57350928D01*
X47507781Y-57315223D01*
X47504191Y-57298070D01*
X47516075Y-57228556D01*
X47560344Y-57105408D01*
X47628993Y-56949403D01*
X47673525Y-56858533D01*
X47772264Y-56677369D01*
X47877419Y-56505565D01*
X47971354Y-56371289D01*
X48001284Y-56335013D01*
X48086787Y-56242209D01*
X48136915Y-56205677D01*
X48172296Y-56218185D01*
X48206867Y-56262955D01*
X48234044Y-56311831D01*
X48231181Y-56358253D01*
X48188755Y-56419045D01*
X48097244Y-56511036D01*
X48031666Y-56572536D01*
X47894103Y-56710946D01*
X47812965Y-56813537D01*
X47787898Y-56874520D01*
X47818548Y-56888108D01*
X47904561Y-56848513D01*
X48042661Y-56752199D01*
X48169261Y-56657472D01*
X48272323Y-56585261D01*
X48331537Y-56549726D01*
X48334584Y-56548641D01*
X48379579Y-56571369D01*
X48450199Y-56640462D01*
X48529583Y-56734481D01*
X48600872Y-56831986D01*
X48647207Y-56911540D01*
X48651729Y-56951703D01*
X48921827Y-56951703D01*
X48979667Y-56923940D01*
X49148241Y-56811741D01*
X49233667Y-56697707D01*
X49285457Y-56610470D01*
X49351999Y-56558912D01*
X49450161Y-56539621D01*
X49596812Y-56549181D01*
X49801401Y-56582801D01*
X50017693Y-56623411D01*
X50160706Y-56653353D01*
X50240443Y-56677222D01*
X50266905Y-56699610D01*
X50250094Y-56725112D01*
X50200011Y-56758321D01*
X50192915Y-56762633D01*
X50114130Y-56818808D01*
X50080355Y-56859497D01*
X50080333Y-56860075D01*
X50048369Y-56896384D01*
X49962970Y-56968529D01*
X49839878Y-57063530D01*
X49781012Y-57106915D01*
X49624413Y-57227091D01*
X49541280Y-57314921D01*
X49533646Y-57381740D01*
X49603541Y-57438878D01*
X49752998Y-57497669D01*
X49857031Y-57530866D01*
X50177019Y-57599037D01*
X50485684Y-57607236D01*
X50770627Y-57558906D01*
X51019447Y-57457492D01*
X51219744Y-57306439D01*
X51356659Y-57114282D01*
X51417602Y-57002920D01*
X51470311Y-56953232D01*
X51536360Y-56947645D01*
X51557114Y-56951011D01*
X51602169Y-56959224D01*
X51676590Y-56972507D01*
X51786817Y-56991989D01*
X51939288Y-57018797D01*
X52140442Y-57054061D01*
X52396720Y-57098907D01*
X52714558Y-57154466D01*
X53100398Y-57221864D01*
X53560676Y-57302231D01*
X53763333Y-57337608D01*
X54039145Y-57390746D01*
X54359582Y-57460342D01*
X54688308Y-57538081D01*
X54988987Y-57615648D01*
X55041476Y-57630107D01*
X55311463Y-57707978D01*
X55531995Y-57779372D01*
X55728879Y-57854840D01*
X55927918Y-57944932D01*
X56154919Y-58060200D01*
X56353810Y-58166683D01*
X56658764Y-58336663D01*
X56917187Y-58490265D01*
X57122573Y-58623139D01*
X57268414Y-58730937D01*
X57348204Y-58809308D01*
X57361667Y-58840338D01*
X61617098Y-58840338D01*
X61877805Y-58515585D01*
X62338363Y-57815097D01*
X62730756Y-57073758D01*
X63051472Y-56296967D01*
X63297001Y-55490123D01*
X63463829Y-54658626D01*
X63476550Y-54570737D01*
X63510638Y-54243469D01*
X63532065Y-53858708D01*
X63540833Y-53442676D01*
X63536941Y-53021594D01*
X63531418Y-52888140D01*
X61293738Y-52888140D01*
X61286188Y-53091906D01*
X61269680Y-53282019D01*
X61242906Y-53482101D01*
X61214526Y-53657500D01*
X61095760Y-54215047D01*
X60930617Y-54778984D01*
X60729886Y-55315302D01*
X60592353Y-55618904D01*
X60500355Y-55795282D01*
X60384899Y-55999330D01*
X60255741Y-56215631D01*
X60122638Y-56428770D01*
X59995346Y-56623330D01*
X59883623Y-56783895D01*
X59797226Y-56895048D01*
X59761520Y-56931678D01*
X59716359Y-56949457D01*
X59626843Y-56959474D01*
X59483510Y-56961823D01*
X59276901Y-56956597D01*
X58997554Y-56943889D01*
X58923066Y-56939974D01*
X58355683Y-56913237D01*
X57869973Y-56898268D01*
X57463759Y-56895082D01*
X57134868Y-56903692D01*
X56881124Y-56924114D01*
X56705500Y-56955027D01*
X56487833Y-57001906D01*
X56229289Y-57044283D01*
X55961515Y-57078098D01*
X55716158Y-57099290D01*
X55542444Y-57104248D01*
X55476800Y-57099644D01*
X55478369Y-57088291D01*
X55551938Y-57068656D01*
X55702295Y-57039204D01*
X55799871Y-57021706D01*
X56088150Y-56965366D01*
X56326177Y-56903037D01*
X56542456Y-56824058D01*
X56765494Y-56717771D01*
X57023798Y-56573516D01*
X57068257Y-56547408D01*
X57585908Y-56197991D01*
X58034776Y-55800274D01*
X58417516Y-55351395D01*
X58736784Y-54848495D01*
X58847505Y-54631167D01*
X59010600Y-54255504D01*
X59126553Y-53901196D01*
X59202381Y-53538812D01*
X59245099Y-53138921D01*
X59256200Y-52916667D01*
X59253462Y-52789667D01*
X58642400Y-52789667D01*
X58625624Y-53207085D01*
X58570905Y-53576204D01*
X58471652Y-53927375D01*
X58321278Y-54290945D01*
X58312339Y-54309910D01*
X58041868Y-54783631D01*
X57703767Y-55212685D01*
X57306429Y-55589671D01*
X56858248Y-55907190D01*
X56367616Y-56157843D01*
X56102777Y-56257871D01*
X55679718Y-56364598D01*
X55219299Y-56419985D01*
X54752826Y-56422221D01*
X54311606Y-56369498D01*
X54280132Y-56363222D01*
X53750561Y-56212720D01*
X53251696Y-55988460D01*
X52791965Y-55696806D01*
X52379793Y-55344123D01*
X52023609Y-54936775D01*
X51731838Y-54481129D01*
X51694959Y-54410603D01*
X51629830Y-54274188D01*
X51607121Y-54209142D01*
X51624246Y-54217287D01*
X51678618Y-54300443D01*
X51728129Y-54387252D01*
X51910207Y-54684141D01*
X52120100Y-54957052D01*
X52378330Y-55231623D01*
X52488345Y-55336999D01*
X52906419Y-55678678D01*
X53358563Y-55956665D01*
X53834289Y-56167138D01*
X54323114Y-56306280D01*
X54814549Y-56370270D01*
X55287333Y-56356529D01*
X55824570Y-56260178D01*
X56318788Y-56095301D01*
X56778638Y-55857707D01*
X57212773Y-55543202D01*
X57493599Y-55287334D01*
X57719924Y-55033065D01*
X53210621Y-55033065D01*
X53209817Y-55033334D01*
X53171850Y-55005420D01*
X53091975Y-54932010D01*
X52987009Y-54828602D01*
X52980167Y-54821667D01*
X52880750Y-54717958D01*
X52813621Y-54642495D01*
X52792046Y-54610268D01*
X52792850Y-54610000D01*
X52830817Y-54637914D01*
X52910692Y-54711324D01*
X53015658Y-54814731D01*
X53022500Y-54821667D01*
X53121917Y-54925376D01*
X53189046Y-55000839D01*
X53210621Y-55033065D01*
X57719924Y-55033065D01*
X57865609Y-54869393D01*
X58156572Y-54429086D01*
X58367830Y-53962758D01*
X58500725Y-53466754D01*
X58556597Y-52937420D01*
X58543381Y-52472660D01*
X58056749Y-52472660D01*
X58007921Y-52813635D01*
X57897312Y-53130155D01*
X57732694Y-53414569D01*
X57521839Y-53659226D01*
X57272517Y-53856473D01*
X56992500Y-53998659D01*
X56689560Y-54078134D01*
X56371468Y-54087245D01*
X56088767Y-54032076D01*
X56040916Y-54020159D01*
X55491122Y-54020159D01*
X55348083Y-54262163D01*
X55252691Y-54423655D01*
X55156073Y-54587380D01*
X55099065Y-54684084D01*
X55031574Y-54788135D01*
X54977503Y-54853105D01*
X54959656Y-54864000D01*
X54924489Y-54830281D01*
X54857089Y-54739584D01*
X54768674Y-54607599D01*
X54709976Y-54514750D01*
X54656723Y-54428415D01*
X52635661Y-54428415D01*
X52587725Y-54385362D01*
X52499449Y-54294351D01*
X52386049Y-54171316D01*
X52342946Y-54123167D01*
X51603037Y-54123167D01*
X51585568Y-54130739D01*
X51562000Y-54102000D01*
X51526178Y-54024826D01*
X51520963Y-53996167D01*
X51538432Y-53988594D01*
X51562000Y-54017334D01*
X51597822Y-54094508D01*
X51603037Y-54123167D01*
X52342946Y-54123167D01*
X52324385Y-54102434D01*
X52212992Y-53974535D01*
X52142852Y-53890334D01*
X51519667Y-53890334D01*
X51504178Y-53925179D01*
X51491445Y-53918556D01*
X51486378Y-53868316D01*
X51491445Y-53862111D01*
X51516612Y-53867922D01*
X51519667Y-53890334D01*
X52142852Y-53890334D01*
X52129502Y-53874308D01*
X52085122Y-53815452D01*
X52081618Y-53805667D01*
X52116465Y-53835252D01*
X52194497Y-53915142D01*
X52303017Y-54032039D01*
X52392895Y-54131648D01*
X52507562Y-54262301D01*
X52591537Y-54362276D01*
X52635410Y-54420068D01*
X52635661Y-54428415D01*
X54656723Y-54428415D01*
X54613899Y-54358989D01*
X54533516Y-54227570D01*
X54480144Y-54139052D01*
X54466237Y-54115074D01*
X54472716Y-54058410D01*
X54511803Y-53944852D01*
X54576647Y-53792416D01*
X54637706Y-53664129D01*
X54730288Y-53482952D01*
X54797271Y-53367577D01*
X54847316Y-53306379D01*
X54889081Y-53287734D01*
X54914599Y-53292440D01*
X54971313Y-53337839D01*
X55061136Y-53436821D01*
X55169749Y-53572833D01*
X55241828Y-53670715D01*
X55491122Y-54020159D01*
X56040916Y-54020159D01*
X55934254Y-53993596D01*
X55790506Y-53971648D01*
X55726781Y-53969529D01*
X55630133Y-53961744D01*
X55571421Y-53908956D01*
X55537572Y-53838918D01*
X55483797Y-53737392D01*
X55395195Y-53598089D01*
X55289883Y-53449306D01*
X55278041Y-53433556D01*
X55182759Y-53303090D01*
X55111602Y-53196927D01*
X55077100Y-53134019D01*
X55075667Y-53127528D01*
X55085337Y-53092980D01*
X54778319Y-53092980D01*
X54676131Y-53227073D01*
X54606747Y-53332560D01*
X54526067Y-53476264D01*
X54445280Y-53635271D01*
X54375577Y-53786668D01*
X54328146Y-53907541D01*
X54313700Y-53969224D01*
X54291356Y-54004256D01*
X54213597Y-54010819D01*
X54133750Y-54002350D01*
X53955197Y-54000821D01*
X53760913Y-54033863D01*
X53742167Y-54039064D01*
X53451513Y-54080392D01*
X53129887Y-54046690D01*
X52922630Y-53989807D01*
X52624826Y-53847316D01*
X52518879Y-53762419D01*
X52065511Y-53762419D01*
X52063592Y-53763334D01*
X52027699Y-53738639D01*
X51473991Y-53738639D01*
X51466208Y-53793546D01*
X51451757Y-53794202D01*
X51441651Y-53737543D01*
X51448415Y-53713063D01*
X51467212Y-53697028D01*
X51473991Y-53738639D01*
X52027699Y-53738639D01*
X52023328Y-53735632D01*
X51952870Y-53667898D01*
X51943000Y-53657500D01*
X51882600Y-53587549D01*
X51862822Y-53552581D01*
X51864742Y-53551667D01*
X51905006Y-53579368D01*
X51975463Y-53647102D01*
X51985333Y-53657500D01*
X52045733Y-53727452D01*
X52065511Y-53762419D01*
X52518879Y-53762419D01*
X52364100Y-53638393D01*
X52234339Y-53481057D01*
X51850065Y-53481057D01*
X51849779Y-53508638D01*
X51842350Y-53509334D01*
X51807013Y-53480404D01*
X51768267Y-53435250D01*
X51731655Y-53385107D01*
X51753577Y-53395619D01*
X51784250Y-53419267D01*
X51850065Y-53481057D01*
X52234339Y-53481057D01*
X52147504Y-53375770D01*
X52103448Y-53294911D01*
X51678621Y-53294911D01*
X51672830Y-53297667D01*
X51634198Y-53267865D01*
X51625500Y-53255334D01*
X51614713Y-53215756D01*
X51620503Y-53213000D01*
X51659136Y-53242802D01*
X51667833Y-53255334D01*
X51678621Y-53294911D01*
X52103448Y-53294911D01*
X51982090Y-53072181D01*
X51874911Y-52740356D01*
X51833018Y-52393028D01*
X51858565Y-52068726D01*
X51905962Y-51891830D01*
X51987324Y-51671776D01*
X52091709Y-51431681D01*
X52208172Y-51194665D01*
X52276198Y-51072714D01*
X51761883Y-51072714D01*
X51745023Y-51138500D01*
X51703069Y-51257849D01*
X51663576Y-51359630D01*
X51586157Y-51573847D01*
X51514048Y-51808535D01*
X51460545Y-52019653D01*
X51452674Y-52058130D01*
X51420587Y-52283258D01*
X51398121Y-52558519D01*
X51386249Y-52853703D01*
X51385940Y-53138599D01*
X51398168Y-53382996D01*
X51407370Y-53467000D01*
X51420693Y-53574546D01*
X51419209Y-53604675D01*
X51401169Y-53563625D01*
X51389553Y-53530500D01*
X51368253Y-53433482D01*
X51347071Y-53277667D01*
X51329179Y-53088870D01*
X51321883Y-52980167D01*
X51316051Y-52649067D01*
X51341652Y-52346433D01*
X51369603Y-52176876D01*
X51420228Y-51952217D01*
X51487836Y-51712814D01*
X51564939Y-51480400D01*
X51644051Y-51276712D01*
X51717683Y-51123484D01*
X51749944Y-51072800D01*
X51761883Y-51072714D01*
X52276198Y-51072714D01*
X52325771Y-50983847D01*
X52433562Y-50822346D01*
X52468644Y-50779856D01*
X52599167Y-50634941D01*
X52836410Y-50890502D01*
X52953180Y-51021328D01*
X53014437Y-51104851D01*
X53026549Y-51151551D01*
X53005743Y-51169238D01*
X52671698Y-51316317D01*
X52408007Y-51506818D01*
X52210443Y-51744090D01*
X52153274Y-51844373D01*
X52101924Y-51957406D01*
X52070481Y-52068218D01*
X52054371Y-52203363D01*
X52049025Y-52389393D01*
X52048833Y-52451000D01*
X52062471Y-52730748D01*
X52109248Y-52953920D01*
X52197962Y-53145032D01*
X52337412Y-53328600D01*
X52380612Y-53375530D01*
X52615693Y-53565051D01*
X52891836Y-53691616D01*
X53192273Y-53754108D01*
X53500232Y-53751406D01*
X53798942Y-53682391D01*
X54071632Y-53545946D01*
X54143974Y-53493191D01*
X54300116Y-53344742D01*
X54440543Y-53166991D01*
X54482056Y-53096180D01*
X54203723Y-53096180D01*
X54200198Y-53121034D01*
X54141433Y-53189958D01*
X54106591Y-53226912D01*
X53976483Y-53343346D01*
X53834952Y-53439159D01*
X53708535Y-53497854D01*
X53653839Y-53508370D01*
X53611573Y-53474019D01*
X53549164Y-53384010D01*
X53495089Y-53286476D01*
X53433231Y-53149343D01*
X53392275Y-53030047D01*
X53382333Y-52973505D01*
X53409616Y-52883431D01*
X53480517Y-52855341D01*
X53578615Y-52891519D01*
X53636616Y-52938104D01*
X53775148Y-53034266D01*
X53939673Y-53096827D01*
X54095803Y-53114767D01*
X54156371Y-53104689D01*
X54203723Y-53096180D01*
X54482056Y-53096180D01*
X54545872Y-52987328D01*
X54591987Y-52859975D01*
X54618979Y-52737082D01*
X54778319Y-53092980D01*
X55085337Y-53092980D01*
X55092570Y-53067142D01*
X55134437Y-52966221D01*
X55146834Y-52939634D01*
X55218001Y-52790396D01*
X55339048Y-53042602D01*
X55508300Y-53305197D01*
X55728384Y-53510324D01*
X55986480Y-53656345D01*
X56269767Y-53741620D01*
X56565426Y-53764510D01*
X56860635Y-53723374D01*
X57142574Y-53616575D01*
X57398424Y-53442472D01*
X57519841Y-53321463D01*
X57697023Y-53059529D01*
X57716144Y-53007164D01*
X57491164Y-53007164D01*
X57361993Y-53170255D01*
X57271068Y-53260183D01*
X57141852Y-53359008D01*
X56999060Y-53450971D01*
X56867407Y-53520314D01*
X56771610Y-53551278D01*
X56763795Y-53551667D01*
X56730459Y-53519917D01*
X56548046Y-53519917D01*
X56529844Y-53545762D01*
X56452924Y-53551502D01*
X56340291Y-53539159D01*
X56214951Y-53510759D01*
X56134857Y-53483570D01*
X56026668Y-53432487D01*
X55977452Y-53376686D01*
X55964797Y-53288114D01*
X55964667Y-53270544D01*
X55988233Y-53097906D01*
X56049583Y-52931584D01*
X56134689Y-52807727D01*
X56149403Y-52794408D01*
X56231172Y-52768207D01*
X56307511Y-52810327D01*
X56362196Y-52905111D01*
X56379533Y-53016458D01*
X56406301Y-53176261D01*
X56483034Y-53384150D01*
X56548046Y-53519917D01*
X56730459Y-53519917D01*
X56728243Y-53517807D01*
X56666625Y-53429669D01*
X56602774Y-53324264D01*
X56509927Y-53135261D01*
X56473389Y-52994059D01*
X56493490Y-52905477D01*
X56570561Y-52874339D01*
X56571939Y-52874334D01*
X56675505Y-52904769D01*
X56747995Y-52959179D01*
X56888952Y-53057467D01*
X57069778Y-53103939D01*
X57259095Y-53092528D01*
X57327816Y-53071328D01*
X57491164Y-53007164D01*
X57716144Y-53007164D01*
X57804086Y-52766333D01*
X57827627Y-52569342D01*
X57613436Y-52569342D01*
X57600640Y-52726705D01*
X57591693Y-52768727D01*
X57536614Y-52841499D01*
X57427104Y-52913996D01*
X57292066Y-52970973D01*
X57160401Y-52997182D01*
X57158481Y-52997267D01*
X57051489Y-52980743D01*
X56936231Y-52936746D01*
X56851359Y-52887077D01*
X56811721Y-52852492D01*
X56811333Y-52850590D01*
X56838489Y-52782586D01*
X56901128Y-52700196D01*
X56968179Y-52638934D01*
X56145581Y-52638934D01*
X56087931Y-52729548D01*
X55958669Y-52892693D01*
X55888281Y-53082243D01*
X55880000Y-53168565D01*
X55867299Y-53267143D01*
X55827198Y-53289243D01*
X55756698Y-53234694D01*
X55692964Y-53157805D01*
X55562928Y-52958375D01*
X55486142Y-52776478D01*
X55464639Y-52623186D01*
X55500451Y-52509569D01*
X55564492Y-52457795D01*
X55598995Y-52448244D01*
X54440667Y-52448244D01*
X54416194Y-52688368D01*
X54346514Y-52864045D01*
X54237234Y-52971409D01*
X54093959Y-53006594D01*
X53922298Y-52965732D01*
X53794327Y-52893974D01*
X53699336Y-52822884D01*
X53643005Y-52768089D01*
X53636333Y-52754274D01*
X53673887Y-52683569D01*
X53767592Y-52633722D01*
X53858569Y-52620334D01*
X54045002Y-52581246D01*
X54209786Y-52475916D01*
X54299106Y-52366550D01*
X54366286Y-52269429D01*
X54410056Y-52250181D01*
X54433740Y-52310726D01*
X54440667Y-52448244D01*
X55598995Y-52448244D01*
X55677120Y-52426618D01*
X55821098Y-52411483D01*
X55961133Y-52413548D01*
X56061930Y-52433967D01*
X56075378Y-52441065D01*
X56143957Y-52529390D01*
X56145581Y-52638934D01*
X56968179Y-52638934D01*
X56971004Y-52636353D01*
X57008805Y-52620334D01*
X57148218Y-52582474D01*
X57285398Y-52483245D01*
X57400870Y-52344170D01*
X57475160Y-52186771D01*
X57492105Y-52086170D01*
X57494742Y-51992566D01*
X57398510Y-51992566D01*
X57387139Y-52083102D01*
X57345302Y-52199402D01*
X57272638Y-52309563D01*
X57183207Y-52403089D01*
X57091071Y-52469486D01*
X57010288Y-52498261D01*
X56954918Y-52478919D01*
X56938333Y-52418086D01*
X56914863Y-52328012D01*
X56869770Y-52244952D01*
X56825061Y-52150608D01*
X56825718Y-52147128D01*
X56285511Y-52147128D01*
X56269231Y-52201546D01*
X56232421Y-52253918D01*
X56161794Y-52323932D01*
X56087443Y-52328869D01*
X56057204Y-52318945D01*
X55943756Y-52292264D01*
X55816500Y-52281667D01*
X55678647Y-52294888D01*
X55561837Y-52324252D01*
X55486899Y-52347949D01*
X55463408Y-52326644D01*
X55475764Y-52242492D01*
X55478565Y-52229002D01*
X55521469Y-52098095D01*
X55538832Y-52061159D01*
X54300382Y-52061159D01*
X54297907Y-52074715D01*
X54224464Y-52266258D01*
X54097830Y-52415160D01*
X53998182Y-52476690D01*
X53864288Y-52520155D01*
X53779555Y-52502208D01*
X53728556Y-52416177D01*
X53712426Y-52353114D01*
X53702642Y-52192760D01*
X53746995Y-52060663D01*
X53795371Y-51896325D01*
X53796492Y-51705943D01*
X53793753Y-51672905D01*
X53672136Y-51672905D01*
X53669363Y-51872895D01*
X53637010Y-52004721D01*
X53592735Y-52081809D01*
X53523234Y-52095732D01*
X53478260Y-52087365D01*
X53366981Y-52035332D01*
X53297667Y-51970608D01*
X53133955Y-51771890D01*
X52980221Y-51654221D01*
X52884917Y-51620103D01*
X52781264Y-51612772D01*
X52752023Y-51637767D01*
X52798409Y-51684864D01*
X52872599Y-51723780D01*
X52979509Y-51797957D01*
X53075958Y-51906365D01*
X53085665Y-51921291D01*
X53173465Y-52063354D01*
X53060911Y-52175907D01*
X52976279Y-52244399D01*
X52876924Y-52281174D01*
X52730627Y-52297208D01*
X52700888Y-52298575D01*
X52507452Y-52325771D01*
X52366877Y-52385436D01*
X52291298Y-52471148D01*
X52281667Y-52520439D01*
X52302227Y-52546247D01*
X52371367Y-52520564D01*
X52419250Y-52492870D01*
X52563895Y-52433976D01*
X52724179Y-52408868D01*
X52729647Y-52408825D01*
X52842534Y-52415218D01*
X52902231Y-52449012D01*
X52940006Y-52531717D01*
X52948772Y-52559560D01*
X52972450Y-52666544D01*
X52957202Y-52751809D01*
X52895118Y-52857750D01*
X52892374Y-52861800D01*
X52804655Y-53059342D01*
X52789667Y-53197741D01*
X52799090Y-53327295D01*
X52822518Y-53376078D01*
X52852692Y-53345270D01*
X52882351Y-53236054D01*
X52891031Y-53181250D01*
X52923765Y-53037666D01*
X52973380Y-52914735D01*
X52994067Y-52882065D01*
X53058953Y-52815821D01*
X53125883Y-52812710D01*
X53178633Y-52833688D01*
X53249388Y-52881276D01*
X53287777Y-52959113D01*
X53307150Y-53085131D01*
X53341834Y-53247760D01*
X53404111Y-53393326D01*
X53420816Y-53419258D01*
X53515099Y-53551667D01*
X53305719Y-53551667D01*
X53147016Y-53538923D01*
X52997189Y-53506912D01*
X52953587Y-53491488D01*
X52752744Y-53373600D01*
X52561645Y-53204228D01*
X52411946Y-53012997D01*
X52378697Y-52953511D01*
X52279095Y-52694098D01*
X52252972Y-52449616D01*
X52298059Y-52197171D01*
X52302384Y-52183162D01*
X52431964Y-51898971D01*
X52620321Y-51674074D01*
X52861559Y-51513119D01*
X53149781Y-51420756D01*
X53291744Y-51402917D01*
X53443564Y-51393933D01*
X53533356Y-51398318D01*
X53583453Y-51422230D01*
X53616186Y-51471830D01*
X53627243Y-51495454D01*
X53672136Y-51672905D01*
X53793753Y-51672905D01*
X53777982Y-51482734D01*
X53890256Y-51540793D01*
X53982919Y-51605631D01*
X54096947Y-51707867D01*
X54162411Y-51775822D01*
X54256978Y-51890875D01*
X54299004Y-51977242D01*
X54300382Y-52061159D01*
X55538832Y-52061159D01*
X55592972Y-51945988D01*
X55675761Y-51805037D01*
X55752521Y-51707593D01*
X55762244Y-51698895D01*
X55846612Y-51678865D01*
X55957026Y-51719060D01*
X56074638Y-51807924D01*
X56180599Y-51933899D01*
X56202463Y-51968816D01*
X56264293Y-52079421D01*
X56285511Y-52147128D01*
X56825718Y-52147128D01*
X56842989Y-52055791D01*
X56848604Y-52043040D01*
X56884409Y-51907822D01*
X56893652Y-51752569D01*
X56766380Y-51752569D01*
X56740805Y-51966498D01*
X56730397Y-51996689D01*
X56677245Y-52072907D01*
X56579828Y-52097821D01*
X56558325Y-52098222D01*
X56461062Y-52083819D01*
X56393719Y-52025791D01*
X56347432Y-51946528D01*
X56218549Y-51754752D01*
X56061490Y-51635760D01*
X56010999Y-51614097D01*
X55953489Y-51588841D01*
X55952462Y-51564757D01*
X56016060Y-51527224D01*
X56075369Y-51498495D01*
X56221295Y-51446618D01*
X56393675Y-51409123D01*
X56456283Y-51401532D01*
X56584350Y-51393568D01*
X56654552Y-51405808D01*
X56693282Y-51450191D01*
X56720866Y-51521223D01*
X56766380Y-51752569D01*
X56893652Y-51752569D01*
X56894196Y-51743449D01*
X56877687Y-51591056D01*
X56852177Y-51516884D01*
X56833750Y-51450245D01*
X56875296Y-51436800D01*
X56971789Y-51475490D01*
X57118204Y-51565252D01*
X57134794Y-51576581D01*
X57293349Y-51707716D01*
X57378187Y-51840220D01*
X57398510Y-51992566D01*
X57494742Y-51992566D01*
X57495543Y-51964167D01*
X57553696Y-52091167D01*
X57587924Y-52215195D01*
X57608518Y-52386713D01*
X57613436Y-52569342D01*
X57827627Y-52569342D01*
X57840997Y-52457467D01*
X57807726Y-52148517D01*
X57704240Y-51855075D01*
X57530508Y-51592729D01*
X57523354Y-51584528D01*
X57314239Y-51395879D01*
X57064241Y-51246153D01*
X56836094Y-51163329D01*
X56712688Y-51133545D01*
X56836094Y-51057947D01*
X56931956Y-50985265D01*
X57052465Y-50875329D01*
X57143255Y-50782123D01*
X57239045Y-50681609D01*
X57309868Y-50614534D01*
X57339332Y-50595699D01*
X57365564Y-50635811D01*
X57424404Y-50730236D01*
X57504599Y-50860867D01*
X57530359Y-50903127D01*
X57714927Y-51234456D01*
X57867036Y-51564237D01*
X57978025Y-51871709D01*
X58036026Y-52114882D01*
X58056749Y-52472660D01*
X58543381Y-52472660D01*
X58542163Y-52429834D01*
X58456606Y-51910439D01*
X58294007Y-51417695D01*
X58059450Y-50957666D01*
X57758018Y-50536421D01*
X57394797Y-50160027D01*
X56974871Y-49834550D01*
X56503323Y-49566057D01*
X55985239Y-49360617D01*
X55964667Y-49354124D01*
X55717057Y-49298630D01*
X55412219Y-49263964D01*
X55074999Y-49250165D01*
X54730245Y-49257273D01*
X54402801Y-49285327D01*
X54117515Y-49334365D01*
X54051265Y-49351118D01*
X53549401Y-49524810D01*
X53082855Y-49757149D01*
X52662616Y-50040679D01*
X52299671Y-50367942D01*
X52005009Y-50731478D01*
X51994522Y-50747084D01*
X51907034Y-50873268D01*
X51848823Y-50947670D01*
X51825089Y-50965805D01*
X51841032Y-50923190D01*
X51887690Y-50839207D01*
X52038284Y-50621321D01*
X52239906Y-50384117D01*
X52470589Y-50151178D01*
X52708367Y-49946083D01*
X52748178Y-49915483D01*
X53225130Y-49605995D01*
X53727581Y-49375916D01*
X54251530Y-49226479D01*
X54792976Y-49158917D01*
X55194724Y-49161864D01*
X55742534Y-49236559D01*
X56263042Y-49388058D01*
X56749882Y-49611126D01*
X57196688Y-49900529D01*
X57597093Y-50251032D01*
X57944730Y-50657401D01*
X58233233Y-51114402D01*
X58456235Y-51616801D01*
X58551694Y-51921834D01*
X58596741Y-52117640D01*
X58624882Y-52317082D01*
X58639081Y-52548500D01*
X58642400Y-52789667D01*
X59253462Y-52789667D01*
X59243153Y-52311566D01*
X59158575Y-51746915D01*
X59000591Y-51215035D01*
X58767323Y-50708246D01*
X58679355Y-50554911D01*
X58532291Y-50278883D01*
X58438887Y-50017565D01*
X58390324Y-49738427D01*
X58377667Y-49442104D01*
X58372555Y-49254018D01*
X58352592Y-49145251D01*
X58310837Y-49110824D01*
X58240348Y-49145759D01*
X58134185Y-49245078D01*
X58121388Y-49258308D01*
X58009655Y-49370321D01*
X57923161Y-49433670D01*
X57841748Y-49448043D01*
X57745260Y-49413125D01*
X57613540Y-49328603D01*
X57501913Y-49248674D01*
X56989381Y-48928896D01*
X56443817Y-48683714D01*
X55873761Y-48514701D01*
X55287754Y-48423429D01*
X54694335Y-48411471D01*
X54102046Y-48480400D01*
X53758131Y-48559222D01*
X53489119Y-48649128D01*
X53184133Y-48777863D01*
X52869648Y-48932047D01*
X52572138Y-49098303D01*
X52318076Y-49263252D01*
X52223342Y-49334802D01*
X52082719Y-49446104D01*
X51989412Y-49511292D01*
X51925381Y-49538075D01*
X51872584Y-49534165D01*
X51816058Y-49508863D01*
X51726836Y-49451802D01*
X51600511Y-49357709D01*
X51463067Y-49246024D01*
X51451049Y-49235782D01*
X51328933Y-49134553D01*
X51230795Y-49059280D01*
X51174571Y-49023573D01*
X51169849Y-49022376D01*
X51165205Y-49055919D01*
X51192038Y-49140576D01*
X51209100Y-49180750D01*
X51240956Y-49270224D01*
X51260859Y-49380608D01*
X51270414Y-49530157D01*
X51271224Y-49737126D01*
X51268982Y-49862077D01*
X51263122Y-50082502D01*
X51254335Y-50238968D01*
X51238407Y-50352173D01*
X51211126Y-50442814D01*
X51168280Y-50531590D01*
X51113505Y-50626034D01*
X50902687Y-51050379D01*
X50739612Y-51527965D01*
X50629457Y-52038839D01*
X50577398Y-52563052D01*
X50573970Y-52705000D01*
X50588472Y-53162916D01*
X50642990Y-53577882D01*
X50742965Y-53984232D01*
X50808825Y-54186667D01*
X51046269Y-54744224D01*
X51351708Y-55254239D01*
X51720455Y-55712590D01*
X52147822Y-56115156D01*
X52629118Y-56457816D01*
X53159657Y-56736449D01*
X53734750Y-56946933D01*
X54038500Y-57025549D01*
X54169304Y-57048348D01*
X54356777Y-57072647D01*
X54573061Y-57095128D01*
X54737000Y-57108766D01*
X55223833Y-57144412D01*
X54650004Y-57126756D01*
X54322958Y-57110446D01*
X54047946Y-57081224D01*
X53792805Y-57035074D01*
X53655171Y-57002511D01*
X53293920Y-56892407D01*
X53206539Y-56857323D01*
X51011667Y-56857323D01*
X50973690Y-56963789D01*
X50875383Y-57065752D01*
X50740179Y-57146387D01*
X50591515Y-57188868D01*
X50546000Y-57191659D01*
X50501890Y-57184393D01*
X50522860Y-57159142D01*
X50614944Y-57110408D01*
X50656844Y-57090616D01*
X50791555Y-57016167D01*
X50901325Y-56935020D01*
X50942594Y-56891110D01*
X50993168Y-56833143D01*
X51011511Y-56851208D01*
X51011667Y-56857323D01*
X53206539Y-56857323D01*
X52939855Y-56750248D01*
X52618738Y-56587667D01*
X52356332Y-56416300D01*
X52355071Y-56415334D01*
X52272186Y-56354942D01*
X52193087Y-56308958D01*
X52101155Y-56272260D01*
X51979767Y-56239729D01*
X51812303Y-56206243D01*
X51588605Y-56167794D01*
X48810211Y-56167794D01*
X48776256Y-56203002D01*
X48692276Y-56257801D01*
X48584845Y-56317851D01*
X48480538Y-56368812D01*
X48405929Y-56396344D01*
X48387000Y-56396164D01*
X48402147Y-56363537D01*
X48468257Y-56309479D01*
X48468537Y-56309289D01*
X48578144Y-56243677D01*
X48687166Y-56191402D01*
X48772223Y-56162144D01*
X48809937Y-56165585D01*
X48810211Y-56167794D01*
X51588605Y-56167794D01*
X51582141Y-56166683D01*
X51508404Y-56154512D01*
X51212489Y-56108851D01*
X50873406Y-56061232D01*
X48073916Y-56061232D01*
X48066191Y-56091811D01*
X48017204Y-56121041D01*
X47912666Y-56158396D01*
X47784462Y-56198924D01*
X47628067Y-56240432D01*
X47500731Y-56249574D01*
X47377130Y-56221336D01*
X47231938Y-56150701D01*
X47082622Y-56059917D01*
X46896978Y-55933348D01*
X46702462Y-55786471D01*
X46538011Y-55648842D01*
X46522976Y-55635118D01*
X46396551Y-55513194D01*
X46318350Y-55417131D01*
X46271442Y-55318721D01*
X46238900Y-55189756D01*
X46230807Y-55148285D01*
X46200760Y-54996542D01*
X46173552Y-54870092D01*
X46158081Y-54807450D01*
X46151731Y-54754509D01*
X46193790Y-54761616D01*
X46218365Y-54774177D01*
X46288265Y-54800653D01*
X46422814Y-54842659D01*
X46604559Y-54895047D01*
X46816046Y-54952670D01*
X46885969Y-54971066D01*
X47106182Y-55030430D01*
X47304969Y-55087580D01*
X47463881Y-55136957D01*
X47564466Y-55173002D01*
X47580135Y-55180191D01*
X47674799Y-55268818D01*
X47777983Y-55441305D01*
X47824493Y-55540147D01*
X47959244Y-55843423D01*
X47823872Y-55814304D01*
X47500074Y-55732703D01*
X47185856Y-55631647D01*
X46906666Y-55520189D01*
X46699126Y-55414156D01*
X46564638Y-55338146D01*
X46459518Y-55287194D01*
X46402985Y-55270411D01*
X46399198Y-55271959D01*
X46410316Y-55314417D01*
X46483150Y-55385198D01*
X46603902Y-55474344D01*
X46758768Y-55571898D01*
X46933949Y-55667904D01*
X46979427Y-55690559D01*
X47236549Y-55810935D01*
X47438084Y-55892285D01*
X47600628Y-55939831D01*
X47740780Y-55958792D01*
X47830080Y-55958125D01*
X47961896Y-55960966D01*
X48034997Y-55993770D01*
X48054674Y-56019833D01*
X48073916Y-56061232D01*
X50873406Y-56061232D01*
X50872572Y-56061115D01*
X50528988Y-56016720D01*
X50222071Y-55981084D01*
X50198896Y-55978625D01*
X50140745Y-55972347D01*
X48869217Y-55972347D01*
X48833323Y-56006998D01*
X48832888Y-56007000D01*
X48812815Y-55970301D01*
X48774536Y-55874188D01*
X48727368Y-55742417D01*
X48665568Y-55499684D01*
X48626668Y-55211455D01*
X48619154Y-55096834D01*
X48601678Y-54715834D01*
X48660453Y-55118000D01*
X48696641Y-55322320D01*
X48742553Y-55520964D01*
X48790223Y-55680990D01*
X48807249Y-55725074D01*
X48860256Y-55875397D01*
X48869217Y-55972347D01*
X50140745Y-55972347D01*
X49949034Y-55951650D01*
X49772190Y-55929986D01*
X49657085Y-55911016D01*
X49592442Y-55892122D01*
X49566983Y-55870684D01*
X49569432Y-55844085D01*
X49574479Y-55833658D01*
X49614281Y-55711687D01*
X49615925Y-55558221D01*
X49577313Y-55365780D01*
X49496349Y-55126888D01*
X49370937Y-54834066D01*
X49198980Y-54479836D01*
X49189861Y-54461834D01*
X49082982Y-54247130D01*
X48996923Y-54061619D01*
X48924623Y-53885758D01*
X48859024Y-53700004D01*
X48793069Y-53484814D01*
X48719699Y-53220644D01*
X48659253Y-52992703D01*
X48591408Y-52733040D01*
X48531497Y-52501768D01*
X48482655Y-52311148D01*
X48448016Y-52173443D01*
X48430714Y-52100917D01*
X48429333Y-52093120D01*
X48397706Y-52070096D01*
X48394536Y-52070000D01*
X48374803Y-52109086D01*
X48349708Y-52214348D01*
X48323066Y-52367797D01*
X48306995Y-52482750D01*
X48274473Y-52717787D01*
X48233106Y-52989540D01*
X48190067Y-53251586D01*
X48174579Y-53340000D01*
X48093562Y-53835069D01*
X48036114Y-54281966D01*
X48002813Y-54673183D01*
X47994239Y-55001216D01*
X48010971Y-55258558D01*
X48021533Y-55323561D01*
X48057288Y-55507955D01*
X47881712Y-55332378D01*
X47791793Y-55231736D01*
X47719156Y-55119898D01*
X47652146Y-54974668D01*
X47579107Y-54773849D01*
X47562615Y-54724651D01*
X47358929Y-53980874D01*
X47239160Y-53231866D01*
X47203028Y-52481327D01*
X47250254Y-51732953D01*
X47380560Y-50990444D01*
X47593667Y-50257497D01*
X47889296Y-49537812D01*
X47965278Y-49381834D01*
X48092551Y-49142115D01*
X48241635Y-48883173D01*
X48392396Y-48638994D01*
X48504530Y-48471667D01*
X48721985Y-48190724D01*
X48991045Y-47884025D01*
X49291937Y-47571347D01*
X49604883Y-47272464D01*
X49910108Y-47007152D01*
X50165000Y-46811197D01*
X50754008Y-46440388D01*
X51398895Y-46118876D01*
X52081787Y-45854378D01*
X52784808Y-45654612D01*
X52907171Y-45627185D01*
X53073826Y-45593433D01*
X53227265Y-45568412D01*
X53384813Y-45550904D01*
X53563792Y-45539690D01*
X53781523Y-45533553D01*
X54055331Y-45531276D01*
X54271333Y-45531288D01*
X54594599Y-45533092D01*
X54850531Y-45537908D01*
X55056442Y-45546981D01*
X55229647Y-45561556D01*
X55387460Y-45582877D01*
X55547195Y-45612190D01*
X55626000Y-45628682D01*
X56377443Y-45831629D01*
X57093165Y-46107465D01*
X57768640Y-46452099D01*
X58399339Y-46861444D01*
X58980738Y-47331412D01*
X59508308Y-47857915D01*
X59977522Y-48436863D01*
X60383854Y-49064170D01*
X60722776Y-49735745D01*
X60989762Y-50447502D01*
X61000657Y-50482500D01*
X61104310Y-50846495D01*
X61180640Y-51186733D01*
X61233764Y-51529968D01*
X61267795Y-51902951D01*
X61286850Y-52332435D01*
X61287199Y-52345167D01*
X61293639Y-52647101D01*
X61293738Y-52888140D01*
X63531418Y-52888140D01*
X63520390Y-52621684D01*
X63491178Y-52269167D01*
X63476550Y-52151597D01*
X63318504Y-51315735D01*
X63084052Y-50510586D01*
X62777085Y-49740024D01*
X62401499Y-49007924D01*
X61961186Y-48318160D01*
X61460039Y-47674607D01*
X60901952Y-47081140D01*
X60290819Y-46541633D01*
X59630533Y-46059961D01*
X58924987Y-45639998D01*
X58178074Y-45285619D01*
X57393689Y-45000698D01*
X56575724Y-44789110D01*
X55973795Y-44685122D01*
X55692359Y-44655695D01*
X55354138Y-44635022D01*
X54983571Y-44623332D01*
X54605097Y-44620858D01*
X54243154Y-44627829D01*
D16*
X56443571Y-31416667D02*
X56443571Y-31083333D01*
X56967381Y-31083333D02*
X55967381Y-31083333D01*
X55967381Y-31559524D01*
X56967381Y-32464286D02*
X56967381Y-31892857D01*
X56967381Y-32178571D02*
X55967381Y-32178571D01*
X56110238Y-32083333D01*
X56205476Y-31988095D01*
X56253095Y-31892857D01*
X31241905Y-19137381D02*
X31241905Y-19946905D01*
X31194286Y-20042143D01*
X31146667Y-20089762D01*
X31051429Y-20137381D01*
X30860952Y-20137381D01*
X30765714Y-20089762D01*
X30718095Y-20042143D01*
X30670476Y-19946905D01*
X30670476Y-19137381D01*
X29670476Y-20137381D02*
X30241905Y-20137381D01*
X29956191Y-20137381D02*
X29956191Y-19137381D01*
X30051429Y-19280238D01*
X30146667Y-19375476D01*
X30241905Y-19423095D01*
X25487381Y-21240952D02*
X25487381Y-21431429D01*
X25535000Y-21526667D01*
X25630238Y-21621905D01*
X25820714Y-21669524D01*
X26154048Y-21669524D01*
X26344524Y-21621905D01*
X26439762Y-21526667D01*
X26487381Y-21431429D01*
X26487381Y-21240952D01*
X26439762Y-21145714D01*
X26344524Y-21050476D01*
X26154048Y-21002857D01*
X25820714Y-21002857D01*
X25630238Y-21050476D01*
X25535000Y-21145714D01*
X25487381Y-21240952D01*
X25487381Y-22098095D02*
X26296905Y-22098095D01*
X26392143Y-22145714D01*
X26439762Y-22193333D01*
X26487381Y-22288571D01*
X26487381Y-22479048D01*
X26439762Y-22574286D01*
X26392143Y-22621905D01*
X26296905Y-22669524D01*
X25487381Y-22669524D01*
X25487381Y-23002857D02*
X25487381Y-23574286D01*
X26487381Y-23288571D02*
X25487381Y-23288571D01*
X26106429Y-23907619D02*
X26106429Y-24669524D01*
X26487381Y-24288572D02*
X25725476Y-24288572D01*
X36917381Y-21240952D02*
X36917381Y-21431429D01*
X36965000Y-21526667D01*
X37060238Y-21621905D01*
X37250714Y-21669524D01*
X37584048Y-21669524D01*
X37774524Y-21621905D01*
X37869762Y-21526667D01*
X37917381Y-21431429D01*
X37917381Y-21240952D01*
X37869762Y-21145714D01*
X37774524Y-21050476D01*
X37584048Y-21002857D01*
X37250714Y-21002857D01*
X37060238Y-21050476D01*
X36965000Y-21145714D01*
X36917381Y-21240952D01*
X36917381Y-22098095D02*
X37726905Y-22098095D01*
X37822143Y-22145714D01*
X37869762Y-22193333D01*
X37917381Y-22288571D01*
X37917381Y-22479048D01*
X37869762Y-22574286D01*
X37822143Y-22621905D01*
X37726905Y-22669524D01*
X36917381Y-22669524D01*
X36917381Y-23002857D02*
X36917381Y-23574286D01*
X37917381Y-23288571D02*
X36917381Y-23288571D01*
X37536429Y-23907619D02*
X37536429Y-24669524D01*
X26487381Y-35687143D02*
X25487381Y-35687143D01*
X26487381Y-36163333D02*
X25487381Y-36163333D01*
X26487381Y-36734762D01*
X25487381Y-36734762D01*
X26106429Y-37210952D02*
X26106429Y-37972857D01*
X26487381Y-37591905D02*
X25725476Y-37591905D01*
X37917381Y-35687143D02*
X36917381Y-35687143D01*
X37917381Y-36163333D02*
X36917381Y-36163333D01*
X37917381Y-36734762D01*
X36917381Y-36734762D01*
X37536429Y-37210952D02*
X37536429Y-37972857D01*
M02*
