<?xml version="1.0" standalone="no"?>
 <!DOCTYPE svg PUBLIC "-//W3C//DTD SVG 1.1//EN" 
 "http://www.w3.org/Graphics/SVG/1.1/DTD/svg11.dtd"> 
<svg xmlns="http://www.w3.org/2000/svg" version="1.1" 
    width="29.7002cm" height="21.0007cm" viewBox="0 0 116930 82680 ">
<title>SVG Picture created as aircon board.sch.svg date 2018/10/31 19:10:08 </title>
  <desc>Picture generated by Eeschema-SVG </desc>
<g style="fill:#000000; fill-opacity:1;stroke:#000000; stroke-opacity:1;
stroke-linecap:round; stroke-linejoin:round; "
 transform="translate(0 0) scale(1 1)">
</g>
<g style="fill:#000000; fill-opacity:0.0; 
stroke:#000000; stroke-width:-10; stroke-opacity:1; 
stroke-linecap:round; stroke-linejoin:round;">
</g>
<g style="fill:#840000; fill-opacity:0.0; 
stroke:#840000; stroke-width:-10; stroke-opacity:1; 
stroke-linecap:round; stroke-linejoin:round;">
</g>
<g style="fill:#840000; fill-opacity:0.0; 
stroke:#840000; stroke-width:100; stroke-opacity:1; 
stroke-linecap:round; stroke-linejoin:round;">
</g>
<g style="fill:#840000; fill-opacity:0.0; 
stroke:#840000; stroke-width:60; stroke-opacity:1; 
stroke-linecap:round; stroke-linejoin:round;">
<rect x="69690" y="65360" width="42520" height="12600" rx="0" />
</g>
<g style="fill:#840000; fill-opacity:0.0; 
stroke:#840000; stroke-width:100; stroke-opacity:1; 
stroke-linecap:round; stroke-linejoin:round;">
</g>
<g style="fill:#840000; fill-opacity:0.0; 
stroke:#840000; stroke-width:60; stroke-opacity:1; 
stroke-linecap:round; stroke-linejoin:round;">
<rect x="3940" y="3940" width="109050" height="74800" rx="0" />
</g>
<g style="fill:#840000; fill-opacity:0.0; 
stroke:#840000; stroke-width:100; stroke-opacity:1; 
stroke-linecap:round; stroke-linejoin:round;">
</g>
<g style="fill:#840000; fill-opacity:0.0; 
stroke:#840000; stroke-width:60; stroke-opacity:1; 
stroke-linecap:round; stroke-linejoin:round;">
<rect x="4720" y="4720" width="107490" height="73240" rx="0" />
</g>
<g style="fill:#840000; fill-opacity:0.0; 
stroke:#840000; stroke-width:100; stroke-opacity:1; 
stroke-linecap:round; stroke-linejoin:round;">
</g>
<g style="fill:#840000; fill-opacity:0.0; 
stroke:#840000; stroke-width:60; stroke-opacity:1; 
stroke-linecap:round; stroke-linejoin:round;">
<path d="M23620 4720
L23620 3940
" />
</g>
<g style="fill:#840000; fill-opacity:0.0; 
stroke:#840000; stroke-width:100; stroke-opacity:1; 
stroke-linecap:round; stroke-linejoin:round;">
</g>
<g style="fill:#840000; fill-opacity:0.0; 
stroke:#840000; stroke-width:60; stroke-opacity:1; 
stroke-linecap:round; stroke-linejoin:round;">
<path d="M43310 4720
L43310 3940
" />
</g>
<g style="fill:#840000; fill-opacity:0.0; 
stroke:#840000; stroke-width:100; stroke-opacity:1; 
stroke-linecap:round; stroke-linejoin:round;">
</g>
<g style="fill:#840000; fill-opacity:0.0; 
stroke:#840000; stroke-width:60; stroke-opacity:1; 
stroke-linecap:round; stroke-linejoin:round;">
<path d="M62990 4720
L62990 3940
" />
</g>
<g style="fill:#840000; fill-opacity:0.0; 
stroke:#840000; stroke-width:100; stroke-opacity:1; 
stroke-linecap:round; stroke-linejoin:round;">
</g>
<g style="fill:#840000; fill-opacity:0.0; 
stroke:#840000; stroke-width:60; stroke-opacity:1; 
stroke-linecap:round; stroke-linejoin:round;">
<path d="M82680 4720
L82680 3940
" />
</g>
<g style="fill:#840000; fill-opacity:0.0; 
stroke:#840000; stroke-width:100; stroke-opacity:1; 
stroke-linecap:round; stroke-linejoin:round;">
</g>
<g style="fill:#840000; fill-opacity:0.0; 
stroke:#840000; stroke-width:60; stroke-opacity:1; 
stroke-linecap:round; stroke-linejoin:round;">
<path d="M102360 4720
L102360 3940
" />
</g>
<g style="fill:#840000; fill-opacity:0.0; 
stroke:#840000; stroke-width:100; stroke-opacity:1; 
stroke-linecap:round; stroke-linejoin:round;">
</g>
<g style="fill:#840000; fill-opacity:0.0; 
stroke:#840000; stroke-width:60; stroke-opacity:1; 
stroke-linecap:round; stroke-linejoin:round;">
<path d="M14170 4560
L13880 4560
" />
<path d="M14020 4560
L14020 4050
L13970 4120
L13930 4170
L13880 4190
" />
</g>
<g style="fill:#840000; fill-opacity:0.0; 
stroke:#840000; stroke-width:100; stroke-opacity:1; 
stroke-linecap:round; stroke-linejoin:round;">
</g>
<g style="fill:#840000; fill-opacity:0.0; 
stroke:#840000; stroke-width:60; stroke-opacity:1; 
stroke-linecap:round; stroke-linejoin:round;">
<path d="M33560 4090
L33580 4070
L33630 4050
L33750 4050
L33800 4070
L33820 4090
L33850 4140
L33850 4190
L33820 4260
L33530 4560
L33850 4560
" />
</g>
<g style="fill:#840000; fill-opacity:0.0; 
stroke:#840000; stroke-width:100; stroke-opacity:1; 
stroke-linecap:round; stroke-linejoin:round;">
</g>
<g style="fill:#840000; fill-opacity:0.0; 
stroke:#840000; stroke-width:60; stroke-opacity:1; 
stroke-linecap:round; stroke-linejoin:round;">
<path d="M53220 4050
L53540 4050
L53370 4240
L53440 4240
L53490 4260
L53510 4290
L53540 4340
L53540 4460
L53510 4510
L53490 4530
L53440 4560
L53300 4560
L53250 4530
L53220 4510
" />
</g>
<g style="fill:#840000; fill-opacity:0.0; 
stroke:#840000; stroke-width:100; stroke-opacity:1; 
stroke-linecap:round; stroke-linejoin:round;">
</g>
<g style="fill:#840000; fill-opacity:0.0; 
stroke:#840000; stroke-width:60; stroke-opacity:1; 
stroke-linecap:round; stroke-linejoin:round;">
<path d="M73170 4220
L73170 4560
" />
<path d="M73050 4020
L72930 4390
L73240 4390
" />
</g>
<g style="fill:#840000; fill-opacity:0.0; 
stroke:#840000; stroke-width:100; stroke-opacity:1; 
stroke-linecap:round; stroke-linejoin:round;">
</g>
<g style="fill:#840000; fill-opacity:0.0; 
stroke:#840000; stroke-width:60; stroke-opacity:1; 
stroke-linecap:round; stroke-linejoin:round;">
<path d="M92880 4050
L92640 4050
L92620 4290
L92640 4260
L92690 4240
L92810 4240
L92860 4260
L92880 4290
L92910 4340
L92910 4460
L92880 4510
L92860 4530
L92810 4560
L92690 4560
L92640 4530
L92620 4510
" />
</g>
<g style="fill:#840000; fill-opacity:0.0; 
stroke:#840000; stroke-width:100; stroke-opacity:1; 
stroke-linecap:round; stroke-linejoin:round;">
</g>
<g style="fill:#840000; fill-opacity:0.0; 
stroke:#840000; stroke-width:60; stroke-opacity:1; 
stroke-linecap:round; stroke-linejoin:round;">
<path d="M112540 4050
L112440 4050
L112390 4070
L112370 4090
L112320 4170
L112300 4260
L112300 4460
L112320 4510
L112350 4530
L112390 4560
L112490 4560
L112540 4530
L112560 4510
L112590 4460
L112590 4340
L112560 4290
L112540 4260
L112490 4240
L112390 4240
L112350 4260
L112320 4290
L112300 4340
" />
</g>
<g style="fill:#840000; fill-opacity:0.0; 
stroke:#840000; stroke-width:100; stroke-opacity:1; 
stroke-linecap:round; stroke-linejoin:round;">
</g>
<g style="fill:#840000; fill-opacity:0.0; 
stroke:#840000; stroke-width:60; stroke-opacity:1; 
stroke-linecap:round; stroke-linejoin:round;">
<path d="M23620 77960
L23620 78740
" />
</g>
<g style="fill:#840000; fill-opacity:0.0; 
stroke:#840000; stroke-width:100; stroke-opacity:1; 
stroke-linecap:round; stroke-linejoin:round;">
</g>
<g style="fill:#840000; fill-opacity:0.0; 
stroke:#840000; stroke-width:60; stroke-opacity:1; 
stroke-linecap:round; stroke-linejoin:round;">
<path d="M43310 77960
L43310 78740
" />
</g>
<g style="fill:#840000; fill-opacity:0.0; 
stroke:#840000; stroke-width:100; stroke-opacity:1; 
stroke-linecap:round; stroke-linejoin:round;">
</g>
<g style="fill:#840000; fill-opacity:0.0; 
stroke:#840000; stroke-width:60; stroke-opacity:1; 
stroke-linecap:round; stroke-linejoin:round;">
<path d="M62990 77960
L62990 78740
" />
</g>
<g style="fill:#840000; fill-opacity:0.0; 
stroke:#840000; stroke-width:100; stroke-opacity:1; 
stroke-linecap:round; stroke-linejoin:round;">
</g>
<g style="fill:#840000; fill-opacity:0.0; 
stroke:#840000; stroke-width:60; stroke-opacity:1; 
stroke-linecap:round; stroke-linejoin:round;">
<path d="M82680 77960
L82680 78740
" />
</g>
<g style="fill:#840000; fill-opacity:0.0; 
stroke:#840000; stroke-width:100; stroke-opacity:1; 
stroke-linecap:round; stroke-linejoin:round;">
</g>
<g style="fill:#840000; fill-opacity:0.0; 
stroke:#840000; stroke-width:60; stroke-opacity:1; 
stroke-linecap:round; stroke-linejoin:round;">
<path d="M102360 77960
L102360 78740
" />
</g>
<g style="fill:#840000; fill-opacity:0.0; 
stroke:#840000; stroke-width:100; stroke-opacity:1; 
stroke-linecap:round; stroke-linejoin:round;">
</g>
<g style="fill:#840000; fill-opacity:0.0; 
stroke:#840000; stroke-width:60; stroke-opacity:1; 
stroke-linecap:round; stroke-linejoin:round;">
<path d="M14170 78580
L13880 78580
" />
<path d="M14020 78580
L14020 78070
L13970 78140
L13930 78190
L13880 78210
" />
</g>
<g style="fill:#840000; fill-opacity:0.0; 
stroke:#840000; stroke-width:100; stroke-opacity:1; 
stroke-linecap:round; stroke-linejoin:round;">
</g>
<g style="fill:#840000; fill-opacity:0.0; 
stroke:#840000; stroke-width:60; stroke-opacity:1; 
stroke-linecap:round; stroke-linejoin:round;">
<path d="M33560 78110
L33580 78090
L33630 78070
L33750 78070
L33800 78090
L33820 78110
L33850 78160
L33850 78210
L33820 78280
L33530 78580
L33850 78580
" />
</g>
<g style="fill:#840000; fill-opacity:0.0; 
stroke:#840000; stroke-width:100; stroke-opacity:1; 
stroke-linecap:round; stroke-linejoin:round;">
</g>
<g style="fill:#840000; fill-opacity:0.0; 
stroke:#840000; stroke-width:60; stroke-opacity:1; 
stroke-linecap:round; stroke-linejoin:round;">
<path d="M53220 78070
L53540 78070
L53370 78260
L53440 78260
L53490 78280
L53510 78310
L53540 78360
L53540 78480
L53510 78530
L53490 78550
L53440 78580
L53300 78580
L53250 78550
L53220 78530
" />
</g>
<g style="fill:#840000; fill-opacity:0.0; 
stroke:#840000; stroke-width:100; stroke-opacity:1; 
stroke-linecap:round; stroke-linejoin:round;">
</g>
<g style="fill:#840000; fill-opacity:0.0; 
stroke:#840000; stroke-width:60; stroke-opacity:1; 
stroke-linecap:round; stroke-linejoin:round;">
<path d="M73170 78240
L73170 78580
" />
<path d="M73050 78040
L72930 78410
L73240 78410
" />
</g>
<g style="fill:#840000; fill-opacity:0.0; 
stroke:#840000; stroke-width:100; stroke-opacity:1; 
stroke-linecap:round; stroke-linejoin:round;">
</g>
<g style="fill:#840000; fill-opacity:0.0; 
stroke:#840000; stroke-width:60; stroke-opacity:1; 
stroke-linecap:round; stroke-linejoin:round;">
<path d="M92880 78070
L92640 78070
L92620 78310
L92640 78280
L92690 78260
L92810 78260
L92860 78280
L92880 78310
L92910 78360
L92910 78480
L92880 78530
L92860 78550
L92810 78580
L92690 78580
L92640 78550
L92620 78530
" />
</g>
<g style="fill:#840000; fill-opacity:0.0; 
stroke:#840000; stroke-width:100; stroke-opacity:1; 
stroke-linecap:round; stroke-linejoin:round;">
</g>
<g style="fill:#840000; fill-opacity:0.0; 
stroke:#840000; stroke-width:60; stroke-opacity:1; 
stroke-linecap:round; stroke-linejoin:round;">
<path d="M112540 78070
L112440 78070
L112390 78090
L112370 78110
L112320 78190
L112300 78280
L112300 78480
L112320 78530
L112350 78550
L112390 78580
L112490 78580
L112540 78550
L112560 78530
L112590 78480
L112590 78360
L112560 78310
L112540 78280
L112490 78260
L112390 78260
L112350 78280
L112320 78310
L112300 78360
" />
</g>
<g style="fill:#840000; fill-opacity:0.0; 
stroke:#840000; stroke-width:100; stroke-opacity:1; 
stroke-linecap:round; stroke-linejoin:round;">
</g>
<g style="fill:#840000; fill-opacity:0.0; 
stroke:#840000; stroke-width:60; stroke-opacity:1; 
stroke-linecap:round; stroke-linejoin:round;">
<path d="M3940 23620
L4720 23620
" />
</g>
<g style="fill:#840000; fill-opacity:0.0; 
stroke:#840000; stroke-width:100; stroke-opacity:1; 
stroke-linecap:round; stroke-linejoin:round;">
</g>
<g style="fill:#840000; fill-opacity:0.0; 
stroke:#840000; stroke-width:60; stroke-opacity:1; 
stroke-linecap:round; stroke-linejoin:round;">
<path d="M3940 43310
L4720 43310
" />
</g>
<g style="fill:#840000; fill-opacity:0.0; 
stroke:#840000; stroke-width:100; stroke-opacity:1; 
stroke-linecap:round; stroke-linejoin:round;">
</g>
<g style="fill:#840000; fill-opacity:0.0; 
stroke:#840000; stroke-width:60; stroke-opacity:1; 
stroke-linecap:round; stroke-linejoin:round;">
<path d="M3940 62990
L4720 62990
" />
</g>
<g style="fill:#840000; fill-opacity:0.0; 
stroke:#840000; stroke-width:100; stroke-opacity:1; 
stroke-linecap:round; stroke-linejoin:round;">
</g>
<g style="fill:#840000; fill-opacity:0.0; 
stroke:#840000; stroke-width:60; stroke-opacity:1; 
stroke-linecap:round; stroke-linejoin:round;">
<path d="M4210 13860
L4450 13860
" />
<path d="M4160 14010
L4330 13500
L4500 14010
" />
</g>
<g style="fill:#840000; fill-opacity:0.0; 
stroke:#840000; stroke-width:100; stroke-opacity:1; 
stroke-linecap:round; stroke-linejoin:round;">
</g>
<g style="fill:#840000; fill-opacity:0.0; 
stroke:#840000; stroke-width:60; stroke-opacity:1; 
stroke-linecap:round; stroke-linejoin:round;">
<path d="M4370 33420
L4440 33440
L4470 33470
L4490 33520
L4490 33590
L4470 33640
L4440 33660
L4400 33690
L4200 33690
L4200 33180
L4370 33180
L4420 33200
L4440 33220
L4470 33270
L4470 33320
L4440 33370
L4420 33390
L4370 33420
L4200 33420
" />
</g>
<g style="fill:#840000; fill-opacity:0.0; 
stroke:#840000; stroke-width:100; stroke-opacity:1; 
stroke-linecap:round; stroke-linejoin:round;">
</g>
<g style="fill:#840000; fill-opacity:0.0; 
stroke:#840000; stroke-width:60; stroke-opacity:1; 
stroke-linecap:round; stroke-linejoin:round;">
<path d="M4490 53330
L4470 53350
L4400 53380
L4350 53380
L4270 53350
L4230 53300
L4200 53250
L4180 53160
L4180 53080
L4200 52990
L4230 52940
L4270 52890
L4350 52870
L4400 52870
L4470 52890
L4490 52910
" />
</g>
<g style="fill:#840000; fill-opacity:0.0; 
stroke:#840000; stroke-width:100; stroke-opacity:1; 
stroke-linecap:round; stroke-linejoin:round;">
</g>
<g style="fill:#840000; fill-opacity:0.0; 
stroke:#840000; stroke-width:60; stroke-opacity:1; 
stroke-linecap:round; stroke-linejoin:round;">
<path d="M4200 73060
L4200 72550
L4320 72550
L4400 72570
L4440 72620
L4470 72670
L4490 72760
L4490 72840
L4470 72930
L4440 72980
L4400 73030
L4320 73060
L4200 73060
" />
</g>
<g style="fill:#840000; fill-opacity:0.0; 
stroke:#840000; stroke-width:100; stroke-opacity:1; 
stroke-linecap:round; stroke-linejoin:round;">
</g>
<g style="fill:#840000; fill-opacity:0.0; 
stroke:#840000; stroke-width:60; stroke-opacity:1; 
stroke-linecap:round; stroke-linejoin:round;">
<path d="M112990 23620
L112210 23620
" />
</g>
<g style="fill:#840000; fill-opacity:0.0; 
stroke:#840000; stroke-width:100; stroke-opacity:1; 
stroke-linecap:round; stroke-linejoin:round;">
</g>
<g style="fill:#840000; fill-opacity:0.0; 
stroke:#840000; stroke-width:60; stroke-opacity:1; 
stroke-linecap:round; stroke-linejoin:round;">
<path d="M112990 43310
L112210 43310
" />
</g>
<g style="fill:#840000; fill-opacity:0.0; 
stroke:#840000; stroke-width:100; stroke-opacity:1; 
stroke-linecap:round; stroke-linejoin:round;">
</g>
<g style="fill:#840000; fill-opacity:0.0; 
stroke:#840000; stroke-width:60; stroke-opacity:1; 
stroke-linecap:round; stroke-linejoin:round;">
<path d="M112990 62990
L112210 62990
" />
</g>
<g style="fill:#840000; fill-opacity:0.0; 
stroke:#840000; stroke-width:100; stroke-opacity:1; 
stroke-linecap:round; stroke-linejoin:round;">
</g>
<g style="fill:#840000; fill-opacity:0.0; 
stroke:#840000; stroke-width:60; stroke-opacity:1; 
stroke-linecap:round; stroke-linejoin:round;">
<path d="M112480 13860
L112720 13860
" />
<path d="M112430 14010
L112600 13500
L112770 14010
" />
</g>
<g style="fill:#840000; fill-opacity:0.0; 
stroke:#840000; stroke-width:100; stroke-opacity:1; 
stroke-linecap:round; stroke-linejoin:round;">
</g>
<g style="fill:#840000; fill-opacity:0.0; 
stroke:#840000; stroke-width:60; stroke-opacity:1; 
stroke-linecap:round; stroke-linejoin:round;">
<path d="M112640 33420
L112710 33440
L112740 33470
L112760 33520
L112760 33590
L112740 33640
L112710 33660
L112670 33690
L112470 33690
L112470 33180
L112640 33180
L112690 33200
L112710 33220
L112740 33270
L112740 33320
L112710 33370
L112690 33390
L112640 33420
L112470 33420
" />
</g>
<g style="fill:#840000; fill-opacity:0.0; 
stroke:#840000; stroke-width:100; stroke-opacity:1; 
stroke-linecap:round; stroke-linejoin:round;">
</g>
<g style="fill:#840000; fill-opacity:0.0; 
stroke:#840000; stroke-width:60; stroke-opacity:1; 
stroke-linecap:round; stroke-linejoin:round;">
<path d="M112760 53330
L112740 53350
L112670 53380
L112620 53380
L112540 53350
L112500 53300
L112470 53250
L112450 53160
L112450 53080
L112470 52990
L112500 52940
L112540 52890
L112620 52870
L112670 52870
L112740 52890
L112760 52910
" />
</g>
<g style="fill:#840000; fill-opacity:0.0; 
stroke:#840000; stroke-width:100; stroke-opacity:1; 
stroke-linecap:round; stroke-linejoin:round;">
</g>
<g style="fill:#840000; fill-opacity:0.0; 
stroke:#840000; stroke-width:60; stroke-opacity:1; 
stroke-linecap:round; stroke-linejoin:round;">
<path d="M112470 73060
L112470 72550
L112590 72550
L112670 72570
L112710 72620
L112740 72670
L112760 72760
L112760 72840
L112740 72930
L112710 72980
L112670 73030
L112590 73060
L112470 73060
" />
</g>
<g style="fill:#840000; fill-opacity:0.0; 
stroke:#840000; stroke-width:100; stroke-opacity:1; 
stroke-linecap:round; stroke-linejoin:round;">
</g>
<g style="fill:#840000; fill-opacity:0.0; 
stroke:#840000; stroke-width:60; stroke-opacity:1; 
stroke-linecap:round; stroke-linejoin:round;">
<path d="M78880 76290
L78880 75700
L79020 75700
L79110 75730
L79160 75790
L79190 75840
L79220 75950
L79220 76040
L79190 76150
L79160 76210
L79110 76260
L79020 76290
L78880 76290
" />
<path d="M79720 76290
L79720 75980
L79700 75930
L79640 75900
L79530 75900
L79470 75930
" />
<path d="M79720 76260
L79670 76290
L79530 76290
L79470 76260
L79440 76210
L79440 76150
L79470 76100
L79530 76070
L79670 76070
L79720 76040
" />
<path d="M79920 75900
L80140 75900
" />
<path d="M80000 75700
L80000 76210
L80030 76260
L80080 76290
L80140 76290
" />
<path d="M80570 76260
L80510 76290
L80400 76290
L80340 76260
L80310 76210
L80310 75980
L80340 75930
L80400 75900
L80510 75900
L80570 75930
L80590 75980
L80590 76040
L80310 76100
" />
<path d="M80850 76240
L80880 76260
L80850 76290
L80820 76260
L80850 76240
L80850 76290
" />
<path d="M80850 75930
L80880 75950
L80850 75980
L80820 75950
L80850 75930
L80850 75980
" />
</g>
<g style="fill:#840000; fill-opacity:0.0; 
stroke:#840000; stroke-width:100; stroke-opacity:1; 
stroke-linecap:round; stroke-linejoin:round;">
</g>
<g style="fill:#840000; fill-opacity:0.0; 
stroke:#840000; stroke-width:60; stroke-opacity:1; 
stroke-linecap:round; stroke-linejoin:round;">
<path d="M69690 76580
L112210 76580
" />
</g>
<g style="fill:#840000; fill-opacity:0.0; 
stroke:#840000; stroke-width:100; stroke-opacity:1; 
stroke-linecap:round; stroke-linejoin:round;">
</g>
<g style="fill:#840000; fill-opacity:0.0; 
stroke:#840000; stroke-width:60; stroke-opacity:1; 
stroke-linecap:round; stroke-linejoin:round;">
<path d="M70220 77390
L70220 76800
" />
<path d="M70560 77390
L70300 77050
" />
<path d="M70560 76800
L70220 77140
" />
<path d="M70810 77390
L70810 77000
" />
<path d="M70810 76800
L70780 76830
L70810 76860
L70840 76830
L70810 76800
L70810 76860
" />
<path d="M71430 77340
L71400 77360
L71320 77390
L71260 77390
L71170 77360
L71120 77310
L71090 77250
L71060 77140
L71060 77050
L71090 76940
L71120 76890
L71170 76830
L71260 76800
L71320 76800
L71400 76830
L71430 76860
" />
<path d="M71930 77390
L71930 77080
L71910 77030
L71850 77000
L71740 77000
L71680 77030
" />
<path d="M71930 77360
L71880 77390
L71740 77390
L71680 77360
L71650 77310
L71650 77250
L71680 77200
L71740 77170
L71880 77170
L71930 77140
" />
<path d="M72460 77390
L72460 76800
" />
<path d="M72460 77360
L72410 77390
L72290 77390
L72240 77360
L72210 77340
L72180 77280
L72180 77110
L72210 77050
L72240 77030
L72290 77000
L72410 77000
L72460 77030
" />
<path d="M73190 77080
L73390 77080
" />
<path d="M73470 77390
L73190 77390
L73190 76800
L73470 76800
" />
<path d="M73720 77340
L73750 77360
L73720 77390
L73690 77360
L73720 77340
L73720 77390
" />
<path d="M74000 77390
L74000 76800
L74140 76800
L74230 76830
L74280 76890
L74310 76940
L74340 77050
L74340 77140
L74310 77250
L74280 77310
L74230 77360
L74140 77390
L74000 77390
" />
<path d="M74590 77340
L74620 77360
L74590 77390
L74560 77360
L74590 77340
L74590 77390
" />
<path d="M74840 77220
L75120 77220
" />
<path d="M74790 77390
L74980 76800
L75180 77390
" />
<path d="M75380 77340
L75410 77360
L75380 77390
L75350 77360
L75380 77340
L75380 77390
" />
<path d="M76560 77390
L76560 76800
" />
<path d="M76620 77170
L76790 77390
" />
<path d="M76790 77000
L76560 77220
" />
<path d="M77040 77390
L77040 77000
" />
<path d="M77040 76800
L77010 76830
L77040 76860
L77070 76830
L77040 76800
L77040 76860
" />
<path d="M77570 77360
L77520 77390
L77400 77390
L77350 77360
L77320 77340
L77290 77280
L77290 77110
L77320 77050
L77350 77030
L77400 77000
L77520 77000
L77570 77030
" />
<path d="M78080 77390
L78080 77080
L78060 77030
L78000 77000
L77890 77000
L77830 77030
" />
<path d="M78080 77360
L78030 77390
L77890 77390
L77830 77360
L77800 77310
L77800 77250
L77830 77200
L77890 77170
L78030 77170
L78080 77140
" />
<path d="M78610 77390
L78610 76800
" />
<path d="M78610 77360
L78560 77390
L78440 77390
L78390 77360
L78360 77340
L78330 77280
L78330 77110
L78360 77050
L78390 77030
L78440 77000
L78560 77000
L78610 77030
" />
<path d="M79590 77000
L79590 77390
" />
<path d="M79450 76770
L79310 77200
L79680 77200
" />
<path d="M79900 77340
L79930 77360
L79900 77390
L79870 77360
L79900 77340
L79900 77390
" />
<path d="M80290 76800
L80350 76800
L80410 76830
L80430 76860
L80460 76910
L80490 77030
L80490 77170
L80460 77280
L80430 77340
L80410 77360
L80350 77390
L80290 77390
L80240 77360
L80210 77340
L80180 77280
L80150 77170
L80150 77030
L80180 76910
L80210 76860
L80240 76830
L80290 76800
" />
<path d="M80740 77340
L80770 77360
L80740 77390
L80710 77360
L80740 77340
L80740 77390
" />
<path d="M80990 76860
L81020 76830
L81080 76800
L81220 76800
L81270 76830
L81300 76860
L81330 76910
L81330 76970
L81300 77050
L80960 77390
L81330 77390
" />
<path d="M81580 77170
L82030 77170
" />
<path d="M81810 77390
L81810 76940
" />
<path d="M82560 77390
L82560 76800
" />
<path d="M82560 77360
L82510 77390
L82390 77390
L82340 77360
L82310 77340
L82280 77280
L82280 77110
L82310 77050
L82340 77030
L82390 77000
L82510 77000
L82560 77030
" />
<path d="M82760 77000
L82980 77000
" />
<path d="M82840 77390
L82840 76890
L82870 76830
L82920 76800
L82980 76800
" />
<path d="M83150 77360
L83210 77390
L83320 77390
L83380 77360
L83410 77310
L83410 77280
L83380 77220
L83320 77200
L83240 77200
L83180 77170
L83150 77110
L83150 77080
L83180 77030
L83240 77000
L83320 77000
L83380 77030
" />
<path d="M83910 77000
L83910 77480
L83890 77530
L83860 77560
L83800 77590
L83720 77590
L83660 77560
" />
<path d="M83910 77360
L83860 77390
L83740 77390
L83690 77360
L83660 77340
L83630 77280
L83630 77110
L83660 77050
L83690 77030
L83740 77000
L83860 77000
L83910 77030
" />
<path d="M84500 77390
L84160 77390
" />
<path d="M84330 77390
L84330 76800
L84270 76890
L84220 76940
L84160 76970
" />
<path d="M84750 77170
L85200 77170
" />
<path d="M85450 77360
L85510 77390
L85620 77390
L85680 77360
L85710 77310
L85710 77280
L85680 77220
L85620 77200
L85540 77200
L85480 77170
L85450 77110
L85450 77080
L85480 77030
L85540 77000
L85620 77000
L85680 77030
" />
<path d="M85880 77000
L86100 77000
" />
<path d="M85960 76800
L85960 77310
L85990 77360
L86040 77390
L86100 77390
" />
<path d="M86550 77390
L86550 77080
L86530 77030
L86470 77000
L86360 77000
L86300 77030
" />
<path d="M86550 77360
L86500 77390
L86360 77390
L86300 77360
L86270 77310
L86270 77250
L86300 77200
L86360 77170
L86500 77170
L86550 77140
" />
<path d="M86830 77390
L86830 76800
" />
<path d="M86830 77030
L86890 77000
L87000 77000
L87060 77030
L87080 77050
L87110 77110
L87110 77280
L87080 77340
L87060 77360
L87000 77390
L86890 77390
L86830 77360
" />
<path d="M87440 77390
L87390 77360
L87360 77310
L87360 76800
" />
<path d="M87900 77360
L87840 77390
L87730 77390
L87670 77360
L87640 77310
L87640 77080
L87670 77030
L87730 77000
L87840 77000
L87900 77030
L87920 77080
L87920 77140
L87640 77200
" />
</g>
<g style="fill:#840000; fill-opacity:0.0; 
stroke:#840000; stroke-width:100; stroke-opacity:1; 
stroke-linecap:round; stroke-linejoin:round;">
</g>
<g style="fill:#840000; fill-opacity:0.0; 
stroke:#840000; stroke-width:60; stroke-opacity:1; 
stroke-linecap:round; stroke-linejoin:round;">
<path d="M69690 75400
L112210 75400
" />
</g>
<g style="fill:#840000; fill-opacity:0.0; 
stroke:#840000; stroke-width:100; stroke-opacity:1; 
stroke-linecap:round; stroke-linejoin:round;">
</g>
<g style="fill:#840000; fill-opacity:0.0; 
stroke:#840000; stroke-width:120; stroke-opacity:1; 
stroke-linecap:round; stroke-linejoin:round;">
<path d="M104020 76290
L103820 76010
" />
<path d="M103680 76290
L103680 75700
L103910 75700
L103960 75730
L103990 75760
L104020 75810
L104020 75900
L103990 75950
L103960 75980
L103910 76010
L103680 76010
" />
<path d="M104500 76260
L104440 76290
L104330 76290
L104270 76260
L104240 76210
L104240 75980
L104270 75930
L104330 75900
L104440 75900
L104500 75930
L104520 75980
L104520 76040
L104240 76100
" />
<path d="M104720 75900
L104860 76290
L105010 75900
" />
<path d="M105230 76240
L105260 76260
L105230 76290
L105200 76260
L105230 76240
L105230 76290
" />
<path d="M105230 75930
L105260 75950
L105230 75980
L105200 75950
L105230 75930
L105230 75980
" />
</g>
<g style="fill:#840000; fill-opacity:0.0; 
stroke:#840000; stroke-width:100; stroke-opacity:1; 
stroke-linecap:round; stroke-linejoin:round;">
</g>
<g style="fill:#840000; fill-opacity:0.0; 
stroke:#840000; stroke-width:60; stroke-opacity:1; 
stroke-linecap:round; stroke-linejoin:round;">
<path d="M70190 76260
L70280 76290
L70420 76290
L70470 76260
L70500 76240
L70530 76180
L70530 76120
L70500 76070
L70470 76040
L70420 76010
L70300 75980
L70250 75950
L70220 75930
L70190 75870
L70190 75810
L70220 75760
L70250 75730
L70300 75700
L70450 75700
L70530 75730
" />
<path d="M70780 76290
L70780 75900
" />
<path d="M70780 75700
L70750 75730
L70780 75760
L70810 75730
L70780 75700
L70780 75760
" />
<path d="M71000 75900
L71310 75900
L71000 76290
L71310 76290
" />
<path d="M71770 76260
L71710 76290
L71600 76290
L71540 76260
L71510 76210
L71510 75980
L71540 75930
L71600 75900
L71710 75900
L71770 75930
L71790 75980
L71790 76040
L71510 76100
" />
<path d="M72050 76240
L72080 76260
L72050 76290
L72020 76260
L72050 76240
L72050 76290
" />
<path d="M72050 75930
L72080 75950
L72050 75980
L72020 75950
L72050 75930
L72050 75980
" />
<path d="M72750 76120
L73030 76120
" />
<path d="M72700 76290
L72890 75700
L73090 76290
" />
<path d="M73540 75900
L73540 76290
" />
<path d="M73400 75670
L73260 76100
L73630 76100
" />
</g>
<g style="fill:#840000; fill-opacity:0.0; 
stroke:#840000; stroke-width:100; stroke-opacity:1; 
stroke-linecap:round; stroke-linejoin:round;">
</g>
<g style="fill:#840000; fill-opacity:0.0; 
stroke:#840000; stroke-width:60; stroke-opacity:1; 
stroke-linecap:round; stroke-linejoin:round;">
<path d="M103680 77390
L103680 76800
" />
<path d="M104210 77390
L104210 76800
" />
<path d="M104210 77360
L104160 77390
L104040 77390
L103990 77360
L103960 77340
L103930 77280
L103930 77110
L103960 77050
L103990 77030
L104040 77000
L104160 77000
L104210 77030
" />
<path d="M104490 77340
L104520 77360
L104490 77390
L104460 77360
L104490 77340
L104490 77390
" />
<path d="M104490 77030
L104520 77050
L104490 77080
L104460 77050
L104490 77030
L104490 77080
" />
<path d="M105530 77390
L105190 77390
" />
<path d="M105360 77390
L105360 76800
L105300 76890
L105250 76940
L105190 76970
" />
<path d="M106200 76770
L105700 77530
" />
<path d="M106710 77390
L106370 77390
" />
<path d="M106540 77390
L106540 76800
L106480 76890
L106430 76940
L106370 76970
" />
</g>
<g style="fill:#840000; fill-opacity:0.0; 
stroke:#840000; stroke-width:100; stroke-opacity:1; 
stroke-linecap:round; stroke-linejoin:round;">
</g>
<g style="fill:#840000; fill-opacity:0.0; 
stroke:#840000; stroke-width:60; stroke-opacity:1; 
stroke-linecap:round; stroke-linejoin:round;">
<path d="M69690 73820
L112210 73820
" />
</g>
<g style="fill:#840000; fill-opacity:0.0; 
stroke:#840000; stroke-width:100; stroke-opacity:1; 
stroke-linecap:round; stroke-linejoin:round;">
</g>
<g style="fill:#840000; fill-opacity:0.0; 
stroke:#840000; stroke-width:160; stroke-opacity:1; 
stroke-linecap:round; stroke-linejoin:round;">
<path d="M70260 74090
L70710 74090
" />
<path d="M70390 74880
L70480 74090
" />
<path d="M70880 74880
L70940 74360
" />
<path d="M70970 74090
L70930 74130
L70960 74170
L71010 74130
L70970 74090
L70960 74170
" />
<path d="M71210 74360
L71510 74360
" />
<path d="M71350 74090
L71270 74770
L71300 74840
L71370 74880
L71450 74880
" />
<path d="M71820 74880
L71750 74840
L71720 74770
L71800 74090
" />
<path d="M72420 74840
L72340 74880
L72190 74880
L72120 74840
L72090 74770
L72130 74470
L72180 74390
L72250 74360
L72400 74360
L72480 74390
L72510 74470
L72500 74540
L72110 74620
" />
<path d="M72800 74810
L72840 74840
L72800 74880
L72760 74840
L72800 74810
L72800 74880
" />
<path d="M72860 74390
L72890 74430
L72850 74470
L72810 74430
L72860 74390
L72850 74470
" />
</g>
<g style="fill:#840000; fill-opacity:0.0; 
stroke:#840000; stroke-width:100; stroke-opacity:1; 
stroke-linecap:round; stroke-linejoin:round;">
</g>
<g style="fill:#840000; fill-opacity:0.0; 
stroke:#840000; stroke-width:60; stroke-opacity:1; 
stroke-linecap:round; stroke-linejoin:round;">
<path d="M70420 73060
L70220 73060
" />
<path d="M70220 73370
L70220 72780
L70500 72780
" />
<path d="M70730 73370
L70730 72980
" />
<path d="M70730 72780
L70700 72810
L70730 72840
L70760 72810
L70730 72780
L70730 72840
" />
<path d="M71090 73370
L71040 73340
L71010 73290
L71010 72780
" />
<path d="M71550 73340
L71490 73370
L71380 73370
L71320 73340
L71290 73290
L71290 73060
L71320 73010
L71380 72980
L71490 72980
L71550 73010
L71570 73060
L71570 73120
L71290 73180
" />
<path d="M71830 73320
L71860 73340
L71830 73370
L71800 73340
L71830 73320
L71830 73370
" />
<path d="M71830 73010
L71860 73030
L71830 73060
L71800 73030
L71830 73010
L71830 73060
" />
<path d="M72810 73370
L72810 73060
L72790 73010
L72730 72980
L72620 72980
L72560 73010
" />
<path d="M72810 73340
L72760 73370
L72620 73370
L72560 73340
L72530 73290
L72530 73230
L72560 73180
L72620 73150
L72760 73150
L72810 73120
" />
<path d="M73090 73370
L73090 72980
" />
<path d="M73090 72780
L73060 72810
L73090 72840
L73120 72810
L73090 72780
L73090 72840
" />
<path d="M73370 73370
L73370 72980
" />
<path d="M73370 73090
L73400 73030
L73430 73010
L73480 72980
L73540 72980
" />
<path d="M73990 73340
L73940 73370
L73820 73370
L73770 73340
L73740 73320
L73710 73260
L73710 73090
L73740 73030
L73770 73010
L73820 72980
L73940 72980
L73990 73010
" />
<path d="M74330 73370
L74280 73340
L74250 73320
L74220 73260
L74220 73090
L74250 73030
L74280 73010
L74330 72980
L74420 72980
L74480 73010
L74500 73030
L74530 73090
L74530 73260
L74500 73320
L74480 73340
L74420 73370
L74330 73370
" />
<path d="M74780 72980
L74780 73370
" />
<path d="M74780 73030
L74810 73010
L74860 72980
L74950 72980
L75010 73010
L75030 73060
L75030 73370
" />
<path d="M75760 73370
L75760 72780
" />
<path d="M75760 73010
L75820 72980
L75930 72980
L75990 73010
L76010 73030
L76040 73090
L76040 73260
L76010 73320
L75990 73340
L75930 73370
L75820 73370
L75760 73340
" />
<path d="M76370 73370
L76320 73340
L76290 73320
L76260 73260
L76260 73090
L76290 73030
L76320 73010
L76370 72980
L76460 72980
L76520 73010
L76540 73030
L76570 73090
L76570 73260
L76540 73320
L76520 73340
L76460 73370
L76370 73370
" />
<path d="M77070 73370
L77070 73060
L77050 73010
L76990 72980
L76880 72980
L76820 73010
" />
<path d="M77070 73340
L77020 73370
L76880 73370
L76820 73340
L76790 73290
L76790 73230
L76820 73180
L76880 73150
L77020 73150
L77070 73120
" />
<path d="M77350 73370
L77350 72980
" />
<path d="M77350 73090
L77380 73030
L77410 73010
L77460 72980
L77520 72980
" />
<path d="M77970 73370
L77970 72780
" />
<path d="M77970 73340
L77920 73370
L77800 73370
L77750 73340
L77720 73320
L77690 73260
L77690 73090
L77720 73030
L77750 73010
L77800 72980
L77920 72980
L77970 73010
" />
<path d="M78250 73320
L78280 73340
L78250 73370
L78220 73340
L78250 73320
L78250 73370
" />
<path d="M78500 73340
L78560 73370
L78670 73370
L78730 73340
L78760 73290
L78760 73260
L78730 73200
L78670 73180
L78590 73180
L78530 73150
L78500 73090
L78500 73060
L78530 73010
L78590 72980
L78670 72980
L78730 73010
" />
<path d="M79260 73340
L79210 73370
L79090 73370
L79040 73340
L79010 73320
L78980 73260
L78980 73090
L79010 73030
L79040 73010
L79090 72980
L79210 72980
L79260 73010
" />
<path d="M79520 73370
L79520 72780
" />
<path d="M79770 73370
L79770 73060
L79750 73010
L79690 72980
L79600 72980
L79550 73010
L79520 73030
" />
</g>
<g style="fill:#840000; fill-opacity:0.0; 
stroke:#840000; stroke-width:100; stroke-opacity:1; 
stroke-linecap:round; stroke-linejoin:round;">
</g>
<g style="fill:#840000; fill-opacity:0.0; 
stroke:#840000; stroke-width:60; stroke-opacity:1; 
stroke-linecap:round; stroke-linejoin:round;">
<path d="M69690 71460
L112210 71460
" />
</g>
<g style="fill:#840000; fill-opacity:0.0; 
stroke:#840000; stroke-width:100; stroke-opacity:1; 
stroke-linecap:round; stroke-linejoin:round;">
</g>
<g style="fill:#840000; fill-opacity:0.0; 
stroke:#840000; stroke-width:60; stroke-opacity:1; 
stroke-linecap:round; stroke-linejoin:round;">
<path d="M70190 72280
L70280 72310
L70420 72310
L70470 72280
L70500 72260
L70530 72200
L70530 72140
L70500 72090
L70470 72060
L70420 72030
L70300 72000
L70250 71970
L70220 71950
L70190 71890
L70190 71830
L70220 71780
L70250 71750
L70300 71720
L70450 71720
L70530 71750
" />
<path d="M70780 72310
L70780 71720
" />
<path d="M71030 72310
L71030 72000
L71010 71950
L70950 71920
L70860 71920
L70810 71950
L70780 71970
" />
<path d="M71540 72280
L71480 72310
L71370 72310
L71310 72280
L71280 72230
L71280 72000
L71310 71950
L71370 71920
L71480 71920
L71540 71950
L71560 72000
L71560 72060
L71280 72120
" />
<path d="M72050 72280
L71990 72310
L71880 72310
L71820 72280
L71790 72230
L71790 72000
L71820 71950
L71880 71920
L71990 71920
L72050 71950
L72070 72000
L72070 72060
L71790 72120
" />
<path d="M72250 71920
L72470 71920
" />
<path d="M72330 71720
L72330 72230
L72360 72280
L72410 72310
L72470 72310
" />
<path d="M72670 72260
L72700 72280
L72670 72310
L72640 72280
L72670 72260
L72670 72310
" />
<path d="M72670 71950
L72700 71970
L72670 72000
L72640 71970
L72670 71950
L72670 72000
" />
<path d="M73820 71690
L73320 72450
" />
</g>
<g style="fill:#840000; fill-opacity:0.0; 
stroke:#840000; stroke-width:100; stroke-opacity:1; 
stroke-linecap:round; stroke-linejoin:round;">
</g>
<g style="fill:#840000; fill-opacity:0.0; 
stroke:#840000; stroke-width:60; stroke-opacity:1; 
stroke-linecap:round; stroke-linejoin:round;">
<path d="M77560 75400
L77560 76580
" />
</g>
<g style="fill:#840000; fill-opacity:0.0; 
stroke:#840000; stroke-width:100; stroke-opacity:1; 
stroke-linecap:round; stroke-linejoin:round;">
</g>
<g style="fill:#840000; fill-opacity:0.0; 
stroke:#840000; stroke-width:60; stroke-opacity:1; 
stroke-linecap:round; stroke-linejoin:round;">
<path d="M102760 75400
L102760 77960
" />
</g>
<g style="fill:#840000; fill-opacity:0.0; 
stroke:#840000; stroke-width:0; stroke-opacity:1; 
stroke-linecap:round; stroke-linejoin:round;">
</g>
<g style="fill:#840000; fill-opacity:1.0; 
stroke:#840000; stroke-width:60; stroke-opacity:1; 
stroke-linecap:round; stroke-linejoin:round;">
<polyline style="fill-rule:evenodd;"
points="31000,25000
32000,24500
31000,24000
" /> 
</g>
<g style="fill:#840000; fill-opacity:0.0; 
stroke:#840000; stroke-width:80; stroke-opacity:1; 
stroke-linecap:round; stroke-linejoin:round;">
<polyline fill="none;"
points="32250,24750
32250,25000
32000,25000
32000,24000
31750,24000
31750,24250
" /> 
</g>
<g style="fill:#840000; fill-opacity:0.0; 
stroke:#840000; stroke-width:60; stroke-opacity:1; 
stroke-linecap:round; stroke-linejoin:round;">
<path d="M32000 24500
L33000 24500
" />
<path d="M31000 24500
L30000 24500
" />
</g>
<g style="fill:#008484; fill-opacity:0.0; 
stroke:#008484; stroke-width:60; stroke-opacity:1; 
stroke-linecap:round; stroke-linejoin:round;">
<path d="M31130 25760
L31130 25260
L31250 25260
L31320 25280
L31370 25330
L31390 25380
L31410 25470
L31410 25540
L31390 25640
L31370 25680
L31320 25730
L31250 25760
L31130 25760
" />
<path d="M31890 25760
L31610 25760
" />
<path d="M31750 25760
L31750 25260
L31700 25330
L31650 25380
L31610 25400
" />
<path d="M29590 23760
L29590 23260
L29710 23260
L29780 23280
L29830 23330
L29850 23380
L29870 23470
L29870 23540
L29850 23640
L29830 23680
L29780 23730
L29710 23760
L29590 23760
" />
<path d="M29970 23800
L30350 23800
" />
<path d="M30450 23730
L30520 23760
L30640 23760
L30680 23730
L30710 23710
L30730 23660
L30730 23610
L30710 23570
L30680 23540
L30640 23520
L30540 23490
L30490 23470
L30470 23450
L30450 23400
L30450 23350
L30470 23300
L30490 23280
L30540 23260
L30660 23260
L30730 23280
" />
<path d="M31160 23730
L31120 23760
L31020 23760
L30970 23730
L30950 23710
L30930 23660
L30930 23520
L30950 23470
L30970 23450
L31020 23420
L31120 23420
L31160 23450
" />
<path d="M31380 23760
L31380 23260
" />
<path d="M31590 23760
L31590 23490
L31570 23450
L31520 23420
L31450 23420
L31400 23450
L31380 23470
" />
<path d="M31900 23760
L31850 23730
L31830 23710
L31810 23660
L31810 23520
L31830 23470
L31850 23450
L31900 23420
L31970 23420
L32020 23450
L32040 23470
L32070 23520
L32070 23660
L32040 23710
L32020 23730
L31970 23760
L31900 23760
" />
<path d="M32210 23420
L32400 23420
" />
<path d="M32280 23260
L32280 23680
L32300 23730
L32350 23760
L32400 23760
" />
<path d="M32500 23420
L32690 23420
" />
<path d="M32570 23260
L32570 23680
L32590 23730
L32640 23760
L32690 23760
" />
<path d="M32860 23760
L32860 23260
" />
<path d="M32910 23570
L33050 23760
" />
<path d="M33050 23420
L32860 23610
" />
<path d="M33210 23420
L33330 23760
" />
<path d="M33450 23420
L33330 23760
L33280 23880
L33260 23900
L33210 23920
" />
</g>
<g style="fill:#008484; fill-opacity:0.0; 
stroke:#008484; stroke-width:0; stroke-opacity:1; 
stroke-linecap:round; stroke-linejoin:round;">
</g>
<g style="fill:#840000; fill-opacity:0.0; 
stroke:#840000; stroke-width:0; stroke-opacity:1; 
stroke-linecap:round; stroke-linejoin:round;">
</g>
<g style="fill:#840000; fill-opacity:0.0; 
stroke:#840000; stroke-width:60; stroke-opacity:1; 
stroke-linecap:round; stroke-linejoin:round;">
<rect x="37500" y="19500" width="9500" height="8000" rx="0" />
<path d="M47000 20500
L49000 20500
" />
</g>
<g style="fill:#008484; fill-opacity:0.0; 
stroke:#008484; stroke-width:60; stroke-opacity:1; 
stroke-linecap:round; stroke-linejoin:round;">
<path d="M45460 20250
L45410 20230
L45340 20230
L45270 20250
L45220 20300
L45200 20350
L45180 20440
L45180 20510
L45200 20610
L45220 20650
L45270 20700
L45340 20730
L45390 20730
L45460 20700
L45480 20680
L45480 20510
L45390 20510
" />
<path d="M45700 20730
L45700 20230
L45980 20730
L45980 20230
" />
<path d="M46220 20730
L46220 20230
L46340 20230
L46410 20250
L46460 20300
L46480 20350
L46500 20440
L46500 20510
L46480 20610
L46460 20650
L46410 20700
L46340 20730
L46220 20730
" />
</g>
<g style="fill:#840000; fill-opacity:0.0; 
stroke:#840000; stroke-width:60; stroke-opacity:1; 
stroke-linecap:round; stroke-linejoin:round;">
<path d="M48140 20380
L47860 20380
" />
<path d="M48000 20380
L48000 19880
L47950 19950
L47900 20000
L47860 20020
" />
<path d="M47000 22000
L49000 22000
" />
</g>
<g style="fill:#008484; fill-opacity:0.0; 
stroke:#008484; stroke-width:60; stroke-opacity:1; 
stroke-linecap:round; stroke-linejoin:round;">
<path d="M45460 21750
L45410 21730
L45340 21730
L45270 21750
L45220 21800
L45200 21850
L45180 21940
L45180 22010
L45200 22110
L45220 22150
L45270 22200
L45340 22230
L45390 22230
L45460 22200
L45480 22180
L45480 22010
L45390 22010
" />
<path d="M45700 22230
L45700 21730
L45980 22230
L45980 21730
" />
<path d="M46220 22230
L46220 21730
L46340 21730
L46410 21750
L46460 21800
L46480 21850
L46500 21940
L46500 22010
L46480 22110
L46460 22150
L46410 22200
L46340 22230
L46220 22230
" />
</g>
<g style="fill:#840000; fill-opacity:0.0; 
stroke:#840000; stroke-width:60; stroke-opacity:1; 
stroke-linecap:round; stroke-linejoin:round;">
<path d="M47860 21420
L47880 21400
L47930 21380
L48050 21380
L48090 21400
L48120 21420
L48140 21470
L48140 21520
L48120 21590
L47830 21880
L48140 21880
" />
<path d="M47000 24500
L49000 24500
" />
</g>
<g style="fill:#008484; fill-opacity:0.0; 
stroke:#008484; stroke-width:60; stroke-opacity:1; 
stroke-linecap:round; stroke-linejoin:round;">
<path d="M45220 24230
L45380 24730
L45550 24230
" />
<path d="M46000 24680
L45980 24700
L45910 24730
L45860 24730
L45790 24700
L45740 24650
L45720 24610
L45700 24510
L45700 24440
L45720 24350
L45740 24300
L45790 24250
L45860 24230
L45910 24230
L45980 24250
L46000 24270
" />
<path d="M46500 24680
L46480 24700
L46410 24730
L46360 24730
L46290 24700
L46240 24650
L46220 24610
L46200 24510
L46200 24440
L46220 24350
L46240 24300
L46290 24250
L46360 24230
L46410 24230
L46480 24250
L46500 24270
" />
</g>
<g style="fill:#840000; fill-opacity:0.0; 
stroke:#840000; stroke-width:60; stroke-opacity:1; 
stroke-linecap:round; stroke-linejoin:round;">
<path d="M47830 23880
L48140 23880
L47970 24070
L48050 24070
L48090 24090
L48120 24110
L48140 24160
L48140 24280
L48120 24330
L48090 24350
L48050 24380
L47900 24380
L47860 24350
L47830 24330
" />
<path d="M47000 26000
L49000 26000
" />
</g>
<g style="fill:#008484; fill-opacity:0.0; 
stroke:#008484; stroke-width:60; stroke-opacity:1; 
stroke-linecap:round; stroke-linejoin:round;">
<path d="M45220 25730
L45380 26230
L45550 25730
" />
<path d="M46000 26180
L45980 26200
L45910 26230
L45860 26230
L45790 26200
L45740 26150
L45720 26110
L45700 26010
L45700 25940
L45720 25850
L45740 25800
L45790 25750
L45860 25730
L45910 25730
L45980 25750
L46000 25770
" />
<path d="M46500 26180
L46480 26200
L46410 26230
L46360 26230
L46290 26200
L46240 26150
L46220 26110
L46200 26010
L46200 25940
L46220 25850
L46240 25800
L46290 25750
L46360 25730
L46410 25730
L46480 25750
L46500 25770
" />
</g>
<g style="fill:#840000; fill-opacity:0.0; 
stroke:#840000; stroke-width:60; stroke-opacity:1; 
stroke-linecap:round; stroke-linejoin:round;">
<path d="M48090 25540
L48090 25880
" />
<path d="M47970 25350
L47860 25710
L48160 25710
" />
<path d="M37500 26000
L35500 26000
" />
</g>
<g style="fill:#008484; fill-opacity:0.0; 
stroke:#008484; stroke-width:60; stroke-opacity:1; 
stroke-linecap:round; stroke-linejoin:round;">
<path d="M37950 25730
L38110 26230
L38280 25730
" />
<path d="M38450 26230
L38450 25730
" />
<path d="M38690 26230
L38690 25730
L38970 26230
L38970 25730
" />
</g>
<g style="fill:#840000; fill-opacity:0.0; 
stroke:#840000; stroke-width:60; stroke-opacity:1; 
stroke-linecap:round; stroke-linejoin:round;">
<path d="M36620 25380
L36380 25380
L36360 25610
L36380 25590
L36430 25570
L36550 25570
L36590 25590
L36620 25610
L36640 25660
L36640 25780
L36620 25830
L36590 25850
L36550 25880
L36430 25880
L36380 25850
L36360 25830
" />
<path d="M37500 24500
L35500 24500
" />
</g>
<g style="fill:#008484; fill-opacity:0.0; 
stroke:#008484; stroke-width:60; stroke-opacity:1; 
stroke-linecap:round; stroke-linejoin:round;">
<path d="M37950 24230
L38110 24730
L38280 24230
" />
<path d="M38450 24730
L38450 24230
" />
<path d="M38690 24730
L38690 24230
L38970 24730
L38970 24230
" />
</g>
<g style="fill:#840000; fill-opacity:0.0; 
stroke:#840000; stroke-width:60; stroke-opacity:1; 
stroke-linecap:round; stroke-linejoin:round;">
<path d="M36590 23880
L36500 23880
L36450 23900
L36430 23920
L36380 24000
L36360 24090
L36360 24280
L36380 24330
L36400 24350
L36450 24380
L36550 24380
L36590 24350
L36620 24330
L36640 24280
L36640 24160
L36620 24110
L36590 24090
L36550 24070
L36450 24070
L36400 24090
L36380 24110
L36360 24160
" />
<path d="M37500 22000
L35500 22000
" />
</g>
<g style="fill:#008484; fill-opacity:0.0; 
stroke:#008484; stroke-width:60; stroke-opacity:1; 
stroke-linecap:round; stroke-linejoin:round;">
<path d="M38280 21750
L38230 21730
L38160 21730
L38090 21750
L38040 21800
L38020 21850
L38000 21940
L38000 22010
L38020 22110
L38040 22150
L38090 22200
L38160 22230
L38210 22230
L38280 22200
L38300 22180
L38300 22010
L38210 22010
" />
<path d="M38520 22230
L38520 21730
L38800 22230
L38800 21730
" />
<path d="M39040 22230
L39040 21730
L39160 21730
L39230 21750
L39280 21800
L39300 21850
L39320 21940
L39320 22010
L39300 22110
L39280 22150
L39230 22200
L39160 22230
L39040 22230
" />
<path d="M39540 22230
L39540 21730
" />
<path d="M39780 22230
L39780 21730
L40060 22230
L40060 21730
" />
</g>
<g style="fill:#840000; fill-opacity:0.0; 
stroke:#840000; stroke-width:60; stroke-opacity:1; 
stroke-linecap:round; stroke-linejoin:round;">
<path d="M36330 21380
L36660 21380
L36450 21880
" />
<path d="M37500 20500
L35500 20500
" />
</g>
<g style="fill:#008484; fill-opacity:0.0; 
stroke:#008484; stroke-width:60; stroke-opacity:1; 
stroke-linecap:round; stroke-linejoin:round;">
<path d="M38280 20250
L38230 20230
L38160 20230
L38090 20250
L38040 20300
L38020 20350
L38000 20440
L38000 20510
L38020 20610
L38040 20650
L38090 20700
L38160 20730
L38210 20730
L38280 20700
L38300 20680
L38300 20510
L38210 20510
" />
<path d="M38520 20730
L38520 20230
L38800 20730
L38800 20230
" />
<path d="M39040 20730
L39040 20230
L39160 20230
L39230 20250
L39280 20300
L39300 20350
L39320 20440
L39320 20510
L39300 20610
L39280 20650
L39230 20700
L39160 20730
L39040 20730
" />
<path d="M39540 20730
L39540 20230
" />
<path d="M39780 20730
L39780 20230
L40060 20730
L40060 20230
" />
</g>
<g style="fill:#840000; fill-opacity:0.0; 
stroke:#840000; stroke-width:60; stroke-opacity:1; 
stroke-linecap:round; stroke-linejoin:round;">
<path d="M36450 20090
L36400 20070
L36380 20040
L36360 20000
L36360 19970
L36380 19920
L36400 19900
L36450 19880
L36550 19880
L36590 19900
L36620 19920
L36640 19970
L36640 20000
L36620 20040
L36590 20070
L36550 20090
L36450 20090
L36400 20110
L36380 20140
L36360 20190
L36360 20280
L36380 20330
L36400 20350
L36450 20380
L36550 20380
L36590 20350
L36620 20330
L36640 20280
L36640 20190
L36620 20140
L36590 20110
L36550 20090
" />
</g>
<g style="fill:#008484; fill-opacity:0.0; 
stroke:#008484; stroke-width:60; stroke-opacity:1; 
stroke-linecap:round; stroke-linejoin:round;">
<path d="M42540 22140
L42540 22630
L42570 22680
L42600 22710
L42660 22740
L42770 22740
L42830 22710
L42860 22680
L42890 22630
L42890 22140
" />
<path d="M43490 22740
L43140 22740
" />
<path d="M43320 22740
L43320 22140
L43260 22230
L43200 22280
L43140 22310
" />
<path d="M40380 18640
L40580 19240
L40780 18640
" />
<path d="M41320 19240
L41120 18960
" />
<path d="M40970 19240
L40970 18640
L41200 18640
L41260 18670
L41290 18700
L41320 18760
L41320 18840
L41290 18900
L41260 18930
L41200 18960
L40970 18960
" />
<path d="M41570 18930
L41770 18930
" />
<path d="M41860 19240
L41570 19240
L41570 18640
L41860 18640
" />
<path d="M42430 18670
L42370 18640
L42280 18640
L42200 18670
L42140 18730
L42110 18780
L42080 18900
L42080 18980
L42110 19100
L42140 19160
L42200 19210
L42280 19240
L42340 19240
L42430 19210
L42460 19180
L42460 18980
L42340 18980
" />
<path d="M42570 19300
L43030 19300
" />
<path d="M43120 18640
L43490 18640
L43290 18870
L43370 18870
L43430 18900
L43460 18930
L43490 18980
L43490 19130
L43460 19180
L43430 19210
L43370 19240
L43200 19240
L43140 19210
L43120 19180
" />
<path d="M43660 18640
L43860 19240
L44060 18640
" />
<path d="M44200 18640
L44570 18640
L44370 18870
L44450 18870
L44510 18900
L44540 18930
L44570 18980
L44570 19130
L44540 19180
L44510 19210
L44450 19240
L44280 19240
L44220 19210
L44200 19180
" />
</g>
<g style="fill:#008484; fill-opacity:0.0; 
stroke:#008484; stroke-width:0; stroke-opacity:1; 
stroke-linecap:round; stroke-linejoin:round;">
</g>
<g style="fill:#840000; fill-opacity:0.0; 
stroke:#840000; stroke-width:0; stroke-opacity:1; 
stroke-linecap:round; stroke-linejoin:round;">
</g>
<g style="fill:#840000; fill-opacity:0.0; 
stroke:#840000; stroke-width:60; stroke-opacity:1; 
stroke-linecap:round; stroke-linejoin:round;">
<polyline fill="none;"
points="57000,26500
57000,25500
" /> 
<polyline fill="none;"
points="57300,25750
57750,25350
57700,25600
" /> 
<polyline fill="none;"
points="57150,25600
57600,25200
57550,25450
" /> 
</g>
<g style="fill:#840000; fill-opacity:1.0; 
stroke:#840000; stroke-width:60; stroke-opacity:1; 
stroke-linecap:round; stroke-linejoin:round;">
<polyline style="fill-rule:evenodd;"
points="56000,26500
57000,26000
56000,25500
" /> 
</g>
<g style="fill:#840000; fill-opacity:0.0; 
stroke:#840000; stroke-width:60; stroke-opacity:1; 
stroke-linecap:round; stroke-linejoin:round;">
<path d="M57000 26000
L58500 26000
" />
<path d="M57860 25880
L57640 25880
" />
<path d="M57750 25880
L57750 25480
L57710 25540
L57670 25580
L57640 25600
" />
<path d="M56000 26000
L54500 26000
" />
<path d="M55140 25520
L55160 25500
L55190 25480
L55290 25480
L55330 25500
L55350 25520
L55360 25560
L55360 25600
L55350 25650
L55120 25880
L55360 25880
" />
</g>
<g style="fill:#008484; fill-opacity:0.0; 
stroke:#008484; stroke-width:60; stroke-opacity:1; 
stroke-linecap:round; stroke-linejoin:round;">
<path d="M56130 27260
L56130 26760
L56250 26760
L56320 26780
L56370 26830
L56390 26880
L56410 26970
L56410 27040
L56390 27140
L56370 27180
L56320 27230
L56250 27260
L56130 27260
" />
<path d="M56610 26800
L56630 26780
L56680 26760
L56800 26760
L56840 26780
L56870 26800
L56890 26850
L56890 26900
L56870 26970
L56580 27260
L56890 27260
" />
<path d="M56180 25260
L55940 25260
L55940 24760
" />
<path d="M56340 24990
L56510 24990
" />
<path d="M56580 25260
L56340 25260
L56340 24760
L56580 24760
" />
<path d="M56790 25260
L56790 24760
L56910 24760
L56980 24780
L57030 24830
L57050 24880
L57070 24970
L57070 25040
L57050 25140
L57030 25180
L56980 25230
L56910 25260
L56790 25260
" />
</g>
<g style="fill:#008484; fill-opacity:0.0; 
stroke:#008484; stroke-width:0; stroke-opacity:1; 
stroke-linecap:round; stroke-linejoin:round;">
</g>
<g style="fill:#840000; fill-opacity:0.0; 
stroke:#840000; stroke-width:0; stroke-opacity:1; 
stroke-linecap:round; stroke-linejoin:round;">
</g>
<g style="fill:#840000; fill-opacity:0.0; 
stroke:#840000; stroke-width:100; stroke-opacity:1; 
stroke-linecap:round; stroke-linejoin:round;">
<circle cx="62000" cy="23500" r="1110" /> 
</g>
<g style="fill:#840000; fill-opacity:0.0; 
stroke:#840000; stroke-width:60; stroke-opacity:1; 
stroke-linecap:round; stroke-linejoin:round;">
<polyline fill="none;"
points="62500,23500
62250,23500
" /> 
<polyline fill="none;"
points="61500,22500
62250,23250
" /> 
<polyline fill="none;"
points="61500,24500
62250,23750
" /> 
</g>
<g style="fill:#840000; fill-opacity:0.0; 
stroke:#840000; stroke-width:200; stroke-opacity:1; 
stroke-linecap:round; stroke-linejoin:round;">
<polyline fill="none;"
points="62250,24250
62250,22750
62250,22750
" /> 
</g>
<g style="fill:#840000; fill-opacity:0.0; 
stroke:#840000; stroke-width:60; stroke-opacity:1; 
stroke-linecap:round; stroke-linejoin:round;">
<polyline fill="none;"
points="61550,22550
61750,22750
61750,22750
" /> 
</g>
<g style="fill:#840000; fill-opacity:1.0; 
stroke:#840000; stroke-width:60; stroke-opacity:1; 
stroke-linecap:round; stroke-linejoin:round;">
<polyline style="fill-rule:evenodd;"
points="61950,22750
61750,22950
61550,22550
61950,22750
61950,22750
" /> 
</g>
<g style="fill:#840000; fill-opacity:0.0; 
stroke:#840000; stroke-width:60; stroke-opacity:1; 
stroke-linecap:round; stroke-linejoin:round;">
<path d="M61500 22500
L61500 21500
" />
</g>
<g style="fill:#008484; fill-opacity:0.0; 
stroke:#008484; stroke-width:60; stroke-opacity:1; 
stroke-linecap:round; stroke-linejoin:round;">
<path d="M61110 22100
L61110 21930
" />
<path d="M61380 21860
L61380 22100
L60880 22100
L60880 21860
" />
</g>
<g style="fill:#840000; fill-opacity:0.0; 
stroke:#840000; stroke-width:60; stroke-opacity:1; 
stroke-linecap:round; stroke-linejoin:round;">
<path d="M62080 21860
L62080 22140
" />
<path d="M62080 22000
L61580 22000
L61650 22050
L61700 22100
L61720 22140
" />
<path d="M62500 23500
L64500 23500
" />
</g>
<g style="fill:#008484; fill-opacity:0.0; 
stroke:#008484; stroke-width:60; stroke-opacity:1; 
stroke-linecap:round; stroke-linejoin:round;">
<path d="M63540 23110
L63610 23140
L63630 23160
L63650 23210
L63650 23280
L63630 23330
L63610 23350
L63560 23380
L63370 23380
L63370 22880
L63540 22880
L63580 22900
L63610 22920
L63630 22970
L63630 23020
L63610 23070
L63580 23090
L63540 23110
L63370 23110
" />
</g>
<g style="fill:#840000; fill-opacity:0.0; 
stroke:#840000; stroke-width:60; stroke-opacity:1; 
stroke-linecap:round; stroke-linejoin:round;">
<path d="M63360 23620
L63380 23600
L63430 23580
L63550 23580
L63590 23600
L63620 23620
L63640 23670
L63640 23720
L63620 23790
L63330 24080
L63640 24080
" />
<path d="M61500 24500
L61500 25500
" />
</g>
<g style="fill:#008484; fill-opacity:0.0; 
stroke:#008484; stroke-width:60; stroke-opacity:1; 
stroke-linecap:round; stroke-linejoin:round;">
<path d="M61330 24850
L61350 24870
L61380 24940
L61380 24990
L61350 25060
L61300 25110
L61260 25130
L61160 25150
L61090 25150
L61000 25130
L60950 25110
L60900 25060
L60880 24990
L60880 24940
L60900 24870
L60920 24850
" />
</g>
<g style="fill:#840000; fill-opacity:0.0; 
stroke:#840000; stroke-width:60; stroke-opacity:1; 
stroke-linecap:round; stroke-linejoin:round;">
<path d="M61580 25170
L61580 24860
L61770 25030
L61770 24950
L61790 24910
L61810 24880
L61860 24860
L61980 24860
L62030 24880
L62050 24910
L62080 24950
L62080 25100
L62050 25140
L62030 25170
" />
</g>
<g style="fill:#008484; fill-opacity:0.0; 
stroke:#008484; stroke-width:60; stroke-opacity:1; 
stroke-linecap:round; stroke-linejoin:round;">
<path d="M59950 24550
L59900 24530
L59860 24480
L59790 24410
L59740 24390
L59690 24390
" />
<path d="M59710 24510
L59670 24480
L59620 24430
L59600 24340
L59600 24170
L59620 24080
L59670 24030
L59710 24010
L59810 24010
L59860 24030
L59900 24080
L59930 24170
L59930 24340
L59900 24430
L59860 24480
L59810 24510
L59710 24510
" />
<path d="M60400 24510
L60120 24510
" />
<path d="M60260 24510
L60260 24010
L60210 24080
L60160 24130
L60120 24150
" />
<path d="M57250 23760
L57250 23260
L57440 23260
L57490 23280
L57510 23300
L57530 23350
L57530 23420
L57510 23470
L57490 23490
L57440 23520
L57250 23520
" />
<path d="M57750 23760
L57750 23260
L58030 23760
L58030 23260
" />
<path d="M58250 23300
L58270 23280
L58320 23260
L58440 23260
L58480 23280
L58510 23300
L58530 23350
L58530 23400
L58510 23470
L58220 23760
L58530 23760
" />
<path d="M58730 23300
L58750 23280
L58800 23260
L58920 23260
L58960 23280
L58990 23300
L59010 23350
L59010 23400
L58990 23470
L58700 23760
L59010 23760
" />
<path d="M59210 23300
L59230 23280
L59280 23260
L59400 23260
L59440 23280
L59470 23300
L59490 23350
L59490 23400
L59470 23470
L59180 23760
L59490 23760
" />
<path d="M59690 23300
L59710 23280
L59760 23260
L59880 23260
L59920 23280
L59950 23300
L59970 23350
L59970 23400
L59950 23470
L59660 23760
L59970 23760
" />
<path d="M60170 23610
L60400 23610
" />
<path d="M60120 23760
L60280 23260
L60450 23760
" />
</g>
<g style="fill:#008484; fill-opacity:0.0; 
stroke:#008484; stroke-width:0; stroke-opacity:1; 
stroke-linecap:round; stroke-linejoin:round;">
</g>
<g style="fill:#840000; fill-opacity:0.0; 
stroke:#840000; stroke-width:0; stroke-opacity:1; 
stroke-linecap:round; stroke-linejoin:round;">
</g>
<g style="fill:#840000; fill-opacity:0.0; 
stroke:#840000; stroke-width:60; stroke-opacity:1; 
stroke-linecap:round; stroke-linejoin:round;">
<polyline fill="none;"
points="57000,28500
57150,28100
" /> 
<polyline fill="none;"
points="57150,28100
57400,28900
" /> 
<polyline fill="none;"
points="57400,28900
57650,28100
" /> 
<polyline fill="none;"
points="57650,28100
57900,28900
" /> 
<polyline fill="none;"
points="57900,28900
58150,28100
" /> 
<polyline fill="none;"
points="58150,28100
58400,28900
" /> 
<polyline fill="none;"
points="58400,28900
58650,28100
" /> 
<polyline fill="none;"
points="58650,28100
58900,28900
" /> 
<polyline fill="none;"
points="58900,28900
59000,28500
" /> 
<path d="M57000 28500
L56000 28500
" />
<path d="M59000 28500
L60000 28500
" />
</g>
<g style="fill:#008484; fill-opacity:0.0; 
stroke:#008484; stroke-width:60; stroke-opacity:1; 
stroke-linecap:round; stroke-linejoin:round;">
<path d="M56360 27910
L56210 27690
" />
<path d="M56110 27910
L56110 27460
L56280 27460
L56320 27480
L56340 27500
L56360 27540
L56360 27610
L56340 27650
L56320 27670
L56280 27690
L56110 27690
" />
<path d="M56790 27910
L56540 27910
" />
<path d="M56660 27910
L56660 27460
L56620 27520
L56580 27570
L56540 27590
" />
<path d="M56340 29910
L56090 29910
" />
<path d="M56210 29910
L56210 29460
L56170 29520
L56130 29570
L56090 29590
" />
<path d="M56620 29460
L56670 29460
L56710 29480
L56730 29500
L56750 29540
L56770 29630
L56770 29740
L56750 29820
L56730 29870
L56710 29890
L56670 29910
L56620 29910
L56580 29890
L56560 29870
L56540 29820
L56520 29740
L56520 29630
L56540 29540
L56560 29500
L56580 29480
L56620 29460
" />
<path d="M56970 29910
L56970 29460
" />
<path d="M57220 29910
L57030 29650
" />
<path d="M57220 29460
L56970 29720
" />
<path d="M57500 29460
L57590 29460
L57630 29480
L57670 29520
L57700 29610
L57700 29760
L57670 29840
L57630 29890
L57590 29910
L57500 29910
L57460 29890
L57420 29840
L57400 29760
L57400 29610
L57420 29520
L57460 29480
L57500 29460
" />
<path d="M57890 29910
L57890 29460
" />
<path d="M57890 29670
L58140 29670
" />
<path d="M58140 29910
L58140 29460
" />
<path d="M58360 29910
L58360 29460
L58510 29780
L58660 29460
L58660 29910
" />
<path d="M58870 29740
L59210 29740
" />
<path d="M59430 29910
L59430 29460
" />
<path d="M59430 29670
L59680 29670
" />
<path d="M59680 29910
L59680 29460
" />
<path d="M59980 29460
L60070 29460
L60110 29480
L60150 29520
L60180 29610
L60180 29760
L60150 29840
L60110 29890
L60070 29910
L59980 29910
L59940 29890
L59900 29840
L59880 29760
L59880 29610
L59900 29520
L59940 29480
L59980 29460
" />
<path d="M60620 29910
L60470 29690
" />
<path d="M60370 29910
L60370 29460
L60540 29460
L60580 29480
L60600 29500
L60620 29540
L60620 29610
L60600 29650
L60580 29670
L60540 29690
L60370 29690
" />
<path d="M60820 29910
L60820 29460
" />
<path d="M60980 29460
L61280 29460
L60980 29910
L61280 29910
" />
<path d="M61460 29740
L61800 29740
" />
<path d="M62250 29910
L62000 29910
" />
<path d="M62120 29910
L62120 29460
L62080 29520
L62040 29570
L62000 29590
" />
<path d="M62340 29950
L62680 29950
" />
<path d="M62980 29610
L62980 29910
" />
<path d="M62870 29440
L62770 29760
L63040 29760
" />
<path d="M63170 29460
L63280 29910
L63370 29590
L63450 29910
L63560 29460
" />
<path d="M63730 29740
L64070 29740
" />
<path d="M64500 29460
L64290 29460
L64270 29670
L64290 29650
L64330 29630
L64440 29630
L64480 29650
L64500 29670
L64520 29720
L64520 29820
L64500 29870
L64480 29890
L64440 29910
L64330 29910
L64290 29890
L64270 29870
" />
<path d="M64700 29910
L65040 29460
" />
<path d="M64760 29460
L64800 29480
L64820 29520
L64800 29570
L64760 29590
L64720 29570
L64700 29520
L64720 29480
L64760 29460
" />
<path d="M65020 29890
L65040 29840
L65020 29800
L64970 29780
L64930 29800
L64910 29840
L64930 29890
L64970 29910
L65020 29890
" />
</g>
<g style="fill:#840084; fill-opacity:0.0; 
stroke:#840084; stroke-width:60; stroke-opacity:1; 
stroke-linecap:round; stroke-linejoin:round;">
<path d="M55840 26740
L55640 26460
" />
<path d="M55490 26740
L55490 26140
L55720 26140
L55780 26170
L55810 26200
L55840 26260
L55840 26340
L55810 26400
L55780 26430
L55720 26460
L55490 26460
" />
<path d="M56090 26430
L56290 26430
" />
<path d="M56380 26740
L56090 26740
L56090 26140
L56380 26140
" />
<path d="M56600 26710
L56690 26740
L56830 26740
L56890 26710
L56920 26680
L56950 26630
L56950 26570
L56920 26510
L56890 26480
L56830 26460
L56720 26430
L56660 26400
L56630 26370
L56600 26310
L56600 26260
L56630 26200
L56660 26170
L56720 26140
L56860 26140
L56950 26170
" />
<path d="M57200 26510
L57660 26510
" />
<path d="M58060 26140
L58110 26140
L58170 26170
L58200 26200
L58230 26260
L58260 26370
L58260 26510
L58230 26630
L58200 26680
L58170 26710
L58110 26740
L58060 26740
L58000 26710
L57970 26680
L57940 26630
L57910 26510
L57910 26370
L57940 26260
L57970 26200
L58000 26170
L58060 26140
" />
<path d="M58540 26740
L58660 26740
L58710 26710
L58740 26680
L58800 26600
L58830 26480
L58830 26260
L58800 26200
L58770 26170
L58710 26140
L58600 26140
L58540 26170
L58510 26200
L58480 26260
L58480 26400
L58510 26460
L58540 26480
L58600 26510
L58710 26510
L58770 26480
L58800 26460
L58830 26400
" />
<path d="M59340 26340
L59340 26740
" />
<path d="M59200 26110
L59050 26540
L59430 26540
" />
<path d="M59600 26140
L59970 26140
L59770 26370
L59850 26370
L59910 26400
L59940 26430
L59970 26480
L59970 26630
L59940 26680
L59910 26710
L59850 26740
L59680 26740
L59620 26710
L59600 26680
" />
<path d="M60510 26140
L60220 26140
L60190 26430
L60220 26400
L60280 26370
L60420 26370
L60480 26400
L60510 26430
L60540 26480
L60540 26630
L60510 26680
L60480 26710
L60420 26740
L60280 26740
L60220 26710
L60190 26680
" />
</g>
<g style="fill:#840084; fill-opacity:0.0; 
stroke:#840084; stroke-width:0; stroke-opacity:1; 
stroke-linecap:round; stroke-linejoin:round;">
</g>
<g style="fill:#840000; fill-opacity:0.0; 
stroke:#840000; stroke-width:0; stroke-opacity:1; 
stroke-linecap:round; stroke-linejoin:round;">
</g>
<g style="fill:#FFFFC2; fill-opacity:0.0; 
stroke:#FFFFC2; stroke-width:0; stroke-opacity:1; 
stroke-linecap:round; stroke-linejoin:round;">
</g>
<g style="fill:#FFFFC2; fill-opacity:0.6; 
stroke:#FFFFC2; stroke-width:0; stroke-opacity:1; 
stroke-linecap:round; stroke-linejoin:round;">
<rect x="63500" y="30000" width="4000" height="3000" rx="0" />
</g>
<g style="fill:#840000; fill-opacity:0.6; 
stroke:#840000; stroke-width:0; stroke-opacity:1; 
stroke-linecap:round; stroke-linejoin:round;">
</g>
<g style="fill:#840000; fill-opacity:0.0; 
stroke:#840000; stroke-width:60; stroke-opacity:1; 
stroke-linecap:round; stroke-linejoin:round;">
<rect x="63500" y="30000" width="4000" height="3000" rx="0" />
<path d="M67000 30000
L67000 29000
" />
</g>
<g style="fill:#008484; fill-opacity:0.0; 
stroke:#008484; stroke-width:60; stroke-opacity:1; 
stroke-linecap:round; stroke-linejoin:round;">
<path d="M67180 30480
L67180 30700
" />
<path d="M67180 30590
L66780 30590
L66840 30630
L66880 30670
L66900 30700
" />
</g>
<g style="fill:#840000; fill-opacity:0.0; 
stroke:#840000; stroke-width:60; stroke-opacity:1; 
stroke-linecap:round; stroke-linejoin:round;">
<path d="M67000 33000
L67000 34000
" />
</g>
<g style="fill:#008484; fill-opacity:0.0; 
stroke:#008484; stroke-width:60; stroke-opacity:1; 
stroke-linecap:round; stroke-linejoin:round;">
<path d="M66820 32520
L66800 32500
L66780 32470
L66780 32370
L66800 32330
L66820 32310
L66860 32300
L66900 32300
L66950 32310
L67180 32540
L67180 32300
" />
</g>
<g style="fill:#840000; fill-opacity:0.0; 
stroke:#840000; stroke-width:60; stroke-opacity:1; 
stroke-linecap:round; stroke-linejoin:round;">
<path d="M66000 30000
L66000 29000
" />
</g>
<g style="fill:#008484; fill-opacity:0.0; 
stroke:#008484; stroke-width:60; stroke-opacity:1; 
stroke-linecap:round; stroke-linejoin:round;">
<path d="M65780 30720
L65780 30480
L65930 30610
L65930 30550
L65950 30510
L65970 30490
L66010 30480
L66100 30480
L66140 30490
L66160 30510
L66180 30550
L66180 30670
L66160 30700
L66140 30720
" />
</g>
<g style="fill:#840000; fill-opacity:0.0; 
stroke:#840000; stroke-width:60; stroke-opacity:1; 
stroke-linecap:round; stroke-linejoin:round;">
<path d="M66000 33000
L66000 34000
" />
</g>
<g style="fill:#008484; fill-opacity:0.0; 
stroke:#008484; stroke-width:60; stroke-opacity:1; 
stroke-linecap:round; stroke-linejoin:round;">
<path d="M65910 32330
L66180 32330
" />
<path d="M65760 32430
L66050 32520
L66050 32280
" />
</g>
<g style="fill:#840000; fill-opacity:0.0; 
stroke:#840000; stroke-width:60; stroke-opacity:1; 
stroke-linecap:round; stroke-linejoin:round;">
<path d="M65000 30000
L65000 29000
" />
</g>
<g style="fill:#008484; fill-opacity:0.0; 
stroke:#008484; stroke-width:60; stroke-opacity:1; 
stroke-linecap:round; stroke-linejoin:round;">
<path d="M64780 30490
L64780 30680
L64970 30700
L64950 30680
L64930 30650
L64930 30550
L64950 30510
L64970 30490
L65010 30480
L65100 30480
L65140 30490
L65160 30510
L65180 30550
L65180 30650
L65160 30680
L65140 30700
" />
</g>
<g style="fill:#840000; fill-opacity:0.0; 
stroke:#840000; stroke-width:60; stroke-opacity:1; 
stroke-linecap:round; stroke-linejoin:round;">
<path d="M65000 33000
L65000 34000
" />
</g>
<g style="fill:#008484; fill-opacity:0.0; 
stroke:#008484; stroke-width:60; stroke-opacity:1; 
stroke-linecap:round; stroke-linejoin:round;">
<path d="M64780 32330
L64780 32410
L64800 32450
L64820 32470
L64880 32500
L64950 32520
L65100 32520
L65140 32500
L65160 32490
L65180 32450
L65180 32370
L65160 32330
L65140 32310
L65100 32300
L65010 32300
L64970 32310
L64950 32330
L64930 32370
L64930 32450
L64950 32490
L64970 32500
L65010 32520
" />
</g>
<g style="fill:#840000; fill-opacity:0.0; 
stroke:#840000; stroke-width:60; stroke-opacity:1; 
stroke-linecap:round; stroke-linejoin:round;">
<path d="M64000 30000
L64000 29000
" />
</g>
<g style="fill:#008484; fill-opacity:0.0; 
stroke:#008484; stroke-width:60; stroke-opacity:1; 
stroke-linecap:round; stroke-linejoin:round;">
<path d="M63780 30720
L63780 30460
L64180 30630
" />
</g>
<g style="fill:#840000; fill-opacity:0.0; 
stroke:#840000; stroke-width:60; stroke-opacity:1; 
stroke-linecap:round; stroke-linejoin:round;">
<path d="M64000 33000
L64000 34000
" />
</g>
<g style="fill:#008484; fill-opacity:0.0; 
stroke:#008484; stroke-width:60; stroke-opacity:1; 
stroke-linecap:round; stroke-linejoin:round;">
<path d="M63950 32450
L63930 32490
L63910 32500
L63880 32520
L63860 32520
L63820 32500
L63800 32490
L63780 32450
L63780 32370
L63800 32330
L63820 32310
L63860 32300
L63880 32300
L63910 32310
L63930 32330
L63950 32370
L63950 32450
L63970 32490
L63990 32500
L64030 32520
L64100 32520
L64140 32500
L64160 32490
L64180 32450
L64180 32370
L64160 32330
L64140 32310
L64100 32300
L64030 32300
L63990 32310
L63970 32330
L63950 32370
" />
<path d="M68030 30520
L68350 30520
L68410 30550
L68460 30590
L68480 30650
L68480 30700
" />
<path d="M68480 30080
L68480 30330
" />
<path d="M68480 30210
L68030 30210
L68090 30250
L68140 30290
L68160 30330
" />
<path d="M62940 33560
L62960 33580
L62980 33640
L62980 33680
L62960 33750
L62910 33790
L62870 33810
L62790 33830
L62720 33830
L62640 33810
L62590 33790
L62550 33750
L62530 33680
L62530 33640
L62550 33580
L62570 33560
" />
<path d="M62530 33280
L62530 33190
L62550 33150
L62590 33110
L62680 33080
L62830 33080
L62910 33110
L62960 33150
L62980 33190
L62980 33280
L62960 33320
L62910 33360
L62830 33380
L62680 33380
L62590 33360
L62550 33320
L62530 33280
" />
<path d="M62980 32890
L62530 32890
L62980 32640
L62530 32640
" />
<path d="M62980 32420
L62530 32420
L62980 32170
L62530 32170
" />
<path d="M63020 32060
L63020 31720
" />
<path d="M62530 31530
L62530 31480
L62550 31440
L62570 31420
L62610 31400
L62700 31380
L62810 31380
L62890 31400
L62940 31420
L62960 31440
L62980 31480
L62980 31530
L62960 31570
L62940 31590
L62890 31610
L62810 31630
L62700 31630
L62610 31610
L62570 31590
L62550 31570
L62530 31530
" />
<path d="M62680 30990
L62980 30990
" />
<path d="M62510 31100
L62830 31200
L62830 30930
" />
<path d="M62530 30800
L62980 30500
" />
<path d="M62530 30500
L62980 30800
" />
<path d="M62570 30340
L62550 30320
L62530 30280
L62530 30170
L62550 30130
L62570 30110
L62610 30090
L62660 30090
L62720 30110
L62980 30370
L62980 30090
" />
</g>
<g style="fill:#840084; fill-opacity:0.0; 
stroke:#840084; stroke-width:60; stroke-opacity:1; 
stroke-linecap:round; stroke-linejoin:round;">
<path d="M69200 34060
L69800 33660
" />
<path d="M69200 33660
L69800 34060
" />
<path d="M69200 33490
L69800 33090
" />
<path d="M69200 33090
L69800 33490
" />
<path d="M69200 32920
L69800 32520
" />
<path d="M69200 32520
L69800 32920
" />
<path d="M69570 32300
L69570 31840
" />
<path d="M69200 31440
L69200 31390
L69230 31330
L69260 31300
L69320 31270
L69430 31240
L69570 31240
L69690 31270
L69740 31300
L69770 31330
L69800 31390
L69800 31440
L69770 31500
L69740 31530
L69690 31560
L69570 31590
L69430 31590
L69320 31560
L69260 31530
L69230 31500
L69200 31440
" />
<path d="M69200 30870
L69200 30820
L69230 30760
L69260 30730
L69320 30700
L69430 30670
L69570 30670
L69690 30700
L69740 30730
L69770 30760
L69800 30820
L69800 30870
L69770 30930
L69740 30960
L69690 30990
L69570 31020
L69430 31020
L69320 30990
L69260 30960
L69230 30930
L69200 30870
" />
<path d="M69200 30300
L69200 30250
L69230 30190
L69260 30160
L69320 30130
L69430 30100
L69570 30100
L69690 30130
L69740 30160
L69770 30190
L69800 30250
L69800 30300
L69770 30360
L69740 30390
L69690 30420
L69570 30450
L69430 30450
L69320 30420
L69260 30390
L69230 30360
L69200 30300
" />
<path d="M69200 29730
L69200 29680
L69230 29620
L69260 29590
L69320 29560
L69430 29530
L69570 29530
L69690 29560
L69740 29590
L69770 29620
L69800 29680
L69800 29730
L69770 29790
L69740 29820
L69690 29850
L69570 29880
L69430 29880
L69320 29850
L69260 29820
L69230 29790
L69200 29730
" />
<path d="M69200 29160
L69200 29110
L69230 29050
L69260 29020
L69320 28990
L69430 28960
L69570 28960
L69690 28990
L69740 29020
L69770 29050
L69800 29110
L69800 29160
L69770 29220
L69740 29250
L69690 29280
L69570 29310
L69430 29310
L69320 29280
L69260 29250
L69230 29220
L69200 29160
" />
</g>
<g style="fill:#840084; fill-opacity:0.0; 
stroke:#840084; stroke-width:0; stroke-opacity:1; 
stroke-linecap:round; stroke-linejoin:round;">
</g>
<g style="fill:#840000; fill-opacity:0.0; 
stroke:#840000; stroke-width:0; stroke-opacity:1; 
stroke-linecap:round; stroke-linejoin:round;">
</g>
<g style="fill:#840000; fill-opacity:0.0; 
stroke:#840000; stroke-width:60; stroke-opacity:1; 
stroke-linecap:round; stroke-linejoin:round;">
<polyline fill="none;"
points="49500,19500
49500,19000
50000,19000
49500,18500
49000,19000
49500,19000
" /> 
</g>
<g style="fill:#008484; fill-opacity:0.0; 
stroke:#008484; stroke-width:60; stroke-opacity:1; 
stroke-linecap:round; stroke-linejoin:round;">
<path d="M49120 17780
L49070 17760
L49000 17760
L48930 17780
L48880 17830
L48860 17880
L48840 17970
L48840 18040
L48860 18140
L48880 18180
L48930 18230
L49000 18260
L49050 18260
L49120 18230
L49140 18210
L49140 18040
L49050 18040
" />
<path d="M49360 18260
L49360 17760
L49640 18260
L49640 17760
" />
<path d="M49880 18260
L49880 17760
L50000 17760
L50070 17780
L50120 17830
L50140 17880
L50160 17970
L50160 18040
L50140 18140
L50120 18180
L50070 18230
L50000 18260
L49880 18260
" />
</g>
<g style="fill:#008400; fill-opacity:0.0; 
stroke:#008400; stroke-width:60; stroke-opacity:1; 
stroke-linecap:round; stroke-linejoin:round;">
<path d="M24500 24500
L30000 24500
" />
<path d="M33000 24500
L35500 24500
" />
<path d="M35500 24500
L35500 26000
" />
<path d="M35500 20500
L35500 22500
" />
<path d="M24500 22500
L24500 23500
" />
<path d="M35500 22500
L24500 22500
" />
</g>
<g style="fill:#008400; fill-opacity:0.0; 
stroke:#008400; stroke-width:0; stroke-opacity:1; 
stroke-linecap:round; stroke-linejoin:round;">
</g>
<g style="fill:#008400; fill-opacity:1.0; 
stroke:#008400; stroke-width:100; stroke-opacity:1; 
stroke-linecap:round; stroke-linejoin:round;">
<circle cx="35500" cy="22000" r="200" /> 
</g>
<g style="fill:#008400; fill-opacity:1.0; 
stroke:#008400; stroke-width:60; stroke-opacity:1; 
stroke-linecap:round; stroke-linejoin:round;">
</g>
<g style="fill:#008400; fill-opacity:0.0; 
stroke:#008400; stroke-width:60; stroke-opacity:1; 
stroke-linecap:round; stroke-linejoin:round;">
<path d="M49000 20500
L49500 20500
" />
<path d="M49500 20500
L49500 19500
" />
<path d="M49000 20500
L49000 22000
" />
<path d="M49000 26000
L49000 24500
" />
</g>
<g style="fill:#008400; fill-opacity:0.0; 
stroke:#008400; stroke-width:0; stroke-opacity:1; 
stroke-linecap:round; stroke-linejoin:round;">
</g>
<g style="fill:#840000; fill-opacity:0.0; 
stroke:#840000; stroke-width:0; stroke-opacity:1; 
stroke-linecap:round; stroke-linejoin:round;">
</g>
<g style="fill:#840000; fill-opacity:0.0; 
stroke:#840000; stroke-width:60; stroke-opacity:1; 
stroke-linecap:round; stroke-linejoin:round;">
<polyline fill="none;"
points="50700,28000
51000,28500
" /> 
<polyline fill="none;"
points="51000,27500
51000,28500
" /> 
<polyline fill="none;"
points="51000,28500
51300,28000
" /> 
</g>
<g style="fill:#008484; fill-opacity:0.0; 
stroke:#008484; stroke-width:60; stroke-opacity:1; 
stroke-linecap:round; stroke-linejoin:round;">
<path d="M50000 28970
L50380 28970
" />
<path d="M50190 29160
L50190 28780
" />
<path d="M50570 28660
L50880 28660
L50710 28850
L50790 28850
L50830 28870
L50860 28890
L50880 28940
L50880 29060
L50860 29110
L50830 29130
L50790 29160
L50640 29160
L50600 29130
L50570 29110
" />
<path d="M51100 29110
L51120 29130
L51100 29160
L51080 29130
L51100 29110
L51100 29160
" />
<path d="M51290 28660
L51600 28660
L51430 28850
L51510 28850
L51550 28870
L51580 28890
L51600 28940
L51600 29060
L51580 29110
L51550 29130
L51510 29160
L51360 29160
L51320 29130
L51290 29110
" />
<path d="M51750 28660
L51910 29160
L52080 28660
" />
</g>
<g style="fill:#008400; fill-opacity:0.0; 
stroke:#008400; stroke-width:60; stroke-opacity:1; 
stroke-linecap:round; stroke-linejoin:round;">
<path d="M51000 27500
L51000 26000
" />
<path d="M49000 26000
L54500 26000
" />
</g>
<g style="fill:#008400; fill-opacity:0.0; 
stroke:#008400; stroke-width:0; stroke-opacity:1; 
stroke-linecap:round; stroke-linejoin:round;">
</g>
<g style="fill:#008400; fill-opacity:1.0; 
stroke:#008400; stroke-width:100; stroke-opacity:1; 
stroke-linecap:round; stroke-linejoin:round;">
<circle cx="51000" cy="26000" r="200" /> 
</g>
<g style="fill:#008400; fill-opacity:1.0; 
stroke:#008400; stroke-width:60; stroke-opacity:1; 
stroke-linecap:round; stroke-linejoin:round;">
</g>
<g style="fill:#008400; fill-opacity:0.0; 
stroke:#008400; stroke-width:60; stroke-opacity:1; 
stroke-linecap:round; stroke-linejoin:round;">
<path d="M58500 26000
L61500 26000
" />
<path d="M61500 26000
L61500 25500
" />
<path d="M49000 21500
L61500 21500
" />
</g>
<g style="fill:#008400; fill-opacity:0.0; 
stroke:#008400; stroke-width:0; stroke-opacity:1; 
stroke-linecap:round; stroke-linejoin:round;">
</g>
<g style="fill:#008400; fill-opacity:1.0; 
stroke:#008400; stroke-width:100; stroke-opacity:1; 
stroke-linecap:round; stroke-linejoin:round;">
<circle cx="49000" cy="21500" r="200" /> 
</g>
<g style="fill:#008400; fill-opacity:1.0; 
stroke:#008400; stroke-width:60; stroke-opacity:1; 
stroke-linecap:round; stroke-linejoin:round;">
</g>
<g style="fill:#008400; fill-opacity:0.0; 
stroke:#008400; stroke-width:60; stroke-opacity:1; 
stroke-linecap:round; stroke-linejoin:round;">
<path d="M64500 23500
L65000 23500
" />
<path d="M54500 26000
L54500 35000
" />
<path d="M54500 35000
L67000 35000
" />
<path d="M67000 35000
L67000 34000
" />
</g>
<g style="fill:#008400; fill-opacity:0.0; 
stroke:#008400; stroke-width:0; stroke-opacity:1; 
stroke-linecap:round; stroke-linejoin:round;">
</g>
<g style="fill:#008400; fill-opacity:1.0; 
stroke:#008400; stroke-width:100; stroke-opacity:1; 
stroke-linecap:round; stroke-linejoin:round;">
<circle cx="54500" cy="26000" r="200" /> 
</g>
<g style="fill:#008400; fill-opacity:1.0; 
stroke:#008400; stroke-width:60; stroke-opacity:1; 
stroke-linecap:round; stroke-linejoin:round;">
</g>
<g style="fill:#008400; fill-opacity:0.0; 
stroke:#008400; stroke-width:60; stroke-opacity:1; 
stroke-linecap:round; stroke-linejoin:round;">
<path d="M66000 28000
L66000 29000
" />
<path d="M61000 28000
L66000 28000
" />
<path d="M61000 28000
L61000 34500
" />
<path d="M66000 34500
L66000 34000
" />
<path d="M61000 34500
L66000 34500
" />
</g>
<g style="fill:#008400; fill-opacity:0.0; 
stroke:#008400; stroke-width:0; stroke-opacity:1; 
stroke-linecap:round; stroke-linejoin:round;">
</g>
<g style="fill:#008400; fill-opacity:1.0; 
stroke:#008400; stroke-width:100; stroke-opacity:1; 
stroke-linecap:round; stroke-linejoin:round;">
<circle cx="61000" cy="28500" r="200" /> 
</g>
<g style="fill:#008400; fill-opacity:1.0; 
stroke:#008400; stroke-width:60; stroke-opacity:1; 
stroke-linecap:round; stroke-linejoin:round;">
</g>
<g style="fill:#008400; fill-opacity:0.0; 
stroke:#008400; stroke-width:60; stroke-opacity:1; 
stroke-linecap:round; stroke-linejoin:round;">
<path d="M65000 34000
L65000 34500
" />
</g>
<g style="fill:#008400; fill-opacity:0.0; 
stroke:#008400; stroke-width:0; stroke-opacity:1; 
stroke-linecap:round; stroke-linejoin:round;">
</g>
<g style="fill:#008400; fill-opacity:1.0; 
stroke:#008400; stroke-width:100; stroke-opacity:1; 
stroke-linecap:round; stroke-linejoin:round;">
<circle cx="65000" cy="34500" r="200" /> 
</g>
<g style="fill:#008400; fill-opacity:1.0; 
stroke:#008400; stroke-width:60; stroke-opacity:1; 
stroke-linecap:round; stroke-linejoin:round;">
</g>
<g style="fill:#008400; fill-opacity:0.0; 
stroke:#008400; stroke-width:60; stroke-opacity:1; 
stroke-linecap:round; stroke-linejoin:round;">
<path d="M65000 29000
L65000 28000
" />
</g>
<g style="fill:#008400; fill-opacity:0.0; 
stroke:#008400; stroke-width:0; stroke-opacity:1; 
stroke-linecap:round; stroke-linejoin:round;">
</g>
<g style="fill:#008400; fill-opacity:1.0; 
stroke:#008400; stroke-width:100; stroke-opacity:1; 
stroke-linecap:round; stroke-linejoin:round;">
<circle cx="65000" cy="28000" r="200" /> 
</g>
<g style="fill:#008400; fill-opacity:1.0; 
stroke:#008400; stroke-width:60; stroke-opacity:1; 
stroke-linecap:round; stroke-linejoin:round;">
</g>
<g style="fill:#008400; fill-opacity:0.0; 
stroke:#008400; stroke-width:60; stroke-opacity:1; 
stroke-linecap:round; stroke-linejoin:round;">
<path d="M61000 28500
L60000 28500
" />
<path d="M56000 28500
L54500 28500
" />
</g>
<g style="fill:#008400; fill-opacity:0.0; 
stroke:#008400; stroke-width:0; stroke-opacity:1; 
stroke-linecap:round; stroke-linejoin:round;">
</g>
<g style="fill:#008400; fill-opacity:1.0; 
stroke:#008400; stroke-width:100; stroke-opacity:1; 
stroke-linecap:round; stroke-linejoin:round;">
<circle cx="54500" cy="28500" r="200" /> 
</g>
<g style="fill:#008400; fill-opacity:1.0; 
stroke:#008400; stroke-width:60; stroke-opacity:1; 
stroke-linecap:round; stroke-linejoin:round;">
</g>
<g style="fill:#008400; fill-opacity:0.0; 
stroke:#008400; stroke-width:60; stroke-opacity:1; 
stroke-linecap:round; stroke-linejoin:round;">
<path d="M67000 29000
L67000 28000
" />
<path d="M67000 28000
L69000 28000
" />
<path d="M69000 28000
L69000 23500
" />
<path d="M64000 29000
L52500 29000
" />
<path d="M52500 29000
L52500 21500
" />
</g>
<g style="fill:#008400; fill-opacity:0.0; 
stroke:#008400; stroke-width:0; stroke-opacity:1; 
stroke-linecap:round; stroke-linejoin:round;">
</g>
<g style="fill:#008400; fill-opacity:1.0; 
stroke:#008400; stroke-width:100; stroke-opacity:1; 
stroke-linecap:round; stroke-linejoin:round;">
<circle cx="52500" cy="21500" r="200" /> 
</g>
<g style="fill:#008400; fill-opacity:1.0; 
stroke:#008400; stroke-width:0; stroke-opacity:1; 
stroke-linecap:round; stroke-linejoin:round;">
</g>
<g style="fill:#840000; fill-opacity:1.0; 
stroke:#840000; stroke-width:0; stroke-opacity:1; 
stroke-linecap:round; stroke-linejoin:round;">
</g>
<g style="fill:#840000; fill-opacity:0.0; 
stroke:#840000; stroke-width:60; stroke-opacity:1; 
stroke-linecap:round; stroke-linejoin:round;">
<polyline fill="none;"
points="66000,23500
66150,23100
" /> 
<polyline fill="none;"
points="66150,23100
66400,23900
" /> 
<polyline fill="none;"
points="66400,23900
66650,23100
" /> 
<polyline fill="none;"
points="66650,23100
66900,23900
" /> 
<polyline fill="none;"
points="66900,23900
67150,23100
" /> 
<polyline fill="none;"
points="67150,23100
67400,23900
" /> 
<polyline fill="none;"
points="67400,23900
67650,23100
" /> 
<polyline fill="none;"
points="67650,23100
67900,23900
" /> 
<polyline fill="none;"
points="67900,23900
68000,23500
" /> 
<path d="M66000 23500
L65000 23500
" />
<path d="M68000 23500
L69000 23500
" />
</g>
<g style="fill:#008484; fill-opacity:0.0; 
stroke:#008484; stroke-width:60; stroke-opacity:1; 
stroke-linecap:round; stroke-linejoin:round;">
<path d="M65360 22910
L65210 22690
" />
<path d="M65110 22910
L65110 22460
L65280 22460
L65320 22480
L65340 22500
L65360 22540
L65360 22610
L65340 22650
L65320 22670
L65280 22690
L65110 22690
" />
<path d="M65540 22500
L65560 22480
L65600 22460
L65710 22460
L65750 22480
L65770 22500
L65790 22540
L65790 22590
L65770 22650
L65510 22910
L65790 22910
" />
<path d="M65090 24500
L65110 24480
L65150 24460
L65260 24460
L65300 24480
L65320 24500
L65340 24540
L65340 24590
L65320 24650
L65060 24910
L65340 24910
" />
<path d="M65520 24500
L65540 24480
L65580 24460
L65690 24460
L65730 24480
L65750 24500
L65770 24540
L65770 24590
L65750 24650
L65490 24910
L65770 24910
" />
<path d="M66050 24460
L66100 24460
L66140 24480
L66160 24500
L66180 24540
L66200 24630
L66200 24740
L66180 24820
L66160 24870
L66140 24890
L66100 24910
L66050 24910
L66010 24890
L65990 24870
L65970 24820
L65950 24740
L65950 24630
L65970 24540
L65990 24500
L66010 24480
L66050 24460
" />
<path d="M66480 24460
L66570 24460
L66610 24480
L66650 24520
L66680 24610
L66680 24760
L66650 24840
L66610 24890
L66570 24910
L66480 24910
L66440 24890
L66400 24840
L66380 24760
L66380 24610
L66400 24520
L66440 24480
L66480 24460
" />
<path d="M66870 24910
L66870 24460
" />
<path d="M66870 24670
L67120 24670
" />
<path d="M67120 24910
L67120 24460
" />
<path d="M67340 24910
L67340 24460
L67490 24780
L67640 24460
L67640 24910
" />
<path d="M67850 24740
L68190 24740
" />
<path d="M68410 24910
L68410 24460
" />
<path d="M68410 24670
L68660 24670
" />
<path d="M68660 24910
L68660 24460
" />
<path d="M68960 24460
L69050 24460
L69090 24480
L69130 24520
L69160 24610
L69160 24760
L69130 24840
L69090 24890
L69050 24910
L68960 24910
L68920 24890
L68880 24840
L68860 24760
L68860 24610
L68880 24520
L68920 24480
L68960 24460
" />
<path d="M69600 24910
L69450 24690
" />
<path d="M69350 24910
L69350 24460
L69520 24460
L69560 24480
L69580 24500
L69600 24540
L69600 24610
L69580 24650
L69560 24670
L69520 24690
L69350 24690
" />
<path d="M69800 24910
L69800 24460
" />
<path d="M69960 24460
L70260 24460
L69960 24910
L70260 24910
" />
<path d="M70440 24740
L70780 24740
" />
<path d="M71230 24910
L70980 24910
" />
<path d="M71100 24910
L71100 24460
L71060 24520
L71020 24570
L70980 24590
" />
<path d="M71320 24950
L71660 24950
" />
<path d="M71960 24610
L71960 24910
" />
<path d="M71850 24440
L71750 24760
L72020 24760
" />
<path d="M72150 24460
L72260 24910
L72350 24590
L72430 24910
L72540 24460
" />
<path d="M72710 24740
L73050 24740
" />
<path d="M73480 24460
L73270 24460
L73250 24670
L73270 24650
L73310 24630
L73420 24630
L73460 24650
L73480 24670
L73500 24720
L73500 24820
L73480 24870
L73460 24890
L73420 24910
L73310 24910
L73270 24890
L73250 24870
" />
<path d="M73680 24910
L74020 24460
" />
<path d="M73740 24460
L73780 24480
L73800 24520
L73780 24570
L73740 24590
L73700 24570
L73680 24520
L73700 24480
L73740 24460
" />
<path d="M74000 24890
L74020 24840
L74000 24800
L73950 24780
L73910 24800
L73890 24840
L73910 24890
L73950 24910
L74000 24890
" />
</g>
<g style="fill:#840084; fill-opacity:0.0; 
stroke:#840084; stroke-width:60; stroke-opacity:1; 
stroke-linecap:round; stroke-linejoin:round;">
<path d="M64840 21740
L64640 21460
" />
<path d="M64490 21740
L64490 21140
L64720 21140
L64780 21170
L64810 21200
L64840 21260
L64840 21340
L64810 21400
L64780 21430
L64720 21460
L64490 21460
" />
<path d="M65090 21430
L65290 21430
" />
<path d="M65380 21740
L65090 21740
L65090 21140
L65380 21140
" />
<path d="M65600 21710
L65690 21740
L65830 21740
L65890 21710
L65920 21680
L65950 21630
L65950 21570
L65920 21510
L65890 21480
L65830 21460
L65720 21430
L65660 21400
L65630 21370
L65600 21310
L65600 21260
L65630 21200
L65660 21170
L65720 21140
L65860 21140
L65950 21170
" />
<path d="M66200 21510
L66660 21510
" />
<path d="M67060 21140
L67110 21140
L67170 21170
L67200 21200
L67230 21260
L67260 21370
L67260 21510
L67230 21630
L67200 21680
L67170 21710
L67110 21740
L67060 21740
L67000 21710
L66970 21680
L66940 21630
L66910 21510
L66910 21370
L66940 21260
L66970 21200
L67000 21170
L67060 21140
" />
<path d="M67540 21740
L67660 21740
L67710 21710
L67740 21680
L67800 21600
L67830 21480
L67830 21260
L67800 21200
L67770 21170
L67710 21140
L67600 21140
L67540 21170
L67510 21200
L67480 21260
L67480 21400
L67510 21460
L67540 21480
L67600 21510
L67710 21510
L67770 21480
L67800 21460
L67830 21400
" />
<path d="M68340 21340
L68340 21740
" />
<path d="M68200 21110
L68050 21540
L68430 21540
" />
<path d="M68600 21140
L68970 21140
L68770 21370
L68850 21370
L68910 21400
L68940 21430
L68970 21480
L68970 21630
L68940 21680
L68910 21710
L68850 21740
L68680 21740
L68620 21710
L68600 21680
" />
<path d="M69510 21140
L69220 21140
L69190 21430
L69220 21400
L69280 21370
L69420 21370
L69480 21400
L69510 21430
L69540 21480
L69540 21630
L69510 21680
L69480 21710
L69420 21740
L69280 21740
L69220 21710
L69190 21680
" />
</g>
<g style="fill:#840084; fill-opacity:0.0; 
stroke:#840084; stroke-width:0; stroke-opacity:1; 
stroke-linecap:round; stroke-linejoin:round;">
</g>
<g style="fill:#840000; fill-opacity:0.0; 
stroke:#840000; stroke-width:0; stroke-opacity:1; 
stroke-linecap:round; stroke-linejoin:round;">
</g>
<g style="fill:#840000; fill-opacity:0.0; 
stroke:#840000; stroke-width:60; stroke-opacity:1; 
stroke-linecap:round; stroke-linejoin:round;">
<polyline fill="none;"
points="19500,22500
20500,23500
" /> 
<polyline fill="none;"
points="20500,23500
21500,22500
" /> 
<polyline fill="none;"
points="21500,22500
22500,22500
" /> 
<polyline fill="none;"
points="22500,22500
22500,23500
" /> 
<polyline fill="none;"
points="22500,22500
23500,22500
" /> 
<polyline fill="none;"
points="22500,23500
23500,23500
" /> 
</g>
<g style="fill:#840000; fill-opacity:1.0; 
stroke:#840000; stroke-width:60; stroke-opacity:1; 
stroke-linecap:round; stroke-linejoin:round;">
<rect x="19500" y="24200" width="4000" height="600" rx="0" />
</g>
<g style="fill:#840000; fill-opacity:0.0; 
stroke:#840000; stroke-width:60; stroke-opacity:1; 
stroke-linecap:round; stroke-linejoin:round;">
<path d="M23500 22500
L24500 22500
" />
<path d="M23500 24500
L24500 24500
" />
<path d="M23500 23500
L24500 23500
" />
</g>
<g style="fill:#008484; fill-opacity:0.0; 
stroke:#008484; stroke-width:60; stroke-opacity:1; 
stroke-linecap:round; stroke-linejoin:round;">
<path d="M19740 25030
L19740 25350
L19710 25410
L19670 25460
L19610 25480
L19560 25480
" />
<path d="M19930 25070
L19950 25050
L19990 25030
L20100 25030
L20140 25050
L20160 25070
L20180 25110
L20180 25160
L20160 25220
L19900 25480
L20180 25480
" />
<path d="M19610 21980
L19610 21530
L19780 21530
L19820 21550
L19840 21570
L19860 21610
L19860 21680
L19840 21720
L19820 21740
L19780 21760
L19610 21760
" />
<path d="M20140 21530
L20230 21530
L20270 21550
L20310 21590
L20340 21680
L20340 21830
L20310 21910
L20270 21960
L20230 21980
L20140 21980
L20100 21960
L20060 21910
L20040 21830
L20040 21680
L20060 21590
L20100 21550
L20140 21530
" />
<path d="M20480 21530
L20590 21980
L20680 21660
L20760 21980
L20870 21530
" />
<path d="M21040 21740
L21190 21740
" />
<path d="M21250 21980
L21040 21980
L21040 21530
L21250 21530
" />
<path d="M21700 21980
L21550 21760
" />
<path d="M21450 21980
L21450 21530
L21620 21530
L21660 21550
L21680 21570
L21700 21610
L21700 21680
L21680 21720
L21660 21740
L21620 21760
L21450 21760
" />
<path d="M21790 22020
L22130 22020
" />
<path d="M22370 21530
L22370 21850
L22340 21910
L22300 21960
L22240 21980
L22190 21980
" />
<path d="M22560 21850
L22770 21850
" />
<path d="M22510 21980
L22660 21530
L22810 21980
" />
<path d="M23220 21940
L23200 21960
L23140 21980
L23100 21980
L23030 21960
L22990 21910
L22970 21870
L22950 21790
L22950 21720
L22970 21640
L22990 21590
L23030 21550
L23100 21530
L23140 21530
L23200 21550
L23220 21570
" />
<path d="M23420 21980
L23420 21530
" />
<path d="M23670 21980
L23480 21720
" />
<path d="M23670 21530
L23420 21790
" />
</g>
<g style="fill:#840084; fill-opacity:0.0; 
stroke:#840084; stroke-width:60; stroke-opacity:1; 
stroke-linecap:round; stroke-linejoin:round;">
<path d="M19950 26740
L19920 26770
L19830 26800
L19770 26800
L19690 26770
L19630 26720
L19600 26660
L19570 26540
L19570 26460
L19600 26340
L19630 26290
L19690 26230
L19770 26200
L19830 26200
L19920 26230
L19950 26260
" />
<path d="M20320 26200
L20430 26200
L20490 26230
L20550 26290
L20570 26400
L20570 26600
L20550 26720
L20490 26770
L20430 26800
L20320 26800
L20260 26770
L20200 26720
L20170 26600
L20170 26400
L20200 26290
L20260 26230
L20320 26200
" />
<path d="M20830 26800
L20830 26200
L21180 26800
L21180 26200
" />
<path d="M21460 26800
L21460 26200
L21810 26800
L21810 26200
" />
<path d="M22090 26570
L22550 26570
" />
<path d="M22950 26200
L23000 26200
L23060 26230
L23090 26260
L23120 26320
L23150 26430
L23150 26570
L23120 26690
L23090 26740
L23060 26770
L23000 26800
L22950 26800
L22890 26770
L22860 26740
L22830 26690
L22800 26570
L22800 26430
L22830 26320
L22860 26260
L22890 26230
L22950 26200
" />
<path d="M23490 26460
L23430 26430
L23400 26400
L23370 26340
L23370 26320
L23400 26260
L23430 26230
L23490 26200
L23600 26200
L23660 26230
L23690 26260
L23720 26320
L23720 26340
L23690 26400
L23660 26430
L23600 26460
L23490 26460
L23430 26490
L23400 26520
L23370 26570
L23370 26690
L23400 26740
L23430 26770
L23490 26800
L23600 26800
L23660 26770
L23690 26740
L23720 26690
L23720 26570
L23690 26520
L23660 26490
L23600 26460
" />
<path d="M24290 26800
L23940 26800
" />
<path d="M24120 26800
L24120 26200
L24060 26290
L24000 26340
L23940 26370
" />
<path d="M24570 26800
L24690 26800
L24740 26770
L24770 26740
L24830 26660
L24860 26540
L24860 26320
L24830 26260
L24800 26230
L24740 26200
L24630 26200
L24570 26230
L24540 26260
L24510 26320
L24510 26460
L24540 26520
L24570 26540
L24630 26570
L24740 26570
L24800 26540
L24830 26520
L24860 26460
" />
<path d="M25060 26200
L25460 26200
L25200 26800
" />
</g>
<g style="fill:#840084; fill-opacity:0.0; 
stroke:#840084; stroke-width:0; stroke-opacity:1; 
stroke-linecap:round; stroke-linejoin:round;">
</g>
<g style="fill:#840000; fill-opacity:0.0; 
stroke:#840000; stroke-width:0; stroke-opacity:1; 
stroke-linecap:round; stroke-linejoin:round;">
</g>
<g style="fill:#840000; fill-opacity:0.0; 
stroke:#840000; stroke-width:500; stroke-opacity:1; 
stroke-linecap:round; stroke-linejoin:round;">
<circle cx="17000" cy="21500" r="500" /> 
</g>
<g style="fill:#008484; fill-opacity:0.0; 
stroke:#008484; stroke-width:500; stroke-opacity:1; 
stroke-linecap:round; stroke-linejoin:round;">
</g>
<g style="fill:#008484; fill-opacity:0.0; 
stroke:#008484; stroke-width:60; stroke-opacity:1; 
stroke-linecap:round; stroke-linejoin:round;">
<path d="M16340 19700
L16340 19200
L16510 19550
L16670 19200
L16670 19700
" />
<path d="M16910 19700
L16910 19200
" />
<path d="M16910 19430
L17190 19430
" />
<path d="M17190 19700
L17190 19200
" />
<path d="M17690 19700
L17410 19700
" />
<path d="M17550 19700
L17550 19200
L17500 19270
L17450 19320
L17410 19340
" />
<path d="M14620 20450
L14620 19950
L14790 20300
L14950 19950
L14950 20450
" />
<path d="M15260 20450
L15210 20420
L15190 20400
L15170 20350
L15170 20210
L15190 20160
L15210 20140
L15260 20110
L15330 20110
L15380 20140
L15400 20160
L15430 20210
L15430 20350
L15400 20400
L15380 20420
L15330 20450
L15260 20450
" />
<path d="M15850 20110
L15850 20450
" />
<path d="M15640 20110
L15640 20370
L15660 20420
L15710 20450
L15780 20450
L15830 20420
L15850 20400
" />
<path d="M16090 20110
L16090 20450
" />
<path d="M16090 20160
L16110 20140
L16160 20110
L16230 20110
L16280 20140
L16300 20180
L16300 20450
" />
<path d="M16470 20110
L16660 20110
" />
<path d="M16540 19950
L16540 20370
L16560 20420
L16610 20450
L16660 20450
" />
<path d="M16830 20450
L16830 20110
" />
<path d="M16830 19950
L16810 19970
L16830 19990
L16850 19970
L16830 19950
L16830 19990
" />
<path d="M17070 20110
L17070 20450
" />
<path d="M17070 20160
L17090 20140
L17140 20110
L17210 20110
L17260 20140
L17280 20180
L17280 20450
" />
<path d="M17730 20110
L17730 20520
L17710 20570
L17690 20590
L17640 20610
L17570 20610
L17520 20590
" />
<path d="M17730 20420
L17690 20450
L17590 20450
L17540 20420
L17520 20400
L17500 20350
L17500 20210
L17520 20160
L17540 20140
L17590 20110
L17690 20110
L17730 20140
" />
<path d="M17970 20450
L17970 19950
" />
<path d="M17970 20180
L18250 20180
" />
<path d="M18250 20450
L18250 19950
" />
<path d="M18560 20450
L18510 20420
L18490 20400
L18470 20350
L18470 20210
L18490 20160
L18510 20140
L18560 20110
L18630 20110
L18680 20140
L18700 20160
L18730 20210
L18730 20350
L18700 20400
L18680 20420
L18630 20450
L18560 20450
" />
<path d="M19010 20450
L18960 20420
L18940 20370
L18940 19950
" />
<path d="M19390 20420
L19340 20450
L19250 20450
L19200 20420
L19180 20370
L19180 20180
L19200 20140
L19250 20110
L19340 20110
L19390 20140
L19410 20180
L19410 20230
L19180 20280
" />
</g> 
</svg>
